<?xml version="1.0" encoding="UTF-8"?>
<svg xmlns="http://www.w3.org/2000/svg" xmlns:xlink="http://www.w3.org/1999/xlink" width="198.8pt" height="234.7pt" viewBox="0 0 198.8 234.7" version="1.1">
	<g id="surface1">
		<path style=" stroke:none;fill-rule:evenodd;fill:rgb(8.616638%,15.696716%,21.556091%);fill-opacity:1;" d="M 48.539063 230.972656 C 50.703125 231.265625 52.78125 231.265625 54.695313 230.972656 C 56.417969 230.476563 63.636719 229.28125 70.84375 221.789063 C 72.585938 219.976563 72.144531 218.230469 75.796875 217.804688 C 98.625 215.15625 101.105469 206.367188 136.347656 210.996094 C 154.335938 213.359375 149.886719 213.660156 155.441406 217.964844 C 164.167969 224.71875 177.175781 221.011719 184.410156 209.066406 C 188.824219 201.777344 191.554688 190.535156 191.023438 180.355469 C 189.984375 160.492188 176.015625 152.539063 164.097656 160.011719 C 162.289063 161.148438 160.5625 162.414063 159.359375 163.792969 C 158.082031 165.261719 156.757813 167.816406 155.179688 168.890625 L 154.65625 163.878906 C 154.53125 147.214844 152.175781 160.644531 167.507813 137.832031 C 172.605469 130.242188 179.742188 116.152344 180.933594 105.394531 C 185.65625 103.703125 188.109375 103.007813 190.527344 99.617188 C 198.878906 87.894531 188.871094 72.304688 173.25 76.921875 C 172.253906 64.425781 172.671875 58.996094 168.535156 47.691406 C 160.988281 27.089844 145.816406 12.316406 124.414063 6.03125 C 121.007813 5.03125 112.054688 3.175781 109.710938 2.882813 C 105.089844 2.585938 100.644531 2.613281 96.359375 2.882813 C 90.078125 4.066406 72.472656 3.671875 51.089844 18.226563 C 40.179688 25.652344 29.363281 36.640625 24.089844 52.515625 C 18.355469 69.785156 20.140625 88.734375 27.183594 104.347656 C 31.882813 114.773438 41.753906 127.222656 51.289063 133.515625 C 53.421875 134.925781 57.597656 138.273438 52.09375 137.566406 L 43.320313 136.074219 C 39.140625 135.5625 35.007813 135.21875 30.867188 135.277344 C 25.882813 119.378906 10.71875 121.0625 4.457031 129.296875 C 0.0507813 135.089844 0.617188 146.882813 10.742188 151.1875 C 14.488281 152.78125 16.964844 151.914063 20.9375 151.996094 C 26.238281 156.179688 30.0625 158.082031 37 161.152344 L 50.71875 166.597656 C 52.507813 167.269531 53.636719 167.765625 55.332031 168.667969 L 55.152344 173.996094 C 51.910156 175.957031 48.214844 174.960938 40.597656 184.089844 C 30.507813 196.183594 26.09375 217.011719 39.777344 227.082031 C 43.222656 229.613281 45.09375 229.914063 48.539063 230.972656 Z M 48.539063 230.972656 "/>
		<path style=" stroke:none;fill-rule:evenodd;fill:rgb(1.177979%,67.381287%,92.1875%);fill-opacity:1;" d="M 149.628906 133.59375 C 149.3125 136.28125 141.933594 134.519531 138.867188 136.707031 C 148.351563 144.390625 154.054688 164.128906 146.765625 178.371094 C 132.949219 205.371094 89.203125 205.730469 72.238281 182.339844 C 58.5625 163.480469 73.320313 143.214844 75.660156 142.269531 C 72.351563 142.089844 65.851563 142.933594 63.769531 142.40625 C 53.964844 139.917969 45.234375 135.851563 31.179688 136.878906 C 30.472656 144.675781 27.914063 147.882813 22.742188 151.089844 C 25.605469 156.214844 49.699219 164.734375 57.714844 167.671875 C 57.214844 169.695313 56.984375 168.308594 56.671875 170.792969 C 56.183594 174.636719 57.328125 181.410156 56.09375 183.453125 C 54.632813 182.335938 55.230469 181.039063 54.832031 178.472656 C 45.179688 188.671875 40.445313 223.003906 81.875 215.667969 C 92.765625 213.742188 97.191406 209.164063 114.136719 208.628906 C 120.710938 208.421875 126.890625 208.613281 133.261719 209.234375 C 139.0625 209.796875 144.976563 211.550781 150.21875 211.847656 C 145.371094 195.917969 146.519531 188.941406 153.1875 173.003906 C 154.3125 170.3125 153.578125 171.746094 153.285156 169.652344 C 152.90625 166.953125 153.265625 162.167969 153.101563 159.050781 C 152.929688 155.796875 150.808594 141.722656 151.449219 140.515625 C 153.476563 142.664063 153.734375 148.480469 154.074219 152.121094 C 163.398438 145.28125 178.769531 117.84375 179.433594 105.429688 C 174.074219 105.15625 170.960938 103.628906 168.152344 101.089844 C 165.417969 107.34375 163.0625 112.476563 159.660156 117.730469 L 151.234375 128.53125 C 150.390625 130.449219 151.289063 130.621094 150.414063 132.515625 C 149.949219 133.527344 150.296875 132.929688 149.628906 133.59375 Z M 149.628906 133.59375 "/>
		<path style="fill-rule:evenodd;fill:rgb(99.609375%,99.609375%,99.21875%);fill-opacity:1;stroke-width:2.16;stroke-linecap:butt;stroke-linejoin:miter;stroke:rgb(0%,0%,0%);stroke-opacity:1;stroke-miterlimit:4;" d="M 1192.617188 966.492188 C 1193.671875 965.28125 1195.390625 965.28125 1195.9375 963.015625 C 1196.484375 960.828125 1198.398438 960.4375 1199.140625 959.578125 C 1233.632813 918.328125 1222.578125 767.625 1099.296875 758.679688 C 1041.171875 754.460938 1005.585938 780.398438 981.992188 815.515625 C 967.304688 837.351563 966.757813 850.398438 958.867188 878.210938 C 944.179688 930.164063 961.71875 914.265625 974.0625 942.625 C 925.234375 939.734375 876.054688 934.460938 827.304688 931.179688 C 783.359375 928.210938 769.140625 930.789063 728.59375 865.710938 C 504.804688 506.53125 1066.054688 181.453125 1389.84375 486.804688 C 1433.476563 527.976563 1465.546875 568.054688 1480.859375 639.929688 C 1503.164063 744.695313 1471.679688 881.140625 1398.007813 948.914063 C 1381.25 964.34375 1378.632813 982.039063 1344.296875 980.4375 C 1295.429688 978.210938 1242.890625 968.796875 1192.617188 966.492188 Z M 762.226563 676.765625 C 764.882813 500.789063 931.835938 394.382813 1122.226563 412.585938 C 1221.71875 422.117188 1292.226563 449.070313 1347.773438 501.960938 C 1395.15625 547.117188 1444.921875 641.140625 1422.03125 738.40625 C 1310 745.359375 1185.15625 739.109375 1073.984375 727.117188 C 1021.757813 721.492188 966.289063 715.164063 914.882813 706.609375 C 866.015625 698.445313 801.015625 688.09375 762.226563 676.765625 Z M 775.78125 660.359375 C 823.59375 478.210938 948.75 406.960938 1125.546875 426.101563 C 1210.820313 434.304688 1290.390625 466.335938 1336.679688 507.820313 C 1370.820313 538.40625 1436.640625 647.195313 1409.453125 725.515625 C 1318.945313 733.40625 839.492188 694.070313 775.78125 660.359375 Z M 775.78125 660.359375 " transform="matrix(0.1,0,0,-0.1,0,234.7)"/>
		<path style=" stroke:none;fill-rule:evenodd;fill:rgb(1.177979%,67.381287%,92.1875%);fill-opacity:1;" d="M 59.027344 135.296875 C 57.675781 134.886719 52.773438 130.617188 51.636719 129.421875 C 42.410156 119.738281 34.433594 108.585938 30.828125 94.882813 C 29.8125 91.023438 29.324219 87.140625 28.316406 83.496094 C 26.808594 78.035156 29.09375 72.921875 31.324219 66.664063 C 32.472656 63.429688 32.207031 64.554688 31.574219 62.152344 C 33.769531 61.695313 33.652344 61.003906 34.648438 59.34375 C 37.300781 54.9375 40.117188 52.222656 42.070313 49.339844 C 40.109375 48.40625 38.984375 48.339844 37.46875 47.503906 C 36.761719 46.359375 38.21875 46.304688 38.402344 46.511719 C 41.640625 47.175781 41.988281 47.777344 42.851563 47.996094 C 43.285156 47.621094 44.632813 46.539063 49.253906 43.59375 C 51.183594 42.175781 52.839844 41.222656 54.90625 40.15625 C 57.167969 38.992188 59.589844 38.410156 61.441406 37.089844 C 61.316406 25.738281 62.265625 16.910156 71.046875 12.613281 C 75.390625 10.488281 80.539063 10.636719 84.699219 12.742188 C 89.40625 15.128906 90.078125 18.273438 92.796875 22.195313 C 93.898438 17.0625 94.886719 13.597656 98.328125 10.59375 C 106.433594 3.53125 123.367188 7.796875 126.097656 29.386719 C 130 30.515625 134.035156 30.972656 137.625 32.261719 C 139.238281 32.84375 140.886719 33.878906 142.417969 34.390625 C 144.957031 35.238281 144.742188 33.777344 147.871094 33.28125 C 147.074219 35.402344 147.105469 34.503906 145.289063 35.710938 C 147.394531 36.863281 148.914063 38.175781 151.1875 39.9375 C 154.980469 42.878906 154.183594 44.339844 157.894531 44.570313 C 157.300781 48.015625 159.097656 47.796875 161.898438 53.253906 C 163.035156 55.46875 165.625 60.566406 166.257813 62.816406 C 167.773438 68.199219 167.402344 83.085938 166.242188 88.550781 C 164.515625 96.65625 162.183594 102.871094 159.082031 109.691406 C 157.457031 113.269531 156.113281 115.390625 154.273438 118.742188 C 152.460938 122.039063 150.570313 124.585938 148.925781 127.636719 C 152.359375 127.144531 160.074219 114.914063 161.691406 111.757813 C 172.890625 89.890625 175.8125 64.046875 164.648438 42.003906 C 149.449219 12.003906 120.101563 -0.0390625 87.027344 5.648438 C 57.203125 10.78125 31.65625 28.296875 23.828125 58.609375 C 12.652344 101.878906 51.144531 136.839844 59.027344 135.296875 Z M 59.027344 135.296875 "/>
		<path style=" stroke:none;fill-rule:evenodd;fill:rgb(99.609375%,99.609375%,99.21875%);fill-opacity:1;" d="M 170.332031 159.003906 C 158.667969 161.601563 151.710938 176.121094 149.335938 189.472656 C 146.636719 204.652344 152.144531 222.417969 168.855469 219.546875 C 186.832031 216.464844 194.710938 184.253906 186.332031 167.328125 C 183.875 162.355469 177.769531 157.34375 170.332031 159.003906 Z M 170.332031 159.003906 "/>
		<path style=" stroke:none;fill-rule:evenodd;fill:rgb(88.671875%,10.205078%,20.776367%);fill-opacity:1;" d="M 49.867188 96.753906 C 52.5625 101.699219 61.050781 112.058594 65.152344 113.722656 C 68.652344 111.945313 73.433594 105.871094 88.417969 101.933594 C 91.777344 101.050781 94.5 100.503906 98.46875 99.710938 C 109.34375 97.527344 119.390625 97.695313 129.902344 101.339844 C 132.976563 102.398438 135.128906 104.253906 138.167969 105.242188 C 140.675781 100.492188 146.90625 91.300781 147.21875 85.011719 C 139.628906 83.558594 129.761719 82.355469 121.621094 81.925781 C 104.207031 81.007813 88.796875 85.128906 72.59375 90.261719 C 68.902344 91.433594 65.382813 92.480469 61.625 93.714844 C 59.375 94.449219 50.734375 96.1875 49.867188 96.753906 Z M 49.867188 96.753906 "/>
		<path style=" stroke:none;fill-rule:evenodd;fill:rgb(95.3125%,49.021912%,19.993591%);fill-opacity:1;" d="M 66.179688 115.003906 C 76.636719 122.425781 88.082031 129.265625 105.609375 127.566406 C 113.152344 126.839844 119.191406 123.945313 124.3125 120.222656 C 127.644531 117.800781 136.167969 109.988281 136.992188 106.339844 C 128.984375 99.199219 110.585938 98.785156 98.566406 100.796875 C 88.808594 102.425781 69.371094 108.9375 66.179688 115.003906 Z M 66.179688 115.003906 "/>
		<path style="fill-rule:evenodd;fill:rgb(99.609375%,99.609375%,99.21875%);fill-opacity:1;stroke-width:2.16;stroke-linecap:butt;stroke-linejoin:miter;stroke:rgb(0%,0%,0%);stroke-opacity:1;stroke-miterlimit:4;" d="M 747.890625 2219.695313 C 574.453125 2178.40625 585.546875 1816.453125 812.226563 1841.726563 C 874.296875 1848.601563 851.796875 1866.453125 908.710938 1914.460938 C 942.695313 1943.171875 935.742188 2015.28125 929.53125 2060.671875 C 916.71875 2153.992188 855.3125 2245.28125 747.890625 2219.695313 Z M 1044.21875 2255.242188 C 919.257813 2223.601563 932.460938 2044.617188 974.726563 1950.90625 C 988.90625 1919.539063 995.390625 1935.242188 1026.09375 1917.351563 C 1073.320313 1889.734375 1056.523438 1853.875 1153.632813 1882.976563 C 1349.765625 1941.765625 1226.5625 2301.296875 1044.21875 2255.242188 Z M 1085.703125 2134.1875 C 1067.539063 2126.414063 1067.34375 2128.757813 1061.484375 2103.132813 C 1057.109375 2083.992188 1056.914063 2068.445313 1059.804688 2049.109375 C 1063.789063 2022.234375 1077.265625 1984.460938 1113.320313 1997.234375 C 1162.070313 2014.460938 1140.507813 2157.585938 1085.703125 2134.1875 Z M 735 2084.8125 C 716.875 2077.039063 716.640625 2079.382813 710.78125 2053.757813 C 706.40625 2034.617188 706.25 2019.03125 709.101563 1999.734375 C 713.085938 1972.859375 726.5625 1935.125 762.617188 1947.859375 C 811.367188 1965.085938 789.84375 2108.210938 735 2084.8125 Z M 627.8125 995.90625 C 898.710938 1015.789063 1168.515625 1047.859375 1443.28125 1067.9375 C 1477.109375 1070.4375 1463.632813 1071.921875 1485.664063 1087.078125 C 1503.515625 1128.09375 1554.21875 1184.96875 1607.265625 1317.078125 C 1643.554688 1407.507813 1668.320313 1511.84375 1660.625 1622.078125 C 1643.046875 1597.859375 1640.742188 1575.554688 1597.03125 1540.398438 C 1562.539063 1512.664063 1541.914063 1513.835938 1496.09375 1498.953125 L 1429.53125 1345.828125 C 1351.796875 1202.351563 1234.0625 1073.757813 1046.914063 1057.9375 C 910.195313 1046.375 792.03125 1095.164063 701.601563 1155.789063 C 629.140625 1204.382813 577.1875 1253.210938 527.34375 1317.390625 C 511.5625 1337.742188 497.929688 1364.695313 482.382813 1383.40625 C 435.78125 1382.9375 378.789063 1393.09375 344.492188 1422.15625 C 329.257813 1435.085938 333.085938 1440.007813 313.632813 1453.71875 C 327.734375 1297.78125 532.695313 1007.546875 627.8125 995.90625 Z M 1076.09375 1861.492188 C 1086.054688 1770.359375 1067.34375 1741.960938 993.515625 1711.84375 L 1009.921875 1534.226563 C 1044.375 1531.0625 1113.28125 1542.117188 1155.15625 1542.039063 C 1386.054688 1541.492188 1552.304688 1451.648438 1638.242188 1611.257813 C 1682.382813 1693.210938 1637.226563 1787.976563 1566.757813 1807.664063 C 1545.429688 1813.601563 1520.820313 1813.640625 1501.210938 1806.882813 C 1471.25 1796.492188 1474.804688 1784.109375 1450.3125 1774.65625 C 1456.367188 1824.890625 1538.789063 1843.132813 1613.398438 1800.789063 C 1599.960938 1830.515625 1581.210938 1860.085938 1560.039063 1881.023438 C 1518.007813 1872.742188 1203.945313 1731.804688 1194.648438 1730.476563 C 1193.710938 1730.28125 1192.03125 1730.203125 1191.09375 1730.164063 L 1180.820313 1731.960938 C 1201.796875 1764.109375 1524.414063 1871.140625 1549.335938 1898.210938 C 1437.1875 2009.851563 1439.6875 1987.195313 1346.835938 1928.757813 L 1191.289063 1829.148438 C 1174.414063 1818.015625 1156.71875 1800.007813 1135.429688 1802.507813 C 1149.375 1833.210938 1400.195313 1970.671875 1422.734375 1992.898438 C 1366.875 2010.515625 1334.765625 2029.1875 1264.6875 2037.234375 C 1268.242188 1913.210938 1199.492188 1858.015625 1076.09375 1861.492188 Z M 456.054688 1866.414063 C 481.015625 1856.140625 510 1848.523438 530.546875 1841.882813 L 670.9375 1791.335938 C 700.703125 1780.398438 750.664063 1767.898438 732.929688 1754.382813 C 703.28125 1758.210938 497.03125 1845.359375 439.6875 1848.640625 L 392.109375 1792.039063 C 374.257813 1771.101563 365.3125 1754.265625 353.007813 1729.226563 C 409.609375 1727.898438 675.9375 1707.234375 712.8125 1689.34375 C 710.46875 1684.1875 717.070313 1677.351563 680.976563 1682.9375 L 539.0625 1701.6875 C 476.289063 1709.148438 407.382813 1716.453125 343.90625 1715.242188 C 336.523438 1694.734375 322.304688 1670.710938 320.273438 1644.34375 C 348.359375 1668.015625 435.195313 1700.945313 453.632813 1648.445313 C 402.773438 1661.53125 379.726563 1674.65625 334.84375 1636.257813 C 242.382813 1557.15625 310.742188 1389.96875 489.453125 1397.039063 C 587.421875 1400.90625 825.078125 1499.734375 996.875 1527.625 L 978.203125 1710.125 C 902.148438 1713.40625 852.65625 1758.484375 858.867188 1839.382813 C 738.28125 1805.828125 648.320313 1861.609375 623.90625 1958.601563 C 545.273438 1942.351563 480.9375 1885.632813 456.054688 1866.414063 Z M 456.054688 1866.414063 " transform="matrix(0.1,0,0,-0.1,0,234.7)"/>
		<path style=" stroke:none;fill-rule:evenodd;fill:rgb(99.609375%,99.609375%,99.21875%);fill-opacity:1;" d="M 71.652344 218.019531 C 60.085938 217.644531 50.703125 214.371094 48.011719 204.445313 C 46.148438 197.589844 47.03125 187.246094 50.847656 181.023438 C 53.421875 176.832031 54.265625 177.628906 55.0625 175.753906 C 42.933594 178.316406 28.757813 198.269531 33.394531 215.332031 C 38.640625 234.617188 62.820313 233.050781 71.652344 218.019531 Z M 71.652344 218.019531 "/>
		<path style=" stroke:none;fill-rule:evenodd;fill:rgb(99.609375%,99.609375%,99.21875%);fill-opacity:1;" d="M 13.886719 125.027344 C 7.367188 126.414063 1.648438 132.121094 3.367188 140.425781 C 4.652344 146.628906 10.980469 152.371094 18.988281 150.683594 C 36.152344 147.0625 30.738281 121.429688 13.886719 125.027344 Z M 13.886719 125.027344 "/>
		<path style=" stroke:none;fill-rule:evenodd;fill:rgb(99.609375%,99.609375%,99.21875%);fill-opacity:1;" d="M 177.25 77.476563 C 169.632813 78.609375 174.816406 79.210938 170.035156 95.0625 C 168.496094 100.175781 168.578125 100.316406 172.765625 102.566406 C 182.175781 107.621094 195.058594 98.789063 191.667969 86.882813 C 190.089844 81.339844 184.179688 76.445313 177.25 77.476563 Z M 177.25 77.476563 "/>
		<path style=" stroke:none;fill-rule:evenodd;fill:rgb(88.671875%,10.205078%,20.776367%);fill-opacity:1;" d="M 57.480469 137.300781 L 55.808594 137.632813 C 56.960938 139.734375 56.300781 138.761719 59.207031 139.359375 C 61.085938 139.742188 61.269531 140.09375 63.242188 140.546875 C 68.640625 141.546875 86.453125 139.675781 93.933594 139.183594 C 103.074219 138.589844 98.859375 134.78125 107.21875 133.800781 C 113.765625 133.03125 113.949219 135.796875 117.488281 136.425781 C 121.082031 137.0625 142.007813 134.390625 146.730469 133.429688 C 148.980469 132.972656 149.480469 132.132813 148.929688 129.640625 C 142.878906 128.90625 69.226563 136.0625 57.480469 137.300781 Z M 57.480469 137.300781 "/>
		<path style=" stroke:none;fill-rule:evenodd;fill:rgb(88.671875%,10.205078%,20.776367%);fill-opacity:1;" d="M 94.304688 43.382813 C 88.964844 44.96875 85.992188 48.488281 86.992188 54.648438 C 88.953125 66.734375 109.046875 64.003906 106.324219 50.789063 C 105.085938 44.777344 99.398438 41.871094 94.304688 43.382813 Z M 94.304688 43.382813 "/>
		<path style=" stroke:none;fill-rule:evenodd;fill:rgb(98.4375%,90.234375%,31.762695%);fill-opacity:1;" d="M 97.761719 146.109375 C 98.140625 152.941406 102.699219 157.152344 109.738281 157.285156 L 109.433594 151.070313 C 106.914063 150.589844 106.671875 150.679688 105.160156 149.492188 C 104.621094 143.988281 110.332031 144.230469 113.65625 146.011719 C 114.097656 149.015625 113.484375 149.402344 111.140625 150.554688 L 111.496094 156.914063 C 118.03125 154.835938 120.425781 149.941406 119.601563 143.628906 C 113.84375 140.433594 103.304688 144.90625 97.761719 146.109375 Z M 97.761719 146.109375 "/>
		<path style=" stroke:none;fill-rule:evenodd;fill:rgb(99.609375%,99.609375%,99.21875%);fill-opacity:1;" d="M 98.101563 49.761719 C 97.304688 48.851563 97.148438 48.695313 96.148438 47.855469 C 92.917969 47.984375 90.578125 50.441406 92.992188 52.949219 C 93.96875 53.964844 95.558594 54.015625 96.820313 53.351563 C 98.109375 52.671875 98.09375 51.546875 98.101563 49.761719 Z M 98.101563 49.761719 "/>
	</g>
</svg>
