<svg id="Layer_1" enable-background="new 0 0 512 512" height="512" viewBox="0 0 512 512" width="512" xmlns="http://www.w3.org/2000/svg">
<g>
<!--	<path stroke="black" stroke-width="2" fill="none" d="m500 500 c-80 -50, -120 -120, -90 -150 c 40 -30, 120 10, 190 100, 140 170, 110 190, -100 50 m-400 0 m500 0 m 0 0 c100 -200 200 -200 300 0 s100 300 0 500z"/>
    <path stroke="red" stroke-width="2" fill="none" d="M100 600 c0 -100 200 -100 200 0 0 100 200 100 200 0 m-300 0 c0 -50 100 -50 100 0"/>
	<path stroke="red" fill="none" stroke-width="2" d="M200 800 a600 400 0 0 1 400 -600"/>
-->
<!--	<path class="cls-1" d="M523.76,708.68c30.52,31.38,56.24,50.88,62.73,98.79-19.92,13-31.4,32.17-125.62,55.91S83.51,933.85,108,830.7c6.53-27.47,15.88-48.6,26.09-64.82,28.12-44.69,62.76-52.11,62.76-52.11l11.87-5.44S227.6,706,232,675.92a22.86,22.86,0,0,1,12.86-.45,23.93,23.93,0,0,1,12.46,8.63c3.26-2.23,15.92-10.3,33-8.12,22.24,2.84,33.53,20.72,35,23.11.25-.8,4.61-14,18.13-17.49,11.47-3,20.48,3.46,21.67,4.35a46.06,46.06,0,0,1,44.25-40c.62-4,3.29-18.12,15.78-28.69a45.73,45.73,0,0,1,27.26-10.54A150.38,150.38,0,0,0,471,651.2c13.56,21.52,29,32.87,35.85,39.08C512.57,697,518.24,703,523.76,708.68Z" transform="translate(-101.52 -128.37)"/>
	<path class="cls-1" d="M232.5,652.09l231-200.74q-2.86,9.82-5.18,19.13c-.5,2-1,4-1.44,5.95-13.48,56.94-12.22,99.07-4.5,130.29a45.73,45.73,0,0,0-27.26,10.54C412.64,627.83,410,641.91,409.35,646a46.06,46.06,0,0,0-44.25,40c-1.19-.89-10.2-7.31-21.67-4.35-13.52,3.47-17.88,16.69-18.13,17.49-1.45-2.39-12.74-20.27-35-23.11-17.07-2.18-29.73,5.89-33,8.12a23.93,23.93,0,0,0-12.46-8.63,22.86,22.86,0,0,0-12.86.45A106.52,106.52,0,0,0,232.5,652.09Z" transform="translate(-101.52 -128.37)"/>
	<path class="cls-1" d="M463.51,451.35v0c5.86-15.61,12.58-33.62,21.14-55l.72-1.79c9-32.8,15-66.75,15.61-98.89.38-20.45-1.44-40.16-6.1-58.37a146.51,146.51,0,0,0-12-31.8c-16.32-31.32-44.89-55.18-90.37-65.93a246.76,246.76,0,0,0-48.85-6.1c-17.51-.56-39.9,2.62-63.58,10.77q-6.63,2.28-13.37,5.09a216.36,216.36,0,0,0-96.31,78.28,223.92,223.92,0,0,0-23.82,46.05,253.45,253.45,0,0,0-10.15,33.68c-.42,4.35-.75,8.34-1,12-.07,1-.13,2-.18,2.95-1.07,19.34.42,29.19,2.34,37.05,1.66,6.8,3.66,12.1,4.61,20.75a292.68,292.68,0,0,0-.26,78.59c1.3,10.39,3.07,20.55,5.18,30.4q2.15,10,4.73,19.55a415.28,415.28,0,0,0,15.73,46.85c3.33,8.27,6.74,16,10.07,23,5.09,10.65,10,19.72,14.34,26.85,6.13,11.8,12.86,24.28,22,33.86a59,59,0,0,0,8.6,7.52,49.86,49.86,0,0,0,4.71,3c8.6,4.78,19,7.1,31.83,5.47a95.74,95.74,0,0,0,24.26-6.76c14-5.75,30.35-15.22,49.45-29.41q5.25-3.92,10.8-8.3c1.61-1.28,3.2-2.54,4.75-3.79L350,605.6c17.16-13.75,31-25.57,42.42-36.36.61-.56,1.2-1.13,1.79-1.69l1.84-1.78h0c31-30,43.3-52.5,57.5-88.32q1.56-3.93,3.15-8.08C458.86,463.72,461.11,457.74,463.51,451.35Z" transform="translate(-101.52 -128.37)"/>

	<path class="cls-2" d="M359.72,154.32a146.45,146.45,0,0,0,109.46,54.91" transform="translate(-101.52 -128.37)"/>
	<path class="cls-2" d="M207.13,493.47a156.47,156.47,0,0,1,25.37-51" transform="translate(-101.52 -128.37)"/>
	<path class="cls-2" d="M440.73,316.84l.81-.15" transform="translate(-101.52 -128.37)"/>
	<path class="cls-2" d="M163.68,492.15a31.63,31.63,0,0,1,17.87-4.6,29.12,29.12,0,0,1,6.88,1.24,12.89,12.89,0,0,1,9.46-2.26c6.17,1,8.94,6.38,9.23,7h0c.91-.94,8.19-8.2,18.85-6.94a22.66,22.66,0,0,1,13.78,7.18A22.06,22.06,0,0,1,254.57,487c10.51-.33,16.92,7.4,17.64,8.3a34.52,34.52,0,0,1,9.94-10.85,31.52,31.52,0,0,1,5.37-3" transform="translate(-101.52 -128.37)"/>
	<path class="cls-2" d="M195.73,353.1a27,27,0,0,0,8.8-1.89A29.4,29.4,0,0,0,220,336.46c.72,1.26,4.82,8.13,12.66,9.65,8.52,1.64,18-3.71,22.26-13.42h0a17.22,17.22,0,0,0,31.79,10.67.05.05,0,0,1,0,0,26.23,26.23,0,0,0,1.66,12.83" transform="translate(-101.52 -128.37)"/>
	<path class="cls-2" d="M427.07,783.08a146.47,146.47,0,0,0,55.76,28.73" transform="translate(-101.52 -128.37)"/>
	<path class="cls-2" d="M200,531.6a195.73,195.73,0,0,1,7.15-38.12" transform="translate(-101.52 -128.37)"/>
	<path class="cls-2" d="M201.82,588.29A241.94,241.94,0,0,1,200,531.61h0a21.82,21.82,0,0,1,40.84,3.94s0,.05,0,.07a36.18,36.18,0,0,1,51-4.35h0a35.58,35.58,0,0,1,17.34-15.1c14.57-5.8,27.59.68,29.6,1.72A149.77,149.77,0,0,1,437,458.71h0a77.13,77.13,0,0,1,37.89-66.88,125.91,125.91,0,0,1,17-94.71" transform="translate(-101.52 -128.37)"/>
	<path class="cls-2" d="M208.74,708.33h0A57.91,57.91,0,0,1,220.36,711a62.88,62.88,0,0,1,25.9,17h0c3.45-1.82,17.29-8.61,33.84-4,25.1,6.94,32.4,33.4,32.71,34.6h0a70.31,70.31,0,0,1,75.73-20.77,46.16,46.16,0,0,1,42-48.16c.56-4.25,2.87-17.6,14.24-27.7A43.9,43.9,0,0,1,471,651.2" transform="translate(-101.52 -128.37)"/>
	<path class="cls-2" d="M134.11,765.88c15.68-8.54,33.43-10.91,49.49-5.9,20.42,6.37,31.27,22.54,34.7,28.19A64.47,64.47,0,0,1,300.42,802h0a119.92,119.92,0,0,1,126.61-18.9s0,0,0,0c.19-1.88,2.58-22.41,20.78-32.29,12.45-6.77,24.68-4.42,28.12-3.63h0c.19-2.31,2.13-22.47,19.35-33.14a41.18,41.18,0,0,1,28.42-5.34" transform="translate(-101.52 -128.37)"/>
	<path class="cls-2" d="M469.19,209.23a42.49,42.49,0,0,0,11.09,18.92,40.63,40.63,0,0,0,14.61,9.11" transform="translate(-101.52 -128.37)"/>
-->
	<path class="cls-2" d="M332.19,605.51c.06.64.11,1.29.16,1.94.29,3.65.46,7.49.53,11.47.68,40.1-9.1,95.65-20.05,139.65-4.13,16.6-8.43,31.55-12.39,43.4-4.07,12.16-7.79,21.06-10.63,25.16" transform="translate(-101.52 -128.37)"/>
	<path class="cls-2" d="M350,605.6c0,1,.12,2,.19,3,2.91,41.26,14.29,89.48,38.4,129.18,10.36,17.08,23.08,32.58,38.49,45.27" transform="translate(-101.52 -128.37)"/>
	<path class="cls-2" d="M394.26,564.87c-.05.89-.07,1.78-.08,2.68,0,.46,0,.92,0,1.38-.33,37.58,12.84,81.22,36.38,120.71A276,276,0,0,0,476,747.16c23.55,22.63,51.39,40.59,82.43,50.35" transform="translate(-101.52 -128.37)"/>
	<path class="cls-2" d="M350.16,608.62c-.58-.59-1.16-1.19-1.73-1.79-1.39-1.44-2.78-2.92-4.16-4.41-5.76-6.25-11.42-12.88-16.92-19.79a476.16,476.16,0,0,1-35.48-51.38c-7.29-12.1-13.9-24.22-19.66-35.91-12.63-25.62-21.18-49.13-23.65-65.66" transform="translate(-101.52 -128.37)"/>
	<path class="cls-2" d="M458.33,470.48q-.82-.59-1.65-1.11A136.52,136.52,0,0,0,437,458.7a169.79,169.79,0,0,0-31-10.48" transform="translate(-101.52 -128.37)"/>
	<path class="cls-2" d="M286.68,343.35a199.2,199.2,0,0,0-12.4,25.12" transform="translate(-101.52 -128.37)"/>
	<path class="cls-2" d="M501,295.63c-1.85.19-3.64.44-5.35.74" transform="translate(-101.52 -128.37)"/>
	<path class="cls-2" d="M280.1,144.2a63.08,63.08,0,0,0,29.11,17.57c21.64,5.94,39.61-1.53,47.16-5.53,1.56-.82,2.67-1.5,3.28-1.88" transform="translate(-101.52 -128.37)"/>
	<path class="cls-2" d="M259.17,655.09c.93,21.6-4.23,47.54-12.91,72.91a309.94,309.94,0,0,1-28,60.17c-14.44,23.64-30.63,41.34-44.92,46.11" transform="translate(-101.52 -128.37)"/>
	<path class="cls-2" d="M167.61,555.45A190.89,190.89,0,0,1,175.47,518a149.75,149.75,0,0,1,13-29.25c1.85-3.21,3.79-6.27,5.8-9.22" transform="translate(-101.52 -128.37)"/>
	<path class="cls-2" d="M214,639.12a307,307,0,0,1-9.33-34.56q-1.71-8.22-2.88-16.27" transform="translate(-101.52 -128.37)"/>
	<path class="cls-2" d="M283.43,648.33c-1.15-1.83-2.29-3.67-3.4-5.5a325.73,325.73,0,0,1-20-38.16,239.44,239.44,0,0,1-19.18-69.13,233.72,233.72,0,0,1-1.05-41.83,285.87,285.87,0,0,1,8.8-53.82" transform="translate(-101.52 -128.37)"/>
	<path class="cls-2" d="M396,565.77c-.59-.29-1.18-.59-1.76-.9a178.6,178.6,0,0,1-17.92-10.51C361.28,544.29,348,532,338.81,517.87a81.51,81.51,0,0,1-12-28.5" transform="translate(-101.52 -128.37)"/>
	<path class="cls-2" d="M484.66,396.31a47.72,47.72,0,0,0-9.73-4.49,75.18,75.18,0,0,0-29.59-3.28" transform="translate(-101.52 -128.37)"/>
	<path class="cls-2" d="M228.78,196.75c8.72-19.94,21.53-35,38-47.46" transform="translate(-101.52 -128.37)"/>
	<path class="cls-2" d="M238,432.32c-8.39-36.29-14.36-68-18.06-95.86s-5.14-51.77-4.46-72.56c.88-27.33,5.42-49.18,13.26-67.11" transform="translate(-101.52 -128.37)"/>
	<path class="cls-2" d="M254.88,332.69c-5.7,28.86-10.17,61.87-13.4,99.7" transform="translate(-101.52 -128.37)"/>
	<path class="cls-2" d="M317,188.13c-15.56,17.12-28.87,38.75-39.95,66.47-8.78,22-16.16,47.71-22.16,78.08" transform="translate(-101.52 -128.37)"/>
	<path class="cls-2" d="M318.74,186.26c-.58.6-1.14,1.22-1.7,1.83" transform="translate(-101.52 -128.37)"/>
	<path class="cls-2" d="M392.53,139.53a216.55,216.55,0,0,0-32.81,14.79l-.07,0c-1.1.61-2.2,1.24-3.28,1.88a167.21,167.21,0,0,0-37.31,29.66" transform="translate(-101.52 -128.37)"/>
	<path class="cls-2" d="M351.55,270.41c-25.85,20.47-48.59,44.93-64.85,72.9" transform="translate(-101.52 -128.37)"/>
	<path class="cls-2" d="M426.19,225.32a357.77,357.77,0,0,0-74.63,45.08" transform="translate(-101.52 -128.37)"/>
	<path class="cls-2" d="M469.18,209.23a348.08,348.08,0,0,0-43,16.09" transform="translate(-101.52 -128.37)"/>
	<path class="cls-2" d="M482.9,205.46c-4.52,1.13-9.1,2.38-13.71,3.77h0" transform="translate(-101.52 -128.37)"/>
	<path class="cls-2" d="M469.42,306.31c-1.14.7-2.22,1.41-3.22,2.1" transform="translate(-101.52 -128.37)"/>
	<path class="cls-2" d="M495.63,296.37c-1.27.22-2.51.46-3.71.74a70.31,70.31,0,0,0-21.19,8.4" transform="translate(-101.52 -128.37)"/>
	<path class="cls-2" d="M466.47,282.16a104.78,104.78,0,0,0,29.16,14.21h0" transform="translate(-101.52 -128.37)"/>
	<path class="cls-2" d="M170.42,227.57a54.23,54.23,0,0,0,21.86-.95c24.41-6.15,34.95-26.71,36.48-29.83,0,0,0,0,0,0a64.32,64.32,0,0,0,33.45,13.53c28,2.54,48.19-15.38,54.77-22.15l0,0c.75-.77,1.32-1.4,1.7-1.83l.15-.17.17-.19A103,103,0,0,0,359.26,219c30.13,13.81,57.86,8.5,66.93,6.36h0a105,105,0,0,0,24.52,43.25" transform="translate(-101.52 -128.37)"/>
	<path class="cls-2" d="M146.6,273.62a137.53,137.53,0,0,1,17.29,27.73,108.58,108.58,0,0,1,9.87,36.85" transform="translate(-101.52 -128.37)"/>
	<path class="cls-2" d="M466.22,308.09c1.32-.69,2.39-1.3,3.2-1.78l.31-.19,1-.61" transform="translate(-101.52 -128.37)"/>
	<path class="cls-2" d="M135.46,319.31A32.9,32.9,0,0,0,150.91,315a34.51,34.51,0,0,0,13-13.61h0a48,48,0,0,0,26.34-4.78c19.24-9.73,24.47-29.45,25.27-32.67a45.73,45.73,0,0,0,25.8,8.16c20.91,0,33.85-15.15,35.75-17.46a63.59,63.59,0,0,0,30.63,19.51c21.38,6,39-1.45,43.87-3.7a0,0,0,0,0,0,0h0c2,4.28,13.78,28.51,41.61,40.86" transform="translate(-101.52 -128.37)"/>
	<path class="cls-2" d="M151.88,508.6a17.91,17.91,0,0,1,14.35-.62c5.84,2.48,8.44,8.1,9.24,10.06a18,18,0,0,1,11.19-.87c6.48,1.7,11.54,7.27,13.31,14.43" transform="translate(-101.52 -128.37)"/>
	<path class="cls-2" d="M177.68,578.41a21,21,0,0,1,12,0,21.46,21.46,0,0,1,12.1,9.84,24.06,24.06,0,0,1,2.88,16.27c.74-1.09,10.43-14.79,27.92-14.62,17.18.15,26.57,13.55,27.37,14.73a75.7,75.7,0,0,1,67.36-22,39.67,39.67,0,0,1,14-21.8c15-11.54,32.76-7.07,35-6.47a119,119,0,0,1,77.19-76.91q1.75-.56,3.36-1" transform="translate(-101.52 -128.37)"/>
	<path class="cls-2" d="M222.63,646.64a47.17,47.17,0,0,1,14.58-8.45c20.87-7.45,39.62,2.82,42.82,4.64a195.31,195.31,0,0,1,52.32-35.38c4.21-1.94,8.2-3.61,11.92-5a71.39,71.39,0,0,1,48.12-33.18c.61-.11,1.2-.22,1.78-.31" transform="translate(-101.52 -128.37)"/>
	<path class="cls-3" d="M232,675.92a22.86,22.86,0,0,1,12.86-.45,23.93,23.93,0,0,1,12.46,8.63c3.26-2.23,15.92-10.3,33-8.12,22.24,2.84,33.53,20.72,35,23.11.25-.8,4.61-14,18.13-17.49,11.47-3,20.48,3.46,21.67,4.35a46.06,46.06,0,0,1,44.25-40c.62-4,3.29-18.12,15.78-28.69a45.73,45.73,0,0,1,27.26-10.54" transform="translate(-101.52 -128.37)"/>
	<path class="cls-4" d="M241.48,432.39c4.06.63,7.08,3.11,7.08,6.08,0,3.44-4.08,6.24-9.11,6.24a11.16,11.16,0,0,1-6.95-2.21,5.24,5.24,0,0,1-2.16-4c0-3.12,3.33-5.69,7.68-6.15a11.2,11.2,0,0,1,1.43-.09A12.19,12.19,0,0,1,241.48,432.39Z" transform="translate(-101.52 -128.37)"/>
	<path d="M444.22,391c.38-.81.76-1.63,1.12-2.44A261.21,261.21,0,0,0,464.4,327a174.89,174.89,0,0,0,1.8-18.58c0-.11,0-.22,0-.32.41-8.33.44-17.21.25-25.93-.61-28.38-3.56-55-3.56-55,0,16.56-4.55,30.1-12.19,41.44-12.82,19.06-34.32,31.94-57.52,42.68-12.38,5.73-25.24,10.84-37.52,16-25,7.09-48.91,15.62-67.32,28.93a93.06,93.06,0,0,0-14.08,12.33c-13.28,14.31-21.39,33-21.41,58.49,0,25.66,14.17,44.57,34.65,54.52a83.6,83.6,0,0,0,39.25,7.89A100.27,100.27,0,0,0,387,466.11a199.68,199.68,0,0,0,19-17.89,208.79,208.79,0,0,0,20.4-25.7A229.44,229.44,0,0,0,444.22,391Z" transform="translate(-101.52 -128.37)"/>
	<path id="Lens" class="cls-4" d="M441.54,316.69c.18-.85.27-1.3.27-1.3-.36.49-.72,1-1.08,1.45-23,30.62-43.33,27.44-81,41.78-38.26,14.55-74,32.42-66.86,74.81,13.13,41.87,62.81,33.7,97-6.64C424.65,388.75,439.39,326.44,441.54,316.69Z" transform="translate(-101.52 -128.37)"/>
	<path d="M135.28,322.26c13.65,4.47,26.72,9.58,38.48,15.94a122,122,0,0,1,22,14.9c18.53,16,30.39,38.08,30.42,70.51,0,25.82-12.92,45.14-31.92,56-13.46,7.68-30,11.07-47.08,9.48" transform="translate(-101.52 -128.37)"/>
	<path id="Lens-2" data-name="Lens" class="cls-4" d="M137.62,359.31c32.34,14.53,61.95,34.49,55.93,72.07-7.34,24.68-28.43,32.56-51.58,27.27" transform="translate(-101.52 -128.37)"/>
	<path class="cls-5" d="M232.5,652.09c4.2,52.8-23.76,56.24-23.76,56.24l-11.87,5.44s-34.64,7.42-62.76,52.11C123.9,782.1,114.55,803.23,108,830.7c-24.51,103.15,258.64,56.43,352.85,32.68s105.7-42.89,125.62-55.91c-6.49-47.91-32.21-67.41-62.73-98.79-5.52-5.67-11.19-11.72-16.93-18.4-6.8-6.21-22.29-17.56-35.85-39.08-19.78-31.4-35.47-84.45-14.09-174.77.46-2,.94-3.95,1.44-5.95q2.32-9.3,5.18-19.13" transform="translate(-101.52 -128.37)"/>
	<path class="cls-5" d="M463.51,451.35v0c5.86-15.61,12.58-33.62,21.14-55l.72-1.79c9-32.8,15-66.75,15.61-98.89.38-20.45-1.44-40.16-6.1-58.37a146.51,146.51,0,0,0-12-31.8c-16.32-31.32-44.89-55.18-90.37-65.93a246.76,246.76,0,0,0-48.85-6.1c-17.51-.56-39.9,2.62-63.58,10.77q-6.63,2.28-13.37,5.09a216.36,216.36,0,0,0-96.31,78.28,223.92,223.92,0,0,0-23.82,46.05,253.45,253.45,0,0,0-10.15,33.68c-.42,4.35-.75,8.34-1,12-.07,1-.13,2-.18,2.95-1.07,19.34.42,29.19,2.34,37.05,1.66,6.8,3.66,12.1,4.61,20.75a292.68,292.68,0,0,0-.26,78.59c1.3,10.39,3.07,20.55,5.18,30.4q2.15,10,4.73,19.55a415.28,415.28,0,0,0,15.73,46.85c3.33,8.27,6.74,16,10.07,23,5.09,10.65,10,19.72,14.34,26.85,6.13,11.8,12.86,24.28,22,33.86a59,59,0,0,0,8.6,7.52,49.86,49.86,0,0,0,4.71,3c8.6,4.78,19,7.1,31.83,5.47a95.74,95.74,0,0,0,24.26-6.76c14-5.75,30.35-15.22,49.45-29.41q5.25-3.92,10.8-8.3c1.61-1.28,3.2-2.54,4.75-3.79L350,605.6c17.16-13.75,31-25.57,42.42-36.36.61-.56,1.2-1.13,1.79-1.69l1.84-1.78h0c31-30,43.3-52.5,57.5-88.32q1.56-3.93,3.15-8.08C458.86,463.72,461.11,457.74,463.51,451.35Z" transform="translate(-101.52 -128.37)"/>
-->
</g>
</svg>