<svg id="Layer_1" enable-background="new 0 0 512 512" height="512" viewBox="0 0 512 512" width="512" xmlns="http://www.w3.org/2000/svg">
<g>
<path stroke="black" stroke-width="2" fill="none" d="m500 500 c-80 -50, -120 -120, -90 -150, 40 -30, 120 10, 190 100, 140 170, 110 190, -100 50 m-400 0 c100 -200 200 -200 300 0 s100 300 0 500 v-100 -200 Q600 500 800 700z"/>
<path class="cls-2" d="M222.63,646.64a47.17,47.17,0,0,1,14.58-8.45c20.87-7.45,39.62,2.82,42.82,4.64a195.31,195.31,0,0,1,52.32-35.38c4.21-1.94,8.2-3.61,11.92-5a71.39,71.39,0,0,1,48.12-33.18c.61-.11,1.2-.22,1.78-.31" transform="translate(-101.52 -128.37)"/>
<path d="m496 263.958c-4.095 0-8.189-1.562-11.313-4.687l-198.989-198.987c-16.375-16.376-43.02-16.376-59.396 0l-198.988 198.988c-6.248 6.249-16.379 6.249-22.627 0-6.249-6.248-6.249-16.379 0-22.627l198.988-198.989c28.852-28.852 75.799-28.852 104.65 0l198.988 198.988c6.249 6.249 6.249 16.379 0 22.627-3.123 3.125-7.218 4.687-11.313 4.687z"/>
<path stroke="red" stroke-width=".2" fill="none" d="M 500 500 c-80 -50 -120 -120 -90 -150 40 -30 120 10 190 100 140 170 110 190 -100 50z"/>
<path d="m426 495.983h-340c-25.364 0-46-20.635-46-46v-242.02c0-8.836 7.163-16 16-16s16 7.164 16 16v242.02c0 7.72 6.28 14 14 14h340c7.72 0 14-6.28 14-14v-242.02c0-8.836 7.163-16 16-16s16 7.164 16 16v242.02c0 25.364-20.635 46-46 46z"/>
<path d="m496 263.958c-4.095 0-8.189-1.562-11.313-4.687l-198.989-198.987c-16.375-16.376-43.02-16.376-59.396 0l-198.988 198.988c-6.248 6.249-16.379 6.249-22.627 0-6.249-6.248-6.249-16.379 0-22.627l198.988-198.989c28.852-28.852 75.799-28.852 104.65 0l198.988 198.988c6.249 6.249 6.249 16.379 0 22.627-3.123 3.125-7.218 4.687-11.313 4.687z"/>
<path d="m320 495.983h-128c-8.837 0-16-7.164-16-16v-142c0-27.57 22.43-50 50-50h60c27.57 0 50 22.43 50 50v142c0 8.836-7.163 16-16 16zm-112-32h96v-126c0-9.925-8.075-18-18-18h-60c-9.925 0-18 8.075-18 18z"/>
</g>
</svg>