<svg viewBox="0 0 1000 1000" style="border: green solid">
	<path stroke="green" stroke-width=".5" d="M100 0 V1000"/>
	<path stroke="green" stroke-width=".5" d="M200 0 V1000"/>
	<path stroke="green" stroke-width=".5" d="M300 0 V1000"/>
	<path stroke="green" stroke-width=".5" d="M400 0 V1000"/>
	<path stroke="green" stroke-width=".5" d="M500 0 V1000"/>
	<path stroke="green" stroke-width=".5" d="M600 0 V1000"/>
	<path stroke="green" stroke-width=".5" d="M700 0 V1000"/>
	<path stroke="green" stroke-width=".5" d="M800 0 V1000"/>
	<path stroke="green" stroke-width=".5" d="M900 0 V1000"/>
	
	<path stroke="green" stroke-width=".5" d="M0 100 H1000"/>
	<path stroke="green" stroke-width=".5" d="M0 200 H1000"/>
	<path stroke="green" stroke-width=".5" d="M0 300 H1000"/>
	<path stroke="green" stroke-width=".5" d="M0 400 H1000"/>
	<path stroke="green" stroke-width=".5" d="M0 500 H1000"/>
	<path stroke="green" stroke-width=".5" d="M0 600 H1000"/>
	<path stroke="green" stroke-width=".5" d="M0 700 H1000"/>
	<path stroke="green" stroke-width=".5" d="M0 800 H1000"/>
	<path stroke="green" stroke-width=".5" d="M0 900 H1000"/>
	
	<path stroke="black" stroke-width="2" fill="none" d="m500 500 c-80 -50, -120 -120, -90 -150, 40 -30, 120 10, 190 100, 140 170, 110 190, -100 50 m-400 0 c100 -200 200 -200 300 0 s100 300 0 500 v-100 -200 Q600 500 800 700z"/>
	<path stroke="red" stroke-width="2" fill="none" d="M100 600 c0 -100 200 -100 200 0 0 100 200 100 200 0 m-300 0 c0 -50 100 -50 100 0"/>
	<path stroke="red" stroke-width="2" fill="none" d="M600,350 l 50,-25 a25,25 -30 0,1 50,-25 l 50,-25 a25,50 -30 0,1 50,-25 l 50,-25 a25,75 -30 0,1 50,-25 l 50,-25 a25,100 -30 0,1 50,-25 l 50,-25"/>

	<path stroke ="red" fill="none" stroke-width="2" d="m200 800 a600 400 0 0 1 600 -200"/>
	<path stroke ="red" fill="none" stroke-width="2" d="m200 800 a600 400 0 1 0 600 -200"/>
<path stroke="green" stroke-width="2" fill="none" d="m300 200 c200 200 400 200 600 0" transform="skewY(20)"/>
<path stroke="red" stroke-width="2" fill="none" d="m300 200 c200 200 400 200 600 0" transform="none"/>

<path stroke="red" stroke-width="2" fill="none" d="m300 310 c200 273 400 346 600 220" transform="none"/>        
</svg>			  
	<ellipse cx="722" cy="997" rx="600" ry="400"
  style="fill:none;stroke:purple;stroke-width:2" />
	
	<circle fill="blue" cx="420" cy="450" r="8"/>
	<circle fill="blue" cx="380" cy="380" r="8"/>
	<circle fill="blue" cx="410" cy="350" r="8"/>
	
	<circle fill="blue" cx="450" cy="320" r="8"/>
	<circle fill="blue" cx="530" cy="360" r="8"/>
	<circle fill="blue" cx="600" cy="450" r="8"/>			
</svg>
