<svg
	xmlns="http://www.w3.org/2000/svg"
	xmlns:xlink="http://www.w3.org/1999/xlink" viewBox="0 0 623 346" width="623" height="346">
	<path d="M 237.000,95.469 C 234.500,95.469 234.443,95.062 232.000,95.469" stroke-width="5.211" stroke="black" fill="none" stroke-linecap="round"></path>
	<path d="M 232.000,95.469 C 228.443,96.062 227.718,95.294 225.000,97.469" stroke-width="4.250" stroke="black" fill="none" stroke-linecap="round"></path>
	<path d="M 225.000,97.469 C 220.218,101.294 219.898,101.818 217.000,107.469" stroke-width="3.463" stroke="black" fill="none" stroke-linecap="round"></path>
	<path d="M 217.000,107.469 C 209.898,121.318 210.113,121.667 205.000,136.469" stroke-width="2.336" stroke="black" fill="none" stroke-linecap="round"></path>
	<path d="M 205.000,136.469 C 200.613,149.167 200.489,149.278 198.000,162.469" stroke-width="2.163" stroke="black" fill="none" stroke-linecap="round"></path>
	<path d="M 198.000,162.469 C 195.489,175.778 196.812,176.011 195.000,189.469" stroke-width="2.108" stroke="black" fill="none" stroke-linecap="round"></path>
	<path d="M 195.000,189.469 C 193.312,202.011 192.989,201.967 191.000,214.469" stroke-width="2.157" stroke="black" fill="none" stroke-linecap="round"></path>
	<path d="M 191.000,214.469 C 189.489,223.967 189.992,224.077 188.000,233.469" stroke-width="2.473" stroke="black" fill="none" stroke-linecap="round"></path>
	<path d="M 188.000,233.469 C 186.492,240.577 185.915,240.446 184.000,247.469" stroke-width="2.838" stroke="black" fill="none" stroke-linecap="round"></path>
	<path d="M 184.000,247.469 C 182.915,251.446 183.062,255.203 182.000,255.469" stroke-width="3.398" stroke="black" fill="none" stroke-linecap="round"></path>
	<path d="M 182.000,255.469 C 181.062,255.703 180.421,252.050 180.000,248.469" stroke-width="4.509" stroke="black" fill="none" stroke-linecap="round"></path>
	<path d="M 180.000,248.469 C 179.421,243.550 180.000,243.469 180.000,238.469" stroke-width="3.785" stroke="black" fill="none" stroke-linecap="round"></path>
	<path d="M 180.000,238.469 C 180.000,229.969 178.889,229.802 180.000,221.469" stroke-width="2.977" stroke="black" fill="none" stroke-linecap="round"></path>
	<path d="M 180.000,221.469 C 180.889,214.802 180.994,214.480 184.000,208.469" stroke-width="3.079" stroke="black" fill="none" stroke-linecap="round"></path>
	<path d="M 184.000,208.469 C 187.494,201.480 188.304,201.823 193.000,195.469" stroke-width="2.962" stroke="black" fill="none" stroke-linecap="round"></path>
	<path d="M 193.000,195.469 C 196.804,190.323 199.667,187.135 201.000,185.469" stroke-width="3.074" stroke="black" fill="none" stroke-linecap="round"></path>
	<path d="M 201.000,185.469 C 201.667,184.635 199.254,188.215 197.000,190.469" stroke-width="4.323" stroke="black" fill="none" stroke-linecap="round"></path>
	<path d="M 197.000,190.469 C 193.754,193.715 193.797,193.880 190.000,196.469" stroke-width="3.827" stroke="black" fill="none" stroke-linecap="round"></path>
	<path d="M 190.000,196.469 C 182.797,201.380 183.031,202.213 175.000,205.469" stroke-width="3.022" stroke="black" fill="none" stroke-linecap="round"></path>
	<path d="M 175.000,205.469 C 164.531,209.713 164.192,209.688 153.000,211.469" stroke-width="2.493" stroke="black" fill="none" stroke-linecap="round"></path>
	<path d="M 153.000,211.469 C 142.192,213.188 141.990,212.693 131.000,212.469" stroke-width="2.463" stroke="black" fill="none" stroke-linecap="round"></path>
	<path d="M 131.000,212.469 C 117.490,212.193 116.701,214.058 104.000,210.469" stroke-width="2.250" stroke="black" fill="none" stroke-linecap="round"></path>
	<path d="M 104.000,210.469 C 93.701,207.558 93.862,205.799 85.000,199.469" stroke-width="2.390" stroke="black" fill="none" stroke-linecap="round"></path>
	<path d="M 85.000,199.469 C 79.862,195.799 79.438,195.625 76.000,190.469" stroke-width="2.914" stroke="black" fill="none" stroke-linecap="round"></path>
	<path d="M 76.000,190.469 C 73.438,186.625 73.633,186.109 73.000,181.469" stroke-width="3.369" stroke="black" fill="none" stroke-linecap="round"></path>
	<path d="M 73.000,181.469 C 72.133,175.109 71.662,174.711 73.000,168.469" stroke-width="3.179" stroke="black" fill="none" stroke-linecap="round"></path>
	<path d="M 73.000,168.469 C 74.662,160.711 73.855,159.349 79.000,153.469" stroke-width="2.967" stroke="black" fill="none" stroke-linecap="round"></path>
	<path d="M 79.000,153.469 C 87.855,143.349 88.810,142.959 101.000,136.469" stroke-width="2.263" stroke="black" fill="none" stroke-linecap="round"></path>
	<path d="M 101.000,136.469 C 127.310,122.459 128.521,124.517 156.000,112.469" stroke-width="1.382" stroke="black" fill="none" stroke-linecap="round"></path>
	<path d="M 156.000,112.469 C 193.521,96.017 193.101,94.958 231.000,79.469" stroke-width="1.125" stroke="black" fill="none" stroke-linecap="round"></path>
	<path d="M 231.000,79.469 C 250.601,71.458 250.936,72.276 271.000,65.469" stroke-width="1.414" stroke="black" fill="none" stroke-linecap="round"></path>
	<path d="M 271.000,65.469 C 278.936,62.776 278.899,62.310 287.000,60.469" stroke-width="2.142" stroke="black" fill="none" stroke-linecap="round"></path>
	<path d="M 287.000,60.469 C 289.899,59.810 290.339,59.501 293.000,60.469" stroke-width="3.268" stroke="black" fill="none" stroke-linecap="round"></path>
	<path d="M 293.000,60.469 C 295.839,61.501 296.832,61.745 298.000,64.469" stroke-width="3.759" stroke="black" fill="none" stroke-linecap="round"></path>
	<path d="M 298.000,64.469 C 299.832,68.745 298.791,69.454 299.000,74.469" stroke-width="3.599" stroke="black" fill="none" stroke-linecap="round"></path>
	<path d="M 299.000,74.469 C 299.291,81.454 299.212,81.474 299.000,88.469" stroke-width="3.283" stroke="black" fill="none" stroke-linecap="round"></path>
	<path d="M 299.000,88.469 C 298.712,97.974 300.528,98.504 298.000,107.469" stroke-width="2.749" stroke="black" fill="none" stroke-linecap="round"></path>
	<path d="M 298.000,107.469 C 295.028,118.004 294.151,118.242 288.000,127.469" stroke-width="2.576" stroke="black" fill="none" stroke-linecap="round"></path>
	<path d="M 288.000,127.469 C 282.151,136.242 282.073,136.705 274.000,143.469" stroke-width="2.462" stroke="black" fill="none" stroke-linecap="round"></path>
	<path d="M 274.000,143.469 C 263.573,152.205 263.169,152.265 251.000,158.469" stroke-width="2.174" stroke="black" fill="none" stroke-linecap="round"></path>
	<path d="M 251.000,158.469 C 237.669,165.265 237.345,165.114 223.000,169.469" stroke-width="2.072" stroke="black" fill="none" stroke-linecap="round"></path>
	<path d="M 223.000,169.469 C 209.345,173.614 209.112,173.159 195.000,175.469" stroke-width="2.088" stroke="black" fill="none" stroke-linecap="round"></path>
	<path d="M 195.000,175.469 C 181.612,177.659 181.536,177.623 168.000,178.469" stroke-width="2.141" stroke="black" fill="none" stroke-linecap="round"></path>
	<path d="M 168.000,178.469 C 157.536,179.123 157.473,178.843 147.000,178.469" stroke-width="2.391" stroke="black" fill="none" stroke-linecap="round"></path>
	<path d="M 147.000,178.469 C 143.473,178.343 141.540,179.669 140.000,177.469" stroke-width="3.402" stroke="black" fill="none" stroke-linecap="round"></path>
	<path d="M 140.000,177.469 C 138.040,174.669 138.228,172.235 140.000,168.469" stroke-width="4.131" stroke="black" fill="none" stroke-linecap="round"></path>
	<path d="M 140.000,168.469 C 142.228,163.735 143.568,163.916 148.000,160.469" stroke-width="3.508" stroke="black" fill="none" stroke-linecap="round"></path>
	<path d="M 148.000,160.469 C 152.568,156.916 152.759,156.975 158.000,154.469" stroke-width="3.386" stroke="black" fill="none" stroke-linecap="round"></path>
	<path d="M 158.000,154.469 C 164.259,151.475 164.345,151.465 171.000,149.469" stroke-width="3.175" stroke="black" fill="none" stroke-linecap="round"></path>
	<path d="M 171.000,149.469 C 179.345,146.965 179.382,146.454 188.000,145.469" stroke-width="2.819" stroke="black" fill="none" stroke-linecap="round"></path>
	<path d="M 188.000,145.469 C 196.882,144.454 197.000,145.469 206.000,145.469" stroke-width="2.696" stroke="black" fill="none" stroke-linecap="round"></path>
	<path d="M 206.000,145.469 C 213.500,145.469 213.838,144.036 221.000,145.469" stroke-width="2.894" stroke="black" fill="none" stroke-linecap="round"></path>
	<path d="M 221.000,145.469 C 226.338,146.536 225.938,148.107 231.000,150.469" stroke-width="3.226" stroke="black" fill="none" stroke-linecap="round"></path>
	<path d="M 231.000,150.469 C 233.438,151.607 233.788,150.994 236.000,152.469" stroke-width="3.856" stroke="black" fill="none" stroke-linecap="round"></path>
	<path d="M 236.000,152.469 C 239.788,154.994 239.353,155.663 243.000,158.469" stroke-width="3.707" stroke="black" fill="none" stroke-linecap="round"></path>
	<path d="M 243.000,158.469 C 245.853,160.663 245.760,160.944 249.000,162.469" stroke-width="3.874" stroke="black" fill="none" stroke-linecap="round"></path>
	<path d="M 249.000,162.469 C 254.260,164.944 261.152,167.236 260.000,166.469" stroke-width="3.477" stroke="black" fill="none" stroke-linecap="round"></path>
	<path d="M 283.000,133.469 C 281.500,136.469 281.436,136.438 280.000,139.469" stroke-width="5.124" stroke="black" fill="none" stroke-linecap="round"></path>
	<path d="M 280.000,139.469 C 276.936,145.938 276.602,145.818 274.000,152.469" stroke-width="3.397" stroke="black" fill="none" stroke-linecap="round"></path>
	<path d="M 274.000,152.469 C 272.102,157.318 272.397,157.440 271.000,162.469" stroke-width="3.402" stroke="black" fill="none" stroke-linecap="round"></path>
	<path d="M 271.000,162.469 C 269.897,166.440 269.623,166.422 269.000,170.469" stroke-width="3.613" stroke="black" fill="none" stroke-linecap="round"></path>
	<path d="M 269.000,170.469 C 268.623,172.922 267.550,174.226 269.000,175.469" stroke-width="4.407" stroke="black" fill="none" stroke-linecap="round"></path>
	<path d="M 269.000,175.469 C 271.050,177.226 272.729,177.170 276.000,176.469" stroke-width="4.695" stroke="black" fill="none" stroke-linecap="round"></path>
	<path d="M 276.000,176.469 C 279.729,175.670 279.879,174.965 283.000,172.469" stroke-width="4.043" stroke="black" fill="none" stroke-linecap="round"></path>
	<path d="M 283.000,172.469 C 287.379,168.965 287.792,169.013 291.000,164.469" stroke-width="3.489" stroke="black" fill="none" stroke-linecap="round"></path>
	<path d="M 291.000,164.469 C 293.792,160.513 292.800,159.869 295.000,155.469" stroke-width="3.539" stroke="black" fill="none" stroke-linecap="round"></path>
	<path d="M 295.000,155.469 C 297.300,150.869 298.102,151.214 300.000,146.469" stroke-width="3.567" stroke="black" fill="none" stroke-linecap="round"></path>
	<path d="M 300.000,146.469 C 302.102,141.214 303.000,137.454 303.000,135.469" stroke-width="3.480" stroke="black" fill="none" stroke-linecap="round"></path>
	<path d="M 303.000,135.469 C 303.000,134.454 301.302,137.866 300.000,140.469" stroke-width="4.622" stroke="black" fill="none" stroke-linecap="round"></path>
	<path d="M 300.000,140.469 C 297.802,144.866 297.874,144.917 296.000,149.469" stroke-width="3.760" stroke="black" fill="none" stroke-linecap="round"></path>
	<path d="M 296.000,149.469 C 294.374,153.417 293.881,153.357 293.000,157.469" stroke-width="3.748" stroke="black" fill="none" stroke-linecap="round"></path>
	<path d="M 293.000,157.469 C 292.381,160.357 293.000,160.469 293.000,163.469" stroke-width="4.026" stroke="black" fill="none" stroke-linecap="round"></path>
	<path d="M 293.000,163.469 C 293.000,166.469 293.000,170.469 293.000,169.469" stroke-width="4.513" stroke="black" fill="none" stroke-linecap="round"></path>
	<path d="M 349.000,138.469 C 346.000,136.969 346.151,136.328 343.000,135.469" stroke-width="5.276" stroke="black" fill="none" stroke-linecap="round"></path>
	<path d="M 343.000,135.469 C 340.651,134.828 340.500,135.469 338.000,135.469" stroke-width="4.541" stroke="black" fill="none" stroke-linecap="round"></path>
	<path d="M 338.000,135.469 C 335.500,135.469 335.428,135.027 333.000,135.469" stroke-width="4.403" stroke="black" fill="none" stroke-linecap="round"></path>
	<path d="M 333.000,135.469 C 329.928,136.027 329.639,135.885 327.000,137.469" stroke-width="4.186" stroke="black" fill="none" stroke-linecap="round"></path>
	<path d="M 327.000,137.469 C 324.639,138.885 324.785,139.287 323.000,141.469" stroke-width="4.210" stroke="black" fill="none" stroke-linecap="round"></path>
	<path d="M 323.000,141.469 C 320.285,144.787 319.998,144.694 318.000,148.469" stroke-width="3.808" stroke="black" fill="none" stroke-linecap="round"></path>
	<path d="M 318.000,148.469 C 315.498,153.194 315.430,153.322 314.000,158.469" stroke-width="3.545" stroke="black" fill="none" stroke-linecap="round"></path>
	<path d="M 314.000,158.469 C 312.930,162.322 313.841,162.546 313.000,166.469" stroke-width="3.730" stroke="black" fill="none" stroke-linecap="round"></path>
	<path d="M 313.000,166.469 C 312.341,169.546 311.513,169.390 311.000,172.469" stroke-width="3.936" stroke="black" fill="none" stroke-linecap="round"></path>
	<path d="M 311.000,172.469 C 310.513,175.390 309.584,176.344 311.000,178.469" stroke-width="4.492" stroke="black" fill="none" stroke-linecap="round"></path>
	<path d="M 311.000,178.469 C 312.584,180.844 313.849,180.609 317.000,181.469" stroke-width="4.934" stroke="black" fill="none" stroke-linecap="round"></path>
	<path d="M 317.000,181.469 C 319.349,182.109 319.958,182.775 322.000,181.469" stroke-width="4.549" stroke="black" fill="none" stroke-linecap="round"></path>
	<path d="M 322.000,181.469 C 332.458,174.775 332.650,174.099 342.000,165.469" stroke-width="3.040" stroke="black" fill="none" stroke-linecap="round"></path>
	<path d="M 342.000,165.469 C 345.650,162.099 345.573,161.783 348.000,157.469" stroke-width="3.375" stroke="black" fill="none" stroke-linecap="round"></path>
	<path d="M 348.000,157.469 C 350.073,153.783 350.054,153.569 351.000,149.469" stroke-width="3.625" stroke="black" fill="none" stroke-linecap="round"></path>
	<path d="M 351.000,149.469 C 351.554,147.069 351.518,143.778 351.000,144.469" stroke-width="4.063" stroke="black" fill="none" stroke-linecap="round"></path>
	<path d="M 351.000,144.469 C 350.018,145.778 349.500,148.969 348.000,153.469" stroke-width="4.850" stroke="black" fill="none" stroke-linecap="round"></path>
	<path d="M 348.000,153.469 C 346.500,157.969 346.048,157.859 345.000,162.469" stroke-width="3.845" stroke="black" fill="none" stroke-linecap="round"></path>
	<path d="M 345.000,162.469 C 343.548,168.859 343.687,168.945 343.000,175.469" stroke-width="3.281" stroke="black" fill="none" stroke-linecap="round"></path>
	<path d="M 343.000,175.469 C 342.687,178.445 341.105,181.311 343.000,181.469" stroke-width="3.849" stroke="black" fill="none" stroke-linecap="round"></path>
	<path d="M 343.000,181.469 C 347.105,181.811 350.257,180.463 355.000,176.469" stroke-width="4.572" stroke="black" fill="none" stroke-linecap="round"></path>
	<path d="M 355.000,176.469 C 359.757,172.463 358.439,170.929 362.000,165.469" stroke-width="3.503" stroke="black" fill="none" stroke-linecap="round"></path>
	<path d="M 362.000,165.469 C 365.939,159.429 366.338,159.665 370.000,153.469" stroke-width="3.168" stroke="black" fill="none" stroke-linecap="round"></path>
	<path d="M 370.000,153.469 C 372.838,148.665 373.057,148.650 375.000,143.469" stroke-width="3.267" stroke="black" fill="none" stroke-linecap="round"></path>
	<path d="M 375.000,143.469 C 376.057,140.650 375.500,140.469 376.000,137.469" stroke-width="3.834" stroke="black" fill="none" stroke-linecap="round"></path>
	<path d="M 376.000,137.469 C 376.500,134.469 377.265,131.734 377.000,131.469" stroke-width="4.045" stroke="black" fill="none" stroke-linecap="round"></path>
	<path d="M 377.000,131.469 C 376.765,131.234 376.000,133.969 375.000,136.469" stroke-width="4.886" stroke="black" fill="none" stroke-linecap="round"></path>
	<path d="M 375.000,136.469 C 372.000,143.969 372.000,143.969 369.000,151.469" stroke-width="4.053" stroke="black" fill="none" stroke-linecap="round"></path>
	<path d="M 369.000,151.469 C 367.000,156.469 366.840,156.410 365.000,161.469" stroke-width="3.664" stroke="black" fill="none" stroke-linecap="round"></path>
	<path d="M 365.000,161.469 C 362.840,167.410 362.735,167.395 361.000,173.469" stroke-width="3.282" stroke="black" fill="none" stroke-linecap="round"></path>
	<path d="M 361.000,173.469 C 359.735,177.895 360.186,178.020 359.000,182.469" stroke-width="3.421" stroke="black" fill="none" stroke-linecap="round"></path>
	<path d="M 359.000,182.469 C 358.186,185.520 356.800,189.069 357.000,188.469" stroke-width="3.869" stroke="black" fill="none" stroke-linecap="round"></path>
	<path d="M 357.000,188.469 C 357.300,187.569 358.379,183.925 360.000,179.469" stroke-width="4.703" stroke="black" fill="none" stroke-linecap="round"></path>
	<path d="M 360.000,179.469 C 362.379,172.925 362.454,172.951 365.000,166.469" stroke-width="3.446" stroke="black" fill="none" stroke-linecap="round"></path>
	<path d="M 365.000,166.469 C 367.954,158.951 367.641,158.798 371.000,151.469" stroke-width="3.032" stroke="black" fill="none" stroke-linecap="round"></path>
	<path d="M 371.000,151.469 C 373.141,146.798 373.276,146.827 376.000,142.469" stroke-width="3.347" stroke="black" fill="none" stroke-linecap="round"></path>
	<path d="M 376.000,142.469 C 378.276,138.827 378.000,138.469 381.000,135.469" stroke-width="3.559" stroke="black" fill="none" stroke-linecap="round"></path>
	<path d="M 381.000,135.469 C 384.000,132.469 384.522,131.101 388.000,130.469" stroke-width="4.146" stroke="black" fill="none" stroke-linecap="round"></path>
	<path d="M 388.000,130.469 C 390.022,130.101 390.792,131.398 392.000,133.469" stroke-width="4.637" stroke="black" fill="none" stroke-linecap="round"></path>
	<path d="M 392.000,133.469 C 394.292,137.398 394.186,137.857 395.000,142.469" stroke-width="4.446" stroke="black" fill="none" stroke-linecap="round"></path>
	<path d="M 395.000,142.469 C 395.686,146.357 395.000,146.469 395.000,150.469" stroke-width="3.935" stroke="black" fill="none" stroke-linecap="round"></path>
	<path d="M 395.000,150.469 C 395.000,156.469 395.000,156.469 395.000,162.469" stroke-width="3.401" stroke="black" fill="none" stroke-linecap="round"></path>
	<path d="M 395.000,162.469 C 395.000,166.469 395.000,166.469 395.000,170.469" stroke-width="3.687" stroke="black" fill="none" stroke-linecap="round"></path>
	<path d="M 395.000,170.469 C 395.000,174.469 392.337,176.971 395.000,178.469" stroke-width="3.731" stroke="black" fill="none" stroke-linecap="round"></path>
	<path d="M 441.000,138.469 C 436.500,137.469 435.962,135.620 432.000,136.469" stroke-width="5.264" stroke="black" fill="none" stroke-linecap="round"></path>
	<path d="M 432.000,136.469 C 428.962,137.120 429.500,138.969 427.000,141.469" stroke-width="4.288" stroke="black" fill="none" stroke-linecap="round"></path>
	<path d="M 427.000,141.469 C 424.000,144.469 423.269,143.962 421.000,147.469" stroke-width="3.898" stroke="black" fill="none" stroke-linecap="round"></path>
	<path d="M 421.000,147.469 C 417.769,152.462 417.985,152.797 416.000,158.469" stroke-width="3.385" stroke="black" fill="none" stroke-linecap="round"></path>
	<path d="M 416.000,158.469 C 414.485,162.797 414.849,162.941 414.000,167.469" stroke-width="3.512" stroke="black" fill="none" stroke-linecap="round"></path>
	<path d="M 414.000,167.469 C 413.349,170.941 413.293,170.954 413.000,174.469" stroke-width="3.775" stroke="black" fill="none" stroke-linecap="round"></path>
	<path d="M 413.000,174.469 C 412.793,176.954 411.550,178.640 413.000,179.469" stroke-width="4.477" stroke="black" fill="none" stroke-linecap="round"></path>
	<path d="M 413.000,179.469 C 415.050,180.640 416.594,179.320 420.000,178.469" stroke-width="4.814" stroke="black" fill="none" stroke-linecap="round"></path>
	<path d="M 420.000,178.469 C 422.594,177.820 422.943,178.140 425.000,176.469" stroke-width="4.421" stroke="black" fill="none" stroke-linecap="round"></path>
	<path d="M 425.000,176.469 C 430.943,171.640 431.186,171.486 436.000,165.469" stroke-width="3.192" stroke="black" fill="none" stroke-linecap="round"></path>
	<path d="M 436.000,165.469 C 439.186,161.486 438.918,161.153 441.000,156.469" stroke-width="3.404" stroke="black" fill="none" stroke-linecap="round"></path>
	<path d="M 441.000,156.469 C 442.918,152.153 443.018,152.053 444.000,147.469" stroke-width="3.546" stroke="black" fill="none" stroke-linecap="round"></path>
	<path d="M 444.000,147.469 C 444.518,145.053 444.000,144.969 444.000,142.469" stroke-width="4.071" stroke="black" fill="none" stroke-linecap="round"></path>
	<path d="M 444.000,142.469 C 444.000,139.969 444.000,137.469 444.000,137.469" stroke-width="4.608" stroke="black" fill="none" stroke-linecap="round"></path>
	<path d="M 444.000,137.469 C 444.000,137.469 444.692,140.161 444.000,142.469" stroke-width="4.951" stroke="black" fill="none" stroke-linecap="round"></path>
	<path d="M 444.000,142.469 C 443.192,145.161 442.405,144.915 441.000,147.469" stroke-width="4.391" stroke="black" fill="none" stroke-linecap="round"></path>
	<path d="M 441.000,147.469 C 436.905,154.915 436.977,154.957 433.000,162.469" stroke-width="3.153" stroke="black" fill="none" stroke-linecap="round"></path>
	<path d="M 433.000,162.469 C 427.977,171.957 427.278,171.654 423.000,181.469" stroke-width="2.654" stroke="black" fill="none" stroke-linecap="round"></path>
	<path d="M 423.000,181.469 C 418.778,191.154 419.131,191.354 416.000,201.469" stroke-width="2.486" stroke="black" fill="none" stroke-linecap="round"></path>
	<path d="M 416.000,201.469 C 412.631,212.354 412.725,212.399 410.000,223.469" stroke-width="2.427" stroke="black" fill="none" stroke-linecap="round"></path>
	<path d="M 410.000,223.469 C 404.725,244.899 404.153,244.872 400.000,266.469" stroke-width="1.913" stroke="black" fill="none" stroke-linecap="round"></path>
	<path d="M 400.000,266.469 C 399.153,270.872 400.000,274.906 400.000,275.469" stroke-width="2.847" stroke="black" fill="none" stroke-linecap="round"></path>
	<path d="M 400.000,275.469 C 400.000,275.906 400.000,271.969 400.000,268.469" stroke-width="4.177" stroke="black" fill="none" stroke-linecap="round"></path>
	<path d="M 400.000,268.469 C 400.000,265.469 400.000,265.469 400.000,262.469" stroke-width="4.206" stroke="black" fill="none" stroke-linecap="round"></path>
	<path d="M 400.000,262.469 C 400.000,259.469 400.000,259.469 400.000,256.469" stroke-width="4.172" stroke="black" fill="none" stroke-linecap="round"></path>
	<path d="M 400.000,256.469 C 400.000,252.969 400.000,252.969 400.000,249.469" stroke-width="4.685" stroke="black" fill="none" stroke-linecap="round"></path>
	<path d="M 400.000,249.469 C 400.000,246.969 401.250,245.719 400.000,244.469" stroke-width="4.989" stroke="black" fill="none" stroke-linecap="round"></path>
	<path d="M 400.000,244.469 C 398.750,243.219 397.500,244.469 395.000,244.469" stroke-width="5.381" stroke="black" fill="none" stroke-linecap="round"></path>
	<path d="M 395.000,244.469 C 386.000,244.469 385.981,244.031 377.000,244.469" stroke-width="3.283" stroke="black" fill="none" stroke-linecap="round"></path>
	<path d="M 377.000,244.469 C 365.481,245.031 365.276,244.258 354.000,246.469" stroke-width="2.598" stroke="black" fill="none" stroke-linecap="round"></path>
	<path d="M 354.000,246.469 C 339.776,249.258 339.913,250.188 326.000,254.469" stroke-width="2.144" stroke="black" fill="none" stroke-linecap="round"></path>
	<path d="M 326.000,254.469 C 313.913,258.188 313.974,258.392 302.000,262.469" stroke-width="2.224" stroke="black" fill="none" stroke-linecap="round"></path>
	<path d="M 302.000,262.469 C 290.474,266.392 290.335,266.061 279.000,270.469" stroke-width="2.229" stroke="black" fill="none" stroke-linecap="round"></path>
	<path d="M 279.000,270.469 C 272.335,273.061 272.398,273.270 266.000,276.469" stroke-width="2.748" stroke="black" fill="none" stroke-linecap="round"></path>
	<path d="M 266.000,276.469 C 262.398,278.270 258.527,279.524 259.000,280.469" stroke-width="3.417" stroke="black" fill="none" stroke-linecap="round"></path>
	<path d="M 259.000,280.469 C 259.527,281.524 264.571,282.315 268.000,280.469" stroke-width="4.503" stroke="black" fill="none" stroke-linecap="round"></path>
	<path d="M 268.000,280.469 C 271.071,278.815 271.381,277.336 272.000,273.469" stroke-width="4.904" stroke="black" fill="none" stroke-linecap="round"></path>
	<path d="M 272.000,273.469 C 273.381,264.836 272.000,264.469 272.000,255.469" stroke-width="3.151" stroke="black" fill="none" stroke-linecap="round"></path>
	<path d="M 272.000,255.469 C 272.000,249.469 272.000,249.469 272.000,243.469" stroke-width="3.252" stroke="black" fill="none" stroke-linecap="round"></path>
	<path d="M 272.000,243.469 C 272.000,237.469 271.407,237.396 272.000,231.469" stroke-width="3.284" stroke="black" fill="none" stroke-linecap="round"></path>
	<path d="M 272.000,231.469 C 272.407,227.396 272.400,227.203 274.000,223.469" stroke-width="3.572" stroke="black" fill="none" stroke-linecap="round"></path>
	<path d="M 274.000,223.469 C 275.400,220.203 275.512,219.957 278.000,217.469" stroke-width="3.872" stroke="black" fill="none" stroke-linecap="round"></path>
	<path d="M 278.000,217.469 C 280.012,215.457 280.308,215.276 283.000,214.469" stroke-width="4.044" stroke="black" fill="none" stroke-linecap="round"></path>
	<path d="M 283.000,214.469 C 285.308,213.776 285.750,213.719 288.000,214.469" stroke-width="4.586" stroke="black" fill="none" stroke-linecap="round"></path>
	<path d="M 288.000,214.469 C 290.250,215.219 292.863,217.469 292.000,217.469" stroke-width="4.859" stroke="black" fill="none" stroke-linecap="round"></path>
	<path d="M 441.000,136.469 C 443.500,133.469 443.140,133.068 446.000,130.469" stroke-width="5.316" stroke="black" fill="none" stroke-linecap="round"></path>
	<path d="M 446.000,130.469 C 448.640,128.068 448.761,128.028 452.000,126.469" stroke-width="4.280" stroke="black" fill="none" stroke-linecap="round"></path>
	<path d="M 452.000,126.469 C 462.261,121.528 462.433,121.804 473.000,117.469" stroke-width="2.686" stroke="black" fill="none" stroke-linecap="round"></path>
	<path d="M 473.000,117.469 C 481.933,113.804 482.059,114.111 491.000,110.469" stroke-width="2.649" stroke="black" fill="none" stroke-linecap="round"></path>
	<path d="M 491.000,110.469 C 495.559,108.611 501.683,107.815 500.000,106.469" stroke-width="3.182" stroke="black" fill="none" stroke-linecap="round"></path>
	<path d="M 500.000,106.469 C 496.683,103.815 490.519,104.373 481.000,102.469" stroke-width="4.072" stroke="black" fill="none" stroke-linecap="round"></path>
	<path d="M 481.000,102.469 C 470.519,100.373 470.591,99.502 460.000,98.469" stroke-width="2.820" stroke="black" fill="none" stroke-linecap="round"></path>
	<path d="M 460.000,98.469 C 450.091,97.502 450.000,98.469 440.000,98.469" stroke-width="2.651" stroke="black" fill="none" stroke-linecap="round"></path>
	<path d="M 440.000,98.469 C 434.500,98.469 434.500,98.469 429.000,98.469" stroke-width="3.094" stroke="black" fill="none" stroke-linecap="round"></path>
	<path d="M 429.000,98.469 C 425.500,98.469 421.768,98.701 422.000,98.469" stroke-width="3.742" stroke="black" fill="none" stroke-linecap="round"></path>
	<path d="M 422.000,98.469 C 422.268,98.201 426.537,99.426 430.000,97.469" stroke-width="4.652" stroke="black" fill="none" stroke-linecap="round"></path>
	<path d="M 430.000,97.469 C 449.537,86.426 449.350,85.457 468.000,72.469" stroke-width="1.916" stroke="black" fill="none" stroke-linecap="round"></path>
	<path d="M 468.000,72.469 C 477.350,65.957 477.683,66.169 486.000,58.469" stroke-width="2.232" stroke="black" fill="none" stroke-linecap="round"></path>
	<path d="M 486.000,58.469 C 491.183,53.669 491.541,53.522 495.000,47.469" stroke-width="2.756" stroke="black" fill="none" stroke-linecap="round"></path>
	<path d="M 495.000,47.469 C 497.541,43.022 497.151,42.564 498.000,37.469" stroke-width="3.180" stroke="black" fill="none" stroke-linecap="round"></path>
	<path d="M 498.000,37.469 C 498.651,33.564 498.725,33.337 498.000,29.469" stroke-width="3.605" stroke="black" fill="none" stroke-linecap="round"></path>
	<path d="M 498.000,29.469 C 497.225,25.337 497.440,24.723 495.000,21.469" stroke-width="3.701" stroke="black" fill="none" stroke-linecap="round"></path>
	<path d="M 495.000,21.469 C 492.940,18.723 492.266,18.939 489.000,17.469" stroke-width="3.823" stroke="black" fill="none" stroke-linecap="round"></path>
	<path d="M 489.000,17.469 C 482.266,14.439 482.247,14.002 475.000,12.469" stroke-width="3.208" stroke="black" fill="none" stroke-linecap="round"></path>
	<path d="M 475.000,12.469 C 456.247,8.502 456.105,8.130 437.000,6.469" stroke-width="2.187" stroke="black" fill="none" stroke-linecap="round"></path>
	<path d="M 437.000,6.469 C 421.605,5.130 421.500,6.469 406.000,6.469" stroke-width="2.152" stroke="black" fill="none" stroke-linecap="round"></path>
	<path d="M 406.000,6.469 C 387.000,6.469 387.000,6.469 368.000,6.469" stroke-width="1.899" stroke="black" fill="none" stroke-linecap="round"></path>
	<path d="M 368.000,6.469 C 350.000,6.469 349.571,3.918 332.000,6.469" stroke-width="1.778" stroke="black" fill="none" stroke-linecap="round"></path>
	<path d="M 332.000,6.469 C 318.571,8.418 317.882,8.988 306.000,15.469" stroke-width="2.022" stroke="black" fill="none" stroke-linecap="round"></path>
	<path d="M 306.000,15.469 C 295.882,20.988 295.534,21.776 288.000,30.469" stroke-width="2.251" stroke="black" fill="none" stroke-linecap="round"></path>
	<path d="M 288.000,30.469 C 282.534,36.776 282.986,37.598 280.000,45.469" stroke-width="2.564" stroke="black" fill="none" stroke-linecap="round"></path>
	<path d="M 280.000,45.469 C 277.486,52.098 277.883,52.403 277.000,59.469" stroke-width="2.835" stroke="black" fill="none" stroke-linecap="round"></path>
	<path d="M 277.000,59.469 C 276.383,64.403 275.768,64.788 277.000,69.469" stroke-width="3.295" stroke="black" fill="none" stroke-linecap="round"></path>
	<path d="M 277.000,69.469 C 278.268,74.288 278.470,74.939 282.000,78.469" stroke-width="3.438" stroke="black" fill="none" stroke-linecap="round"></path>
	<path d="M 282.000,78.469 C 286.470,82.939 286.870,83.717 293.000,85.469" stroke-width="3.256" stroke="black" fill="none" stroke-linecap="round"></path>
	<path d="M 293.000,85.469 C 304.370,88.717 304.959,87.629 317.000,88.469" stroke-width="2.540" stroke="black" fill="none" stroke-linecap="round"></path>
	<path d="M 317.000,88.469 C 326.459,89.129 326.545,89.060 336.000,88.469" stroke-width="2.620" stroke="black" fill="none" stroke-linecap="round"></path>
	<path d="M 336.000,88.469 C 342.545,88.060 351.764,86.469 349.000,86.469" stroke-width="2.931" stroke="black" fill="none" stroke-linecap="round"></path>
</svg>