<svg id="Layer_1" data-name="Layer 1" xmlns="http://www.w3.org/2000/svg" viewBox="0 0 1085.19 852.39"><defs><style>.cls-1{fill:#fff;}.cls-2{fill:#f6f3e4;}</style></defs><title>shark</title><rect class="cls-1" width="1085.19" height="852.39"/><rect y="811.56" width="1085.19" height="40.84"/><path class="cls-2" d="M337.71,819.72h4.22a12.59,12.59,0,0,1,8.19,2.62,9,9,0,0,1,3.24,7.46c0,3.33-1.07,5.89-3.22,7.65a12.57,12.57,0,0,1-8.29,2.65h-4.14Zm2.54,18h.9a17.27,17.27,0,0,0,3.73-.39,8.31,8.31,0,0,0,3.06-1.32,6.89,6.89,0,0,0,2.1-2.43,8,8,0,0,0,.78-3.72,8.37,8.37,0,0,0-.77-3.74,5.76,5.76,0,0,0-2.15-2.42,9.94,9.94,0,0,0-3-1.3,15.69,15.69,0,0,0-3.71-.4h-.9Z" transform="translate(0 0)"/><path class="cls-2" d="M357.09,834.18a4.78,4.78,0,0,0,1.08,3,3.41,3.41,0,0,0,2.73,1.24,3.65,3.65,0,0,0,2.18-.61,6.28,6.28,0,0,0,1.61-1.85l2.05,1.16a6.58,6.58,0,0,1-2.45,2.54,6.49,6.49,0,0,1-3.41.92,5.79,5.79,0,0,1-4.54-1.89,7,7,0,0,1-1.68-4.76,7.45,7.45,0,0,1,1.59-4.91,5.61,5.61,0,0,1,4.57-1.9,5.29,5.29,0,0,1,4.41,1.9,7.52,7.52,0,0,1,1.51,4.83v.38Zm7.22-1.84a3.89,3.89,0,0,0-1.12-2.31,3.37,3.37,0,0,0-2.37-.85,3.72,3.72,0,0,0-1.31.23,3.41,3.41,0,0,0-1.08.66,3.77,3.77,0,0,0-.79,1,4.39,4.39,0,0,0-.42,1.25Z" transform="translate(0 0)"/><path class="cls-2" d="M373.9,830.34a1.74,1.74,0,0,0-1.62-1.11,1.36,1.36,0,0,0-.92.37,1.2,1.2,0,0,0-.09,1.7,3,3,0,0,0,.85.64l.54.25c.12.07.33.16.62.29a2.24,2.24,0,0,0,.38.16,1.1,1.1,0,0,1,.24.11,7.07,7.07,0,0,1,2.14,1.43,3,3,0,0,1,.78,2.16,3.93,3.93,0,0,1-1.3,3,4.32,4.32,0,0,1-3,1.19,4.89,4.89,0,0,1-2.66-.77,4.37,4.37,0,0,1-1-.89,3.78,3.78,0,0,1-.69-1.18l2.08-.94a2.63,2.63,0,0,0,2.3,1.62,1.87,1.87,0,0,0,1-.31,1.91,1.91,0,0,0,.72-.78,1.51,1.51,0,0,0,.09-1,1.86,1.86,0,0,0-.84-1l-2.37-1.27a11,11,0,0,1-1.08-.65,3.66,3.66,0,0,1-.76-.69,2.58,2.58,0,0,1-.45-.81,3.64,3.64,0,0,1-.14-1,3.5,3.5,0,0,1,1.08-2.6,3.79,3.79,0,0,1,6.1,1.14Z" transform="translate(0 0)"/><path class="cls-2" d="M382.63,821.67a1.68,1.68,0,0,1-3.35,0,1.63,1.63,0,0,1,.49-1.2,1.65,1.65,0,0,1,2.37,0A1.63,1.63,0,0,1,382.63,821.67Zm-.46,18.43h-2.43V827.45h2.43Z" transform="translate(0 0)"/><path class="cls-2" d="M397.9,839.86a9.74,9.74,0,0,1-1.35,5.54c-.9,1.29-2.51,1.94-4.81,1.94a6.25,6.25,0,0,1-4.38-1.54,5.58,5.58,0,0,1-1.73-4.19h2.43a3.37,3.37,0,0,0,1,2.64,4,4,0,0,0,2.75.93A3.13,3.13,0,0,0,394.7,844a6.43,6.43,0,0,0,.77-3.43v-2.4h-.06a5.39,5.39,0,0,1-1.88,1.77,4.82,4.82,0,0,1-2.41.63,5.43,5.43,0,0,1-4.44-2,7.42,7.42,0,0,1-1.62-4.86,6.94,6.94,0,0,1,1.65-4.66,5.35,5.35,0,0,1,4.3-2,5,5,0,0,1,4.4,2.54h.06v-2.16h2.43Zm-6.41-1.49a3.7,3.7,0,0,0,3-1.32,5.07,5.07,0,0,0,1.1-3.27,4.87,4.87,0,0,0-1.1-3.22,3.7,3.7,0,0,0-3-1.33,3.65,3.65,0,0,0-2.92,1.35,5,5,0,0,0-1.08,3.2,5,5,0,0,0,1.08,3.24A3.62,3.62,0,0,0,391.49,838.37Z" transform="translate(0 0)"/><path class="cls-2" d="M403.49,829.15h.06a3.74,3.74,0,0,1,1.56-1.54,4.79,4.79,0,0,1,2.25-.54,5.22,5.22,0,0,1,2.1.38,3.45,3.45,0,0,1,1.4,1.08,4.43,4.43,0,0,1,.75,1.72,10.68,10.68,0,0,1,.23,2.31v7.54h-2.43v-7.24a5.3,5.3,0,0,0-.54-2.73,2.41,2.41,0,0,0-2.24-.9,4,4,0,0,0-1.06.13,2.59,2.59,0,0,0-.75.35,2.1,2.1,0,0,0-.54.53,6.42,6.42,0,0,0-.41.64,4.23,4.23,0,0,0-.15.49l-.12.61c0,.21-.06.41-.08.62s0,.37,0,.5v7h-2.43V827.45h2.43Z" transform="translate(0 0)"/><path class="cls-2" d="M422.82,816.64h2.43v12.92h.06a5.08,5.08,0,0,1,4.4-2.49,5.35,5.35,0,0,1,4.3,2,6.93,6.93,0,0,1,1.64,4.66,7.42,7.42,0,0,1-1.62,4.86,5.4,5.4,0,0,1-4.43,2,4.88,4.88,0,0,1-2.42-.63,5.45,5.45,0,0,1-1.87-1.77h-.06v2h-2.43Zm6.29,21.73a3.65,3.65,0,0,0,3-1.32,5,5,0,0,0,1.11-3.27,4.78,4.78,0,0,0-1.11-3.22,3.94,3.94,0,0,0-5.92,0,5,5,0,0,0-1.08,3.2,5,5,0,0,0,1.08,3.24A3.62,3.62,0,0,0,429.11,838.37Z" transform="translate(0 0)"/><path class="cls-2" d="M436,827.45h2.83l4.27,8,4-8h2.73l-10.25,19.89h-2.75l5-9.4Z" transform="translate(0 0)"/><path class="cls-2" d="M462.09,835l-2.33,5.11H457l9.73-21.24,9.73,21.24h-2.73L471.44,835Zm4.67-10.57-3.62,8.25h7.24Z" transform="translate(0 0)"/><path class="cls-2" d="M480.46,840.1H478V816.64h2.43Z" transform="translate(0 0)"/><path class="cls-2" d="M486.46,840.1H484V816.64h2.43Z" transform="translate(0 0)"/><path class="cls-2" d="M495.7,830.42v2h-5.91v-2Z" transform="translate(0 0)"/><path class="cls-2" d="M505.16,819.1a4.65,4.65,0,0,0-1.62-.51,1.26,1.26,0,0,0-1.13.5,3,3,0,0,0-.49,1.23c-.05.36-.08.64-.09.85s0,.49,0,.85v5.43h3.35v2.27h-3.35V840.1h-2.43V829.72h-1.11v-2.27h1.11v-6.16c0-3.32,1.36-5,4.08-5a4.67,4.67,0,0,1,1.7.32Z" transform="translate(0 0)"/><path class="cls-2" d="M508.92,829.5H509a4.07,4.07,0,0,1,1.35-1.78,3.52,3.52,0,0,1,2.11-.65,3.77,3.77,0,0,1,2,.62l-1.11,2.22a2.18,2.18,0,0,0-1.48-.51,2.42,2.42,0,0,0-2.49,1.51,6.07,6.07,0,0,0-.36,1.39,10.68,10.68,0,0,0-.1,1.58v6.22h-2.43V827.45h2.43Z" transform="translate(0 0)"/><path class="cls-2" d="M517.27,834.18a4.78,4.78,0,0,0,1.08,3,3.43,3.43,0,0,0,2.73,1.24,3.63,3.63,0,0,0,2.18-.61,6,6,0,0,0,1.6-1.85l2.06,1.16a6.58,6.58,0,0,1-2.45,2.54,6.5,6.5,0,0,1-3.42.92,5.79,5.79,0,0,1-4.53-1.89,7,7,0,0,1-1.68-4.76,7.4,7.4,0,0,1,1.6-4.91,5.58,5.58,0,0,1,4.56-1.9,5.29,5.29,0,0,1,4.41,1.9,7.46,7.46,0,0,1,1.51,4.83v.38Zm7.22-1.84a3.89,3.89,0,0,0-1.12-2.31,3.36,3.36,0,0,0-2.37-.85,3.76,3.76,0,0,0-1.31.23,3.47,3.47,0,0,0-1.86,1.68,3.85,3.85,0,0,0-.42,1.25Z" transform="translate(0 0)"/><path class="cls-2" d="M530.46,834.18a4.78,4.78,0,0,0,1.08,3,3.4,3.4,0,0,0,2.73,1.24,3.59,3.59,0,0,0,2.17-.61,6,6,0,0,0,1.61-1.85l2.06,1.16a6.62,6.62,0,0,1-5.87,3.46,5.82,5.82,0,0,1-4.54-1.89,7,7,0,0,1-1.67-4.76,7.45,7.45,0,0,1,1.59-4.91,5.6,5.6,0,0,1,4.57-1.9,5.27,5.27,0,0,1,4.4,1.9,7.46,7.46,0,0,1,1.52,4.83v.38Zm7.22-1.84a3.85,3.85,0,0,0-1.13-2.31,3.33,3.33,0,0,0-2.36-.85,3.81,3.81,0,0,0-1.32.23,3.37,3.37,0,0,0-1.07.66,3.77,3.77,0,0,0-.79,1,3.85,3.85,0,0,0-.42,1.25Z" transform="translate(0 0)"/><path class="cls-2" d="M548,830.42v2h-5.92v-2Z" transform="translate(0 0)"/><path class="cls-2" d="M560.59,838.13h-.05a5.57,5.57,0,0,1-1.88,1.77,4.86,4.86,0,0,1-2.42.63,5.41,5.41,0,0,1-4.43-2,7.42,7.42,0,0,1-1.62-4.86,7,7,0,0,1,1.64-4.66,5.36,5.36,0,0,1,4.3-2,5.11,5.11,0,0,1,4.41,2.49h.05V816.64H563V840.1h-2.44Zm-4,.24a3.66,3.66,0,0,0,3-1.32,5,5,0,0,0,1.1-3.27,4.82,4.82,0,0,0-1.1-3.22,3.67,3.67,0,0,0-3-1.33,3.62,3.62,0,0,0-2.92,1.35,4.92,4.92,0,0,0-1.08,3.2A5,5,0,0,0,553.7,837,3.59,3.59,0,0,0,556.62,838.37Z" transform="translate(0 0)"/><path class="cls-2" d="M567,829a6.56,6.56,0,0,1,4.81-1.95,6.73,6.73,0,1,1,0,13.46,6.59,6.59,0,0,1-4.81-1.94,6.85,6.85,0,0,1,0-9.57Zm.48,4.78a4.4,4.4,0,0,0,1.27,3.11,4.1,4.1,0,0,0,3.06,1.3,4.15,4.15,0,0,0,3.05-1.3,4.4,4.4,0,0,0,1.27-3.11,4.32,4.32,0,0,0-1.27-3.1,4.12,4.12,0,0,0-3.05-1.3,4.06,4.06,0,0,0-3.06,1.3A4.32,4.32,0,0,0,567.48,833.8Z" transform="translate(0 0)"/><path class="cls-2" d="M585.1,835.51l3.73-8.76,3.71,8.76,3.67-8.06H599l-6.43,13.08-3.71-8.46-3.73,8.46-6.43-13.08h2.75Z" transform="translate(0 0)"/><path class="cls-2" d="M602.62,829.15h0a3.7,3.7,0,0,1,1.57-1.54,4.75,4.75,0,0,1,2.24-.54,5.31,5.31,0,0,1,2.11.38,3.42,3.42,0,0,1,1.39,1.08,4.44,4.44,0,0,1,.76,1.72,10.68,10.68,0,0,1,.23,2.31v7.54h-2.44v-7.24a5.3,5.3,0,0,0-.54-2.73,2.39,2.39,0,0,0-2.24-.9,4,4,0,0,0-1.06.13,2.59,2.59,0,0,0-.75.35,2.27,2.27,0,0,0-.54.53,5,5,0,0,0-.4.64,2.2,2.2,0,0,0-.15.49,6,6,0,0,0-.12.61c0,.21-.07.41-.09.62a4.9,4.9,0,0,0,0,.5v7h-2.44V827.45h2.44Z" transform="translate(0 0)"/><path class="cls-2" d="M616.86,840.1h-2.43V816.64h2.43Z" transform="translate(0 0)"/><path class="cls-2" d="M621.13,829a6.56,6.56,0,0,1,4.81-1.95,6.73,6.73,0,1,1,0,13.46,6.59,6.59,0,0,1-4.81-1.94,6.85,6.85,0,0,1,0-9.57Zm.49,4.78a4.4,4.4,0,0,0,1.27,3.11,4.06,4.06,0,0,0,3.05,1.3,4.12,4.12,0,0,0,3-1.3,4.41,4.41,0,0,0,1.28-3.11,4.33,4.33,0,0,0-1.28-3.1,4.08,4.08,0,0,0-3-1.3,4,4,0,0,0-3.05,1.3A4.32,4.32,0,0,0,621.62,833.8Z" transform="translate(0 0)"/><path class="cls-2" d="M646.77,840.1h-2.43v-2h-.05a5,5,0,0,1-4.3,2.4,5.47,5.47,0,0,1-4.43-2,7.42,7.42,0,0,1-1.62-4.86,6.94,6.94,0,0,1,1.65-4.66,5.37,5.37,0,0,1,4.32-2,5.07,5.07,0,0,1,4.38,2.49h.05v-2.11h2.43Zm-6.4-1.73a3.66,3.66,0,0,0,3-1.32,5,5,0,0,0,1.11-3.27,4.83,4.83,0,0,0-1.11-3.22,3.67,3.67,0,0,0-3-1.33,3.59,3.59,0,0,0-2.91,1.35,4.87,4.87,0,0,0-1.09,3.2,4.94,4.94,0,0,0,1.09,3.24A3.56,3.56,0,0,0,640.37,838.37Z" transform="translate(0 0)"/><path class="cls-2" d="M659.37,838.13h0a5.57,5.57,0,0,1-1.88,1.77,4.88,4.88,0,0,1-2.42.63,5.41,5.41,0,0,1-4.43-2A7.43,7.43,0,0,1,649,833.7a6.89,6.89,0,0,1,1.66-4.66,5.33,5.33,0,0,1,4.29-2,5.11,5.11,0,0,1,4.41,2.49h0V816.64h2.43V840.1h-2.43Zm-4,.24a3.64,3.64,0,0,0,3-1.32,5,5,0,0,0,1.12-3.27,4.79,4.79,0,0,0-1.12-3.22,3.65,3.65,0,0,0-3-1.33,3.61,3.61,0,0,0-2.92,1.35,4.92,4.92,0,0,0-1.08,3.2,5,5,0,0,0,1.08,3.24A3.58,3.58,0,0,0,655.4,838.37Z" transform="translate(0 0)"/><path class="cls-2" d="M668.78,839a1.57,1.57,0,0,1-1.57,1.57,1.57,1.57,0,0,1-1.57-1.57,1.59,1.59,0,0,1,1.57-1.56,1.52,1.52,0,0,1,1.11.47A1.54,1.54,0,0,1,668.78,839Z" transform="translate(0 0)"/><path class="cls-2" d="M682.08,831.05a4.7,4.7,0,0,0-3.63-1.71,4,4,0,0,0-3,1.33,4.52,4.52,0,0,0-1.22,3.11,4.39,4.39,0,0,0,1.22,3.21,4.28,4.28,0,0,0,3.16,1.27,4.56,4.56,0,0,0,3.47-1.67v3.1a7.3,7.3,0,0,1-3.5.84,6.67,6.67,0,0,1-4.81-1.92,6.3,6.3,0,0,1-2-4.73,6.57,6.57,0,0,1,2-4.86,6.77,6.77,0,0,1,5-1.95,6.47,6.47,0,0,1,3.36.84Z" transform="translate(0 0)"/><path class="cls-2" d="M685.51,829a6.56,6.56,0,0,1,4.81-1.95,6.73,6.73,0,1,1,0,13.46,6.59,6.59,0,0,1-4.81-1.94,6.85,6.85,0,0,1,0-9.57Zm.48,4.78a4.4,4.4,0,0,0,1.27,3.11,4.1,4.1,0,0,0,3.06,1.3,4.15,4.15,0,0,0,3-1.3,4.44,4.44,0,0,0,1.27-3.11,4.37,4.37,0,0,0-1.27-3.1,4.12,4.12,0,0,0-3-1.3,4.06,4.06,0,0,0-3.06,1.3A4.32,4.32,0,0,0,686,833.8Z" transform="translate(0 0)"/><path class="cls-2" d="M701.63,829h.06a4.45,4.45,0,0,1,1.45-1.41,3.59,3.59,0,0,1,1.9-.56,4,4,0,0,1,3.65,2.25,4.52,4.52,0,0,1,3.89-2.25c2.8,0,4.19,1.82,4.19,5.46v7.57h-2.43v-7.16c0-.32,0-.65,0-1a7.06,7.06,0,0,0-.15-.92,3.11,3.11,0,0,0-.32-.82,2.56,2.56,0,0,0-.6-.68,2.16,2.16,0,0,0-1.24-.33,2.46,2.46,0,0,0-1.3.33,2.39,2.39,0,0,0-.8.74,4,4,0,0,0-.44,1.12,9.79,9.79,0,0,0-.21,1.22c0,.36,0,.78,0,1.24v6.22h-2.44v-6.7c0-.44,0-.79,0-1.08a10.13,10.13,0,0,0-.16-1.08,2.94,2.94,0,0,0-.36-1,2,2,0,0,0-.67-.68,2.09,2.09,0,0,0-1.11-.3,2.27,2.27,0,0,0-2.4,1.63,6.8,6.8,0,0,0-.33,1.43,14.27,14.27,0,0,0-.09,1.59v6.22h-2.42V827.45h2.42Z" transform="translate(0 0)"/><rect class="cls-2" x="281.02" y="830.99" width="34.43" height="1.68"/><rect class="cls-2" x="739.04" y="830.99" width="34.42" height="1.68"/><path d="M995.33,275.6c-23.61-11.8-49.89-16.89-76.13-13.24-23.67,3.3-46,12.78-65.57,26.35-16.32,11.31-31.07,25.71-41.5,42.69-5.78,9.42-9.26,19.92-15.47,29.14a57.62,57.62,0,0,1-20,18.8c-3.53,1.91-8,3.68-11.93,3.65a3,3,0,0,0-.69.09c-16.13-5-31.7-14.86-45-22.59-37.34-21.79-74.15-43.9-114.48-59.89-51.16-20.3-107.06-31.5-162.16-31.24a306.2,306.2,0,0,0-132.87,31c-20.28,9.87-39.43,21.92-57.73,35.05-21.65,15.54-41.51,33.29-62.74,49.36-32.18,24.34-67.36,46.79-105.44,60.74a112.19,112.19,0,0,1-14,4.4c-2.6.58-2.31,4.23,0,5a282.8,282.8,0,0,0,141.24,7.8c39.26-7.84,76.63-24,110.65-44.89a416.68,416.68,0,0,0,61.36-46.18,274.43,274.43,0,0,0,20.5-20.15c26,27.67,18.21,71,3.06,102.28-20.66,42.63-59.93,76.47-106.79,86-28.46,5.77-58.19,1.66-85.41-7.7-12.32-4.24-24.82-9.57-35.8-16.7-2.07-1.35-5.07,1.42-3.51,3.52a176.59,176.59,0,0,0,73.83,58.47c29.72,12.45,62.09,17,94.16,16.83,46.06-.18,91.83-9.21,136.22-22.5a8,8,0,0,1-2.9-4.5C431.51,580.4,385.35,589.24,338.91,589c-30.31-.16-61-4.83-89-16.75a170,170,0,0,1-62.14-45.55c24.83,13.07,54.06,20.08,81.48,20.74,49.68,1.19,94.35-24,124.12-62.76,28.2-36.71,50.46-101.11,11.78-138.8a2.58,2.58,0,0,0-3.64,0c-9,10.4-19.39,19.8-29.79,28.79a402.06,402.06,0,0,1-82.13,55.07c-31,15.61-64.57,26.59-99.07,31.18a274.26,274.26,0,0,1-110.7-8.37c16.73-5.1,33-13.61,48-21.77a514.78,514.78,0,0,0,63.83-41.55c21.28-16,41.13-33.76,62.74-49.36,36.7-26.48,77.16-47.46,121.44-57.78,52-12.11,106.2-8.45,158,2.5,49.73,10.51,96.29,30.63,140.37,55.6,16.6,9.4,32.83,19.46,49.4,28.92,12.79,7.31,26,14.42,40.05,18.86,10.67,3.37,22.06,4.62,33,1.78,3.21-.83,1.85-5.79-1.37-5a50.09,50.09,0,0,1-19.8.93,55.73,55.73,0,0,0,13.88-9.06c16-13.88,20.9-35,33.21-51.53,27.93-37.56,76.41-61.73,123.29-58.46a122.53,122.53,0,0,1,41.52,10.86c-24.61,9.94-47,30.88-49.23,58.12l-29.52,6.15c-2.59.54-2.32,4.27,0,5l32.56,9.65c-10.51,30-35.59,68.67-71.58,63.56-2.64-.38-4.84,3.3-2,4.7,18.26,8.94,40.22,26.2,41,48.17.48,13.32-7.48,28.71,0,41.4,4.35,7.34,12.8,5.93,20,3-10.78,16-28.31,28.62-47.48,30.18-25,2-48-14.27-65.43-30.39-15-13.85-26-30.81-30.48-50.77-1.77-7.79-1.41-20.8-9.37-25.37-4.88-2.8-10.79-1.56-15.67.43-15,6.12-29.21,14.39-43.53,21.89-39.4,20.66-79.14,40.7-119.81,58.7a5.83,5.83,0,0,1,1.3,5c41.12-18.16,81.29-38.42,121.11-59.3,14-7.32,28.45-15.77,42.79-21.57,4.06-1.63,10-3.55,13.16,1,2.43,3.48,2.77,8.54,3.5,12.59a124,124,0,0,0,5,19.89c7.62,21.4,23.7,38.66,41.52,52.19C842.4,544.6,863,555.14,885,552.1c22.45-3.09,42.09-19.94,52.54-39.63l.08-.16a2.59,2.59,0,0,0-3.52-3.51c-4.84,2.75-11.25,6.58-17.1,5.48-4.76-.88-5.7-6.75-6-10.72-1.26-14.85,5.71-28.68.41-43.26s-18.27-26.64-31.9-35c34.14-2.59,57.56-39.67,67.53-69.91a2.61,2.61,0,0,0-1.8-3.17l-25.34-7.51,21.43-4.46a2.59,2.59,0,0,0,1.89-2.48c1.19-28,26.33-49.19,51.53-57.45C996.69,279.65,997.45,276.65,995.33,275.6Z" transform="translate(0 0)"/><path d="M413.7,273.63c.24-10.5,6.09-20,12-28.26,6.39-8.94,14.08-17,21.8-24.77,17.92-18.14,36.25-36.25,57.75-50.16,45.31-29.32,101.6-40.54,154.94-38.56q-.66-2.4-1.3-4.8c-10.54,7-21.71,12.86-32.48,19.43-9.54,5.81-20.22,12.44-26.68,21.76-5.54,8-7.33,21.35-17.13,25.47-8.42,3.54-15.9,4.26-19.9,13.66-.77,1.81.52,4.66,2.9,3.77,4.68-1.74,9.52-2.77,14.52-2-.52-1.26-1-2.52-1.54-3.78-7.69,13.54-14,28.47-8.7,44.13,2,5.72,4.72,11.24,5.86,17.21,1.43,7.57-4.72,13.77-9.66,18.52-2.39,2.3,1.25,5.94,3.64,3.64,4.58-4.41,9-9.24,10.78-15.48,1.46-5.09-.16-10.44-1.89-15.21-3-8.15-5.92-15.41-5.47-24.3.47-9.34,5.38-18,9.88-25.91.75-1.32.15-3.52-1.54-3.78a33.51,33.51,0,0,0-17.24,2l2.9,3.78c4-9.31,12.58-8.61,20.31-12.94s10.63-15,14.48-22.4C607.54,163.92,619,157.13,629,151c10.73-6.64,21.93-12.47,32.47-19.43a2.59,2.59,0,0,0-1.29-4.79C604.61,124.67,546.55,137,499.69,168c-21.77,14.4-40.44,33.28-58.61,51.87-13.84,14.15-32,32.68-32.53,53.81-.07,3.32,5.07,3.31,5.15,0Z" transform="translate(0 0)"/><path d="M121.55,453.91c13,1.06,25.49-3.89,36.92-9.49,13-6.38,25.06-14.55,37.34-22.18,13.19-8.18,27-15.65,40.73-22.79,16-8.32,33-15.48,51.08-17.66,3.25-.39,3.28-5.54,0-5.14-32.48,3.92-62.25,22.06-89.92,38.42-12.22,7.23-23.91,15.29-36.39,22.09-12,6.55-25.73,12.75-39.76,11.6-3.3-.27-3.28,4.88,0,5.15Z" transform="translate(0 0)"/><path d="M214,440.77c4.18-24.81,31.18-30.52,52.44-32.51,3.27-.31,3.3-5.46,0-5.15-23.46,2.2-52.8,9-57.4,36.29-.54,3.25,4.41,4.64,5,1.37Z" transform="translate(0 0)"/><path d="M214.86,431.72c16.9,7.71,34-5.91,38.85-22,.95-3.19-4-4.54-5-1.37-3.78,12.61-17.53,25.25-31.29,19-3-1.36-5.61,3.07-2.6,4.44Z" transform="translate(0 0)"/><path d="M453.56,538.46c10,17.19,21.19,34.21,37.05,46.54,15.56,12.1,35,18,54.46,19.31a234.41,234.41,0,0,0,56.49-2.88c17.52-3.12,37.08-9.26,48.56-23.74,1.23-1.55.68-4.61-1.82-4.39-9.55.82-19.21,3.14-28.77,1.31-9-1.72-17.48-10.77-20.94-19-1-2.39-3.21-5.93-2.61-8.63.52-2.31,1.87-4.52,2.52-6.82a43.42,43.42,0,0,0,.12-21.66c-2.94-12.1-12.15-21.61-23.52-26.18-12.52-5-26.64-1.77-37.26,5.94-2.66,1.93-.09,6.39,2.6,4.44,11.7-8.49,26.22-10.24,38.83-2.61,12.84,7.78,17.26,23.07,14.62,37.18-.89,4.74-3.9,8.34-2.72,13.27,1.69,7,5.83,13.33,10.58,18.62,5.55,6.17,11.46,9.85,19.79,11,8.89,1.22,17.92-.92,26.76-1.69-.61-1.46-1.21-2.93-1.82-4.39-11,13.93-29.51,19.3-46.28,22.42-17.75,3.31-36.15,3.79-54.14,2.75-18.93-1.09-37.69-6.87-52.76-18.59s-25.78-28.38-35.3-44.76c-1.66-2.87-6.11-.28-4.44,2.59Z" transform="translate(0 0)"/><path d="M382.76,591.19c10,13.72,25.19,22.57,40.48,29.22a176.22,176.22,0,0,0,50.4,13.6c3.3.37,3.26-4.78,0-5.14a175,175,0,0,1-45.68-12c-15.11-6.1-31-14.83-40.75-28.26-1.94-2.66-6.4-.09-4.45,2.59Z" transform="translate(0 0)"/><path d="M455,576.89c-.93,20,2.4,41.45,16.81,56.37,2.3,2.39,5.94-1.25,3.63-3.64-13.45-13.94-16.16-34.15-15.3-52.73.16-3.31-5-3.3-5.14,0Z" transform="translate(0 0)"/><path d="M419.75,345.15c43.61-7.67,73.13,37.59,68.94,77-2.56,24.05-15.15,47.51-27.7,67.7a288.11,288.11,0,0,1-46.72,57.44c-2.42,2.28,1.22,5.91,3.64,3.64a299.19,299.19,0,0,0,49.3-61.36c12.84-20.92,24.67-45.1,26.86-69.89,3.57-40.23-27.48-84.75-70.89-80.18-1.6.17-3.21.44-4.8.72-3.26.57-1.88,5.53,1.37,5Z" transform="translate(0 0)"/><path d="M580.63,499.33c28-14.44,56.47-28.17,86.93-36.65,33.09-9.2,67.55-13.43,101.42-18.62,3.27-.5,1.88-5.46-1.37-5-34.25,5.25-69,9.61-102.47,18.91-30.49,8.49-59.06,22.43-87.1,36.88-2.95,1.52-.35,5.95,2.59,4.44Z" transform="translate(0 0)"/><path d="M492.69,346.64c26.52,10.71,26.22,40.85,19.38,64.32-.93,3.19,4,4.54,5,1.36,3.83-13.15,5.73-27.11,2.93-40.66-2.94-14.21-12.64-24.63-25.9-30-3.08-1.25-4.4,3.73-1.37,5Z" transform="translate(0 0)"/><path d="M519.87,348.36c15.55,7,19.66,30.78,14,45.39-1.19,3.1,3.78,4.43,5,1.37,6.39-16.59,1.12-43.3-16.4-51.2-3-1.35-5.61,3.08-2.59,4.44Z" transform="translate(0 0)"/><path d="M543.82,349.28c7.68,6.42,7,16.45,4.64,25.29-.88,3.2,4.09,4.56,5,1.37,2.86-10.53,3.1-22.71-6-30.29-2.52-2.12-6.18,1.5-3.64,3.63Z" transform="translate(0 0)"/><path d="M412.66,315.12c-11.86-.25-23.09,3.85-33.55,9.12-7.8,3.94-15,8.52-21,14.86-7,7.33-21.33,23.4-12.95,33.95,4.26,5.36,13.4,4.67,19,2.52,8.89-3.41,16.05-10.95,22.47-17.7,7-7.4,13.37-15.63,22.23-20.95,11.12-6.67,24.65-5.36,36.89-3.52,3.24.49,4.63-4.46,1.37-5-9.21-1.38-18.36-2.34-27.61-.81-9.05,1.49-17,6.5-23.49,12.74-6.26,6-11.74,12.75-17.9,18.84-5.83,5.76-13.27,12.64-21.95,12.85-18.77.46.17-23.41,4.94-28.63,5.11-5.6,11-9.43,17.61-13.14,10.34-5.79,22-10.28,34-10,3.32.07,3.31-5.07,0-5.14Z" transform="translate(0 0)"/><path d="M278.22,364.68c3.66,14.76,13.65,24.27,29.12,24.67,14.88.39,29.85-6.42,42.73-13.2,2.94-1.54.33-6-2.6-4.44-11.16,5.87-23.28,11.19-36,12.35-14.81,1.36-24.78-6.47-28.32-20.75-.79-3.21-5.75-1.85-5,1.37Z" transform="translate(0 0)"/><path d="M343.19,311c10.52.54,15.12,17.41,15.29,25.88.07,3.31,5.22,3.32,5.15,0-.25-11.62-6.6-30.31-20.44-31-3.31-.17-3.3,5,0,5.14Z" transform="translate(0 0)"/><path d="M271.41,322c-11.47,5.3-19.81,21.11-15.49,33.43,2.25,6.4,8.75,10,15.19,10.86,8.52,1.09,15.62-3,21.54-8.79s10.37-13.3,15.37-20a80.2,80.2,0,0,1,23.88-21.38c17.12-10,37.58-11.41,56.94-11.09,3.32.05,3.32-5.09,0-5.15-16.23-.26-32.67.81-48,6.45-15.71,5.76-28.31,16.6-38.21,29.89-8.57,11.5-19.92,32.12-37.29,22.84-13.43-7.18-.76-28.23,8.69-32.6,3-1.4.4-5.83-2.59-4.44Z" transform="translate(0 0)"/><path d="M297.05,351.93a9.81,9.81,0,0,1,3.05,6.15,5.65,5.65,0,0,1-.44,2.63,6.86,6.86,0,0,1-1.15,1.75c-.14.15-.3.29-.46.43.47-.4,0,0-.12.06s-.33.19-.51.28c.59-.3.09-.05-.07,0s-.74.12,0,0a2.9,2.9,0,0,1-.51,0c.69,0,.22,0,0,0-.57-.15.5.27,0,0s.4.37-.08,0c-.08-.07-.5-.56-.14-.09-.17-.21-.6-1.08-.52-.89a11.47,11.47,0,0,1-.62-4.15c0-3.32-5.17-3.32-5.14,0,0,3.51.66,7.38,3.75,9.52,2.44,1.69,5.51.63,7.6-1.05,2.32-1.86,3.41-5,3.56-7.89.19-3.94-1.9-7.61-4.57-10.34-2.32-2.37-5.95,1.27-3.63,3.64Z" transform="translate(0 0)"/><path d="M158.64,468.58c23.86,26.77,49.55,52.64,78.72,73.63,2.7,1.94,5.26-2.52,2.6-4.44-28.8-20.72-54.14-46.41-77.68-72.82-2.22-2.48-5.84,1.17-3.64,3.63Z" transform="translate(0 0)"/><path d="M229.76,456.55a720.75,720.75,0,0,0,11.71,84.79c.64,3.25,5.6,1.87,5-1.37a708,708,0,0,1-11.53-83.42c-.24-3.28-5.39-3.31-5.14,0Z" transform="translate(0 0)"/><path d="M230.51,458.37c23.06,29.63,49.27,57,75.8,83.44,2.35,2.34,6-1.29,3.63-3.64-26.53-26.48-52.74-53.81-75.79-83.44-2-2.61-5.65,1.06-3.64,3.64Z" transform="translate(0 0)"/><path d="M296.29,430.16c2,34.88,4,69.76,7.28,104.54.31,3.27,5.45,3.3,5.14,0-3.25-34.78-5.3-69.66-7.28-104.54-.18-3.29-5.33-3.31-5.14,0Z" transform="translate(0 0)"/><path d="M297.05,430.89c21.57,27.06,45.41,52.47,63.77,82,1.75,2.81,6.2.23,4.44-2.6-18.59-29.84-42.73-55.59-64.58-83-2.07-2.6-5.68,1.07-3.63,3.64Z" transform="translate(0 0)"/><path d="M352,395.12c6.68,37.92,14.94,76.36,9.84,115-.43,3.28,4.72,3.24,5.14,0,5.16-39.08-3.27-78-10-116.38-.58-3.26-5.53-1.87-5,1.37Z" transform="translate(0 0)"/><path d="M354.44,395.69c12.65.7,23.59,11.39,31.83,20a135.93,135.93,0,0,1,22.85,31.64c1.5,3,5.94.35,4.44-2.59-6.29-12.37-15.07-23.7-24.63-33.7-9-9.42-20.85-19.75-34.49-20.51-3.32-.18-3.3,5,0,5.15Z" transform="translate(0 0)"/><path d="M393.34,358.66c5.76,27.37,13.1,54.42,16.09,82.29.35,3.26,5.5,3.3,5.15,0-3-28.34-10.42-55.83-16.28-83.66-.69-3.24-5.65-1.87-5,1.37Z" transform="translate(0 0)"/><path d="M396.5,357.79c6.15,4.32,12.78,7.94,18.83,12.4,2.68,2,5.24-2.49,2.6-4.44-6.06-4.46-12.68-8.08-18.83-12.4-2.72-1.91-5.29,2.55-2.6,4.44Z" transform="translate(0 0)"/><path d="M273.23,356.06l-.74,0c-4.67-.36-7.35-4.08-8.29-5.67-4.14-7,5.78-17.1,6.21-17.52l.73.73c-.1.09-9.79,9.94-6.05,16.27.85,1.44,3.29,4.84,7.48,5.16,4.42.34,9.36-2.75,14.65-9.19,2.7-3.29,5.13-6.36,7.27-9.06,8.64-10.91,14.35-18.12,25.33-24.4l.51.9c-10.8,6.17-16.46,13.32-25,24.14-2.15,2.71-4.57,5.77-7.29,9.07C282.78,352.84,277.82,356.06,273.23,356.06Z" transform="translate(0 0)"/><path d="M273.32,352.35a6.08,6.08,0,0,1-4.45-1.88c-4.15-4.18.31-10.66.51-10.93l.84.59c0,.06-4.16,6-.62,9.62a5.14,5.14,0,0,0,4.12,1.56c3.07-.2,6.71-2.69,9.74-6.65,4.41-5.78,13.85-16.48,14-16.59l.77.68c-.09.11-9.51,10.78-13.91,16.53-3.2,4.2-7.12,6.84-10.48,7.06Z" transform="translate(0 0)"/><path d="M225.72,437.57a27.35,27.35,0,0,1-8.23-1.15l.34-1c1,.37,25.51,8.54,38.16-23.1l1,.38C248.52,433.82,234.58,437.57,225.72,437.57Z" transform="translate(0 0)"/><path d="M124.55,444l0-1c.19,0,19.86-1.16,39.55-15.72l.61.83C144.71,442.81,124.75,444,124.55,444Z" transform="translate(0 0)"/><path d="M132.08,437.63l-.08-1c.14,0,13.35-1.14,23.68-9.36l.64.81C145.73,436.47,132.22,437.61,132.08,437.63Z" transform="translate(0 0)"/><rect x="225.27" y="464.74" width="1.03" height="33.7" transform="translate(-65.44 36.51) rotate(-8.08)"/><rect x="291.29" y="445.34" width="1.03" height="39.09" transform="translate(-22.81 15.12) rotate(-2.86)"/><path d="M355.87,458.07c-.73-10.61-7.53-45.08-7.6-45.43l1-.2c.07.35,6.88,34.88,7.62,45.56Z" transform="translate(0 0)"/><rect x="396.36" y="377.32" width="1.03" height="34.9" transform="translate(-87.68 114.48) rotate(-14.8)"/><rect x="391.82" y="384.39" width="1.03" height="21.87" transform="translate(-105.59 145.76) rotate(-18.6)"/><rect x="347.32" y="422.63" width="1.03" height="26.66" transform="translate(-78.55 76.45) rotate(-11.28)"/><rect x="287.73" y="452.27" width="1.03" height="23.8" transform="matrix(1, -0.05, 0.05, 1, -24.19, 15.93)"/><rect x="221.23" y="472.57" width="1.03" height="20.04" transform="translate(-77.37 43.74) rotate(-9.6)"/><path d="M275.29,554.77a107.5,107.5,0,0,1-14.06-.77l.15-1c.24,0,25.07,3.56,55.85-4.88,28.39-7.79,67.79-27.65,94.32-78l.91.48c-26.71,50.73-66.4,70.72-95,78.56A161.28,161.28,0,0,1,275.29,554.77Z" transform="translate(0 0)"/><path d="M306.18,559.58l-.07-1c.57,0,57.14-4.44,94.8-55.48l.83.61C363.78,555.12,306.75,559.54,306.18,559.58Z" transform="translate(0 0)"/><path d="M457,619.26c-9.74-13.37-7.93-35.23-7.91-35.45l1,.09c0,.22-1.8,21.7,7.71,34.76Z" transform="translate(0 0)"/><path d="M449,616.16c-7.81-12.8-5.79-28-5.77-28.2l1,.15c0,.15-2,15,5.63,27.52Z" transform="translate(0 0)"/><path d="M587.46,541.86l-1-.14C588.6,526,586,515,578.66,508.91c-11.94-9.91-32.57-3.19-32.78-3.12l-.32-1c.21-.07,21.39-7,33.76,3.31C586.93,514.44,589.67,525.79,587.46,541.86Z" transform="translate(0 0)"/><path d="M581.61,537.66l-1-.09c.94-10.16-1.15-17.69-6.2-22.39-7.7-7.15-19.83-5.21-19.95-5.19l-.17-1c.52-.08,12.74-2,20.81,5.46C580.38,519.35,582.58,527.17,581.61,537.66Z" transform="translate(0 0)"/><path d="M575.87,595.3c-39.3,0-65.86-13.16-81.94-25.2-20.36-15.26-28.78-32.09-28.86-32.26l.93-.45c.08.17,8.41,16.81,28.59,31.92,18.63,13.94,51.44,29.38,102.05,23.79l.11,1A189.81,189.81,0,0,1,575.87,595.3Z" transform="translate(0 0)"/><path d="M576.61,588.91c-31.84,0-55.4-10.83-70-20.43-17.5-11.48-26.38-23.76-26.46-23.88l.83-.6c.09.12,8.88,12.27,26.23,23.64,16,10.5,42.78,22.46,79.45,19.88l.08,1Q581.52,588.91,576.61,588.91Z" transform="translate(0 0)"/><path d="M852.18,532.78c-50.33-26.55-59.78-70.67-59.87-71.11l1-.21c.08.44,9.46,44.1,59.34,70.41Z" transform="translate(0 0)"/><path d="M843.25,516.61c-26-15-37.43-42.32-37.54-42.59l.95-.39c.11.27,11.38,27.31,37.11,42.09Z" transform="translate(0 0)"/><path d="M902,482.3l-1-.24c6.52-27.15-37.17-49.89-37.62-50.12l.47-.92C864.25,431.25,908.66,454.37,902,482.3Z" transform="translate(0 0)"/><path d="M912.34,523.24a17.06,17.06,0,0,1-11.8-5c-3-3-7.68-9.69-5.16-21.36,3.8-17.66-9.24-34.79-9.38-35l.82-.63c.13.18,13.47,17.67,9.56,35.8-2.41,11.2,2,17.6,4.89,20.41a15.4,15.4,0,0,0,14,4.42l.23,1A14.05,14.05,0,0,1,912.34,523.24Z" transform="translate(0 0)"/><path d="M811.67,362.6l-.95-.41A166.57,166.57,0,0,1,842,317.47c19.77-20.28,53.77-44.21,103.45-43.06l0,1c-49.3-1.16-83,22.6-102.66,42.72C821.5,340,811.76,362.37,811.67,362.6Z" transform="translate(0 0)"/><path d="M825.29,352.63l-.89-.53a179,179,0,0,1,29.28-34.93c17.22-15.95,45.1-35,80.09-35v1c-34.66,0-62.31,18.86-79.39,34.68A177.18,177.18,0,0,0,825.29,352.63Z" transform="translate(0 0)"/><path d="M781.46,397.77c-34.63,0-68.48-22.45-68.86-22.71l.58-.85c.41.28,41.75,27.69,79.55,21.66l.16,1A73.06,73.06,0,0,1,781.46,397.77Z" transform="translate(0 0)"/><path d="M768.91,405A90.65,90.65,0,0,1,733,397.72l.45-.92c.25.12,24.71,11.77,53.71,5.21l.22,1A83.36,83.36,0,0,1,768.91,405Z" transform="translate(0 0)"/><path d="M425.53,264l-.86-.56c.24-.38,25.14-38.29,66.74-71.94l.64.8C450.59,225.86,425.78,263.63,425.53,264Z" transform="translate(0 0)"/><path d="M438.33,261.3l-.84-.6c1.08-1.51,26.41-36.95,38.65-42.51l.43.93C464.58,224.57,438.59,260.93,438.33,261.3Z" transform="translate(0 0)"/><path d="M575.85,313.27C517.05,283,459,287.55,458.46,287.6l-.09-1c.58-.05,58.89-4.59,118,25.77Z" transform="translate(0 0)"/><path d="M589.59,337.16c-13.1-19.53-57.05-28.14-57.5-28.23l.2-1c1.82.35,44.81,8.78,58.15,28.67Z" transform="translate(0 0)"/><path d="M506.57,404.66l-1-.23c8-35.22-13.87-48.29-14.1-48.41l.52-.9C492.21,355.26,514.74,368.67,506.57,404.66Z" transform="translate(0 0)"/><path d="M530.46,389.09l-1-.27c5.88-21.62-8.41-30.32-8.56-30.4l.52-.89C521.58,357.62,536.55,366.68,530.46,389.09Z" transform="translate(0 0)"/><path d="M474.13,437.28l-1-.34c17-47.47-19.65-74.48-20-74.75l.6-.84C454.12,361.63,491.4,389.07,474.13,437.28Z" transform="translate(0 0)"/><path d="M468.5,424.93l-1-.21c7.63-36.53-13.65-50.68-13.87-50.82l.56-.87C454.41,373.17,476.29,387.72,468.5,424.93Z" transform="translate(0 0)"/></svg>