<?xml version="1.0" standalone="no"?>
<!DOCTYPE svg PUBLIC "-//W3C//DTD SVG 20010904//EN"
 "http://www.w3.org/TR/2001/REC-SVG-20010904/DTD/svg10.dtd">
<svg version="1.0" xmlns="http://www.w3.org/2000/svg"
 width="300.000000pt" height="293.000000pt" viewBox="0 0 300.000000 293.000000"
 preserveAspectRatio="xMidYMid meet">
<metadata>
Created by potrace 1.10, written by Peter Selinger 2001-2011
</metadata>
<g transform="translate(0.000000,293.000000) scale(0.100000,-0.100000)"
fill="#000000" stroke="none">
<path d="M1815 2715 c-11 -13 -27 -24 -35 -25 -9 0 -21 -5 -26 -10 -6 -6 -25
-12 -42 -13 -29 -2 -36 -8 -33 -29 0 -3 -11 -5 -24 -3 -13 1 -22 -2 -19 -7 3
-5 0 -8 -7 -7 -8 1 -25 -2 -39 -8 -14 -6 -42 -18 -62 -26 -24 -10 -40 -12 -44
-6 -4 6 -11 6 -20 -2 -15 -12 -206 -21 -256 -12 -17 3 -28 12 -28 22 0 13 -2
13 -9 2 -6 -10 -10 -10 -16 -1 -4 6 -12 9 -19 7 -6 -3 -20 1 -31 9 -10 8 -38
14 -62 14 -38 0 -50 -6 -94 -47 -27 -25 -48 -52 -45 -58 2 -7 -7 -24 -20 -39
-14 -14 -22 -26 -19 -26 4 0 -5 -20 -18 -45 -15 -27 -21 -47 -16 -51 12 -7 9
-12 43 60 19 39 40 65 62 78 40 24 44 33 9 24 -31 -8 -33 9 -4 25 18 9 24 8
31 -5 6 -11 23 -16 59 -16 27 0 66 -7 86 -15 40 -17 106 -82 98 -96 -4 -5 -3
-9 2 -9 17 0 12 -92 -7 -129 -24 -44 -45 -71 -55 -71 -4 0 -2 7 5 15 7 9 10
19 6 23 -4 4 -12 -1 -17 -11 -6 -9 -17 -17 -24 -17 -8 0 -15 -5 -15 -11 0 -6
7 -9 15 -5 8 3 15 1 15 -4 0 -10 -84 -26 -118 -22 -17 2 -22 -1 -17 -10 3 -7
0 -5 -8 5 -15 18 -32 24 -22 7 3 -5 0 -10 -7 -10 -16 1 -50 25 -43 31 2 3 -7
18 -21 34 l-24 30 6 -27 c4 -18 2 -28 -6 -28 -6 0 -8 5 -5 10 4 6 3 10 -2 9
-20 -3 -27 2 -13 11 12 7 12 12 2 22 -14 14 -16 52 -2 43 6 -3 10 1 10 10 0 9
-5 13 -10 10 -6 -3 -10 1 -10 9 0 9 -8 16 -17 16 -12 0 -14 -3 -7 -8 7 -4 12
-31 12 -61 0 -40 4 -56 17 -63 11 -7 15 -17 11 -32 -3 -11 -1 -28 5 -36 8 -12
9 -10 4 8 -4 12 -2 22 4 22 13 0 6 -48 -13 -84 -8 -17 -12 -35 -7 -40 4 -6 7
-25 6 -43 -2 -23 1 -30 11 -26 9 3 11 14 7 35 -3 16 0 54 7 85 11 43 11 59 2
74 -16 24 -7 24 25 -1 15 -12 20 -20 12 -20 -17 0 30 -39 47 -40 7 0 15 7 18
16 3 8 11 12 17 9 14 -9 95 14 141 40 83 47 118 146 83 230 -8 18 -7 19 8 6 9
-7 17 -9 17 -3 0 15 -26 33 -35 24 -4 -4 -4 4 0 17 5 16 4 21 -4 17 -6 -4 -11
-2 -11 4 0 6 -23 21 -51 32 -33 14 -46 24 -37 29 7 4 -13 6 -45 4 -31 -2 -57
1 -57 5 0 5 -10 10 -22 12 -13 2 -23 10 -23 18 0 17 65 31 108 23 22 -5 26
-10 22 -27 -5 -15 -4 -17 3 -7 15 22 72 5 73 -22 1 -14 3 -16 6 -6 4 15 54 17
216 6 20 -1 37 1 37 4 0 4 24 12 52 19 63 13 172 52 228 80 21 11 45 20 51 20
7 0 20 7 29 15 10 9 41 18 71 21 30 3 65 8 79 11 l25 6 -25 7 c-14 4 -29 4
-35 0 -14 -9 -67 -3 -74 9 -4 5 -15 -1 -26 -14z m-900 -515 c3 -5 1 -10 -4
-10 -6 0 -11 5 -11 10 0 6 2 10 4 10 3 0 8 -4 11 -10z m65 -67 c0 -10 -4 -14
-8 -8 -4 6 -11 13 -16 18 -5 4 -2 7 7 7 10 0 17 -8 17 -17z"/>
<path d="M1881 2661 c-30 -38 -40 -39 -34 -3 4 26 4 26 -12 7 -8 -11 -13 -25
-11 -32 3 -7 -1 -13 -8 -13 -8 0 -16 6 -19 13 -5 16 -37 -9 -37 -30 0 -8 -4
-12 -9 -9 -21 13 -141 -170 -141 -215 0 -9 -5 -19 -11 -21 -9 -3 -9 -9 0 -26
9 -16 9 -26 -1 -41 -9 -15 -9 -23 1 -35 8 -10 9 -21 3 -33 -5 -10 -12 -36 -15
-57 -4 -22 -10 -42 -16 -45 -5 -3 -2 -12 6 -20 12 -11 14 -10 11 4 -2 10 2 20
9 22 8 3 11 -7 8 -32 -3 -32 -2 -34 10 -18 7 10 11 30 8 44 -4 21 0 27 18 32
21 6 22 8 7 24 -8 10 -19 25 -23 33 -6 12 -5 13 6 3 7 -7 19 -13 27 -13 7 0
12 6 10 13 -3 6 -10 12 -16 12 -5 0 -14 4 -19 9 -5 5 -3 6 5 2 16 -9 15 3 -1
23 -9 10 -11 25 -6 41 6 23 7 23 8 3 1 -12 6 -25 12 -29 8 -4 9 1 5 17 -6 21
-6 22 5 6 8 -14 8 -22 0 -30 -12 -12 13 -47 34 -47 6 0 22 -11 35 -25 13 -14
27 -25 31 -25 3 0 24 -8 45 -17 22 -9 42 -16 47 -15 6 2 11 -13 8 -30 0 -4 6
-5 15 -1 9 3 23 -3 35 -15 25 -28 24 -35 -6 -28 -18 5 -23 3 -19 -8 3 -8 13
-12 26 -8 14 3 26 -1 34 -13 17 -23 18 -39 2 -29 -7 5 -9 2 -5 -9 4 -11 0 -15
-14 -14 -10 1 -19 6 -19 13 0 6 -7 18 -17 25 -15 13 -15 12 -5 -8 7 -12 9 -28
6 -37 -4 -10 2 -15 22 -18 20 -2 28 -9 29 -25 1 -13 5 -26 8 -29 4 -4 82 8
174 26 369 71 451 82 498 65 53 -18 68 -27 58 -33 -7 -5 -6 -11 3 -20 11 -10
14 -10 14 0 0 30 -13 58 -26 58 -8 0 -14 4 -14 8 0 5 -18 8 -40 8 -22 -1 -40
-1 -40 0 0 1 9 11 20 24 11 13 26 20 35 16 8 -3 15 -1 15 4 0 5 10 11 23 13
12 3 7 5 -13 4 -19 -1 -46 -9 -59 -19 -13 -10 -28 -15 -34 -11 -6 4 -8 0 -4
-10 3 -8 0 -18 -7 -20 -8 -3 -12 4 -10 22 1 16 0 18 -3 5 -3 -18 -14 -23 -66
-30 -34 -4 -73 -7 -85 -5 -14 1 -21 -2 -18 -8 4 -5 -22 -12 -61 -16 -38 -4
-85 -13 -105 -20 -35 -14 -136 -28 -185 -28 -13 1 -20 -3 -17 -8 3 -5 -2 -9
-10 -9 -9 0 -19 -1 -23 -2 -4 -2 -8 26 -9 62 -1 36 -5 81 -9 101 -7 35 -5 39
37 70 79 60 117 134 118 231 0 29 -3 36 -15 32 -11 -5 -15 -19 -13 -53 2 -51
-8 -91 -23 -91 -7 0 -8 12 -3 33 5 17 8 50 9 72 0 28 5 42 18 47 18 8 23 43 7
53 -5 3 -10 4 -10 1 0 -2 -3 -12 -7 -22 -5 -13 -3 -15 8 -10 8 4 6 1 -5 -8
-13 -10 -19 -30 -20 -65 -2 -27 -10 -61 -19 -75 -22 -32 -43 -35 -25 -3 7 12
11 25 10 30 -1 4 2 7 7 7 6 0 8 23 7 51 -3 37 0 52 11 56 8 3 12 12 9 20 -3 8
-1 11 4 8 6 -3 10 -1 10 4 0 6 -9 11 -19 11 -15 0 -18 -5 -14 -21 5 -19 4 -20
-16 -9 -13 6 -25 9 -28 7 -2 -3 5 -8 17 -12 17 -5 19 -10 9 -21 -6 -8 -7 -14
-2 -14 14 0 9 -43 -5 -48 -8 -2 -12 8 -12 28 0 21 -4 30 -12 28 -16 -6 -17
-38 -3 -57 8 -12 7 -13 -4 -6 -10 6 -12 4 -7 -4 8 -13 -45 -70 -66 -72 -7 0
-22 -3 -33 -5 -31 -8 -96 -4 -116 6 -10 6 -24 10 -31 10 -7 0 7 -10 32 -21 33
-15 41 -22 31 -29 -15 -8 -61 7 -61 21 0 4 -7 9 -14 12 -10 4 -13 1 -10 -8 8
-19 61 -45 80 -38 8 3 14 -1 14 -11 0 -9 5 -16 11 -16 5 0 8 4 5 8 -3 5 1 9 9
9 8 0 15 -4 15 -9 0 -11 47 -10 87 1 21 6 35 5 43 -2 10 -9 11 -9 6 1 -4 7 0
15 11 19 10 4 24 15 31 25 17 24 32 23 32 -3 0 -11 -4 -18 -9 -15 -5 3 -12 -5
-15 -19 -4 -17 -11 -23 -23 -18 -11 4 -14 2 -9 -5 8 -14 -27 -34 -47 -27 -7 3
-19 -1 -26 -9 -10 -12 -9 -14 9 -9 16 4 19 2 14 -11 -10 -26 -41 -19 -56 14
-13 31 -33 39 -42 18 -3 -9 -8 -8 -16 5 -6 9 -20 17 -32 17 -12 0 -41 11 -65
25 -39 24 -48 35 -44 58 1 4 -4 18 -11 30 -7 13 -11 49 -9 87 3 67 27 126 68
162 26 24 128 58 173 58 38 0 109 -39 144 -78 10 -12 23 -19 28 -16 5 3 0 12
-11 20 -13 9 -18 21 -14 31 4 11 3 14 -5 9 -14 -9 -44 18 -34 30 4 5 -1 2 -10
-5 -20 -15 -23 -9 -8 20 8 13 7 19 0 19 -6 0 -13 -7 -16 -15 -12 -29 -24 -14
-21 25 2 22 1 40 -1 40 -3 0 -15 -11 -28 -25 l-23 -25 -3 27 -3 26 -24 -32z
m139 -320 c0 -5 -6 -16 -13 -23 -8 -7 -12 -19 -9 -27 3 -10 0 -12 -12 -8 -9 4
-15 3 -12 -2 3 -4 -12 -14 -34 -21 -22 -7 -37 -16 -35 -21 7 -10 45 1 45 13 0
6 7 8 15 4 8 -3 15 -1 15 4 0 6 5 10 10 10 6 0 10 -5 10 -11 0 -14 -58 -37
-111 -43 -42 -5 -43 -4 -19 9 l25 14 -31 -4 c-17 -2 -37 1 -45 6 -10 6 -11 9
-1 10 6 1 15 2 20 3 4 1 28 5 54 10 39 6 54 15 80 46 33 39 48 49 48 31z"/>
<path d="M2005 2660 c3 -5 8 -10 11 -10 2 0 4 5 4 10 0 6 -5 10 -11 10 -5 0
-7 -4 -4 -10z"/>
<path d="M1940 2575 c0 -5 15 -20 63 -64 22 -20 27 -22 27 -8 0 9 -6 17 -13
17 -7 0 -18 9 -24 20 -12 18 -53 46 -53 35z"/>
<path d="M1030 2566 c0 -2 7 -6 15 -10 8 -3 15 -1 15 4 0 6 -7 10 -15 10 -8 0
-15 -2 -15 -4z"/>
<path d="M1605 2560 c3 -5 8 -10 11 -10 2 0 4 5 4 10 0 6 -5 10 -11 10 -5 0
-7 -4 -4 -10z"/>
<path d="M1852 2550 c8 -12 16 -16 22 -10 5 5 23 7 40 4 l31 -4 -30 14 c-16 8
-31 10 -33 5 -2 -5 -8 -9 -13 -9 -6 0 -7 5 -4 10 3 6 -1 10 -9 10 -14 0 -14
-3 -4 -20z"/>
<path d="M1540 2525 c0 -15 4 -24 10 -20 6 3 10 12 10 20 0 8 -4 17 -10 20 -6
4 -10 -5 -10 -20z"/>
<path d="M1798 2543 c-20 -5 -23 -14 -9 -28 5 -6 11 -19 14 -30 2 -11 3 -6 1
12 -1 21 3 33 12 37 12 5 14 1 9 -15 -5 -15 -4 -19 4 -15 7 5 11 -2 11 -16 0
-19 2 -20 10 -8 9 13 12 13 23 -1 11 -15 18 -19 35 -19 4 0 0 -5 -8 -11 -13
-9 -13 -10 1 -6 9 3 22 0 29 -6 7 -7 5 0 -4 14 -15 24 -13 39 5 39 4 0 10 -12
13 -26 4 -15 9 -24 12 -21 11 10 -7 45 -30 61 -21 13 -25 13 -30 1 -3 -10 0
-12 11 -8 11 4 14 2 9 -5 -14 -24 -41 -9 -65 36 -12 22 -19 24 -53 15z"/>
<path d="M1930 2520 c0 -5 6 -10 13 -10 30 -1 38 -16 28 -59 -7 -35 -7 -40 4
-31 8 6 11 18 8 27 -3 8 -1 18 6 22 8 5 6 15 -9 34 -21 27 -50 36 -50 17z"/>
<path d="M2101 2514 c0 -11 3 -14 6 -6 3 7 2 16 -1 19 -3 4 -6 -2 -5 -13z"/>
<path d="M1400 2511 c0 -12 32 -24 39 -14 4 4 5 7 2 6 -2 -1 -12 2 -22 8 -11
6 -19 6 -19 0z"/>
<path d="M1466 2504 c-4 -9 -1 -22 5 -28 9 -8 10 -8 5 1 -3 6 -2 13 4 15 5 2
6 9 1 16 -6 11 -10 10 -15 -4z"/>
<path d="M1240 2496 c0 -18 60 -79 69 -70 3 4 0 9 -7 11 -6 3 -10 8 -7 13 3 5
-3 11 -14 15 -11 3 -22 13 -25 21 -4 12 -2 15 9 10 8 -3 15 -1 15 4 0 6 -9 10
-20 10 -11 0 -20 -6 -20 -14z"/>
<path d="M1295 2499 c-11 -17 1 -21 15 -4 8 9 8 15 2 15 -6 0 -14 -5 -17 -11z"/>
<path d="M1340 2500 c0 -5 7 -10 16 -10 8 0 12 5 9 10 -3 6 -10 10 -16 10 -5
0 -9 -4 -9 -10z"/>
<path d="M1499 2473 c-6 -15 -16 -31 -22 -35 -9 -6 -9 -8 0 -8 7 0 10 -7 7
-15 -4 -8 -10 -15 -14 -15 -13 0 -18 38 -7 49 8 8 8 11 -1 11 -7 0 -13 -4 -13
-10 -1 -5 -2 -16 -3 -22 -1 -7 4 -21 12 -30 8 -9 11 -21 8 -27 -9 -13 -36 -3
-36 14 0 7 -7 18 -15 25 -8 7 -12 16 -9 21 3 5 -3 12 -13 16 -10 4 -24 13 -32
20 -7 8 -16 11 -20 8 -3 -4 2 -13 12 -20 10 -7 18 -16 18 -19 -2 -18 0 -19 9
-6 8 12 10 11 10 -6 0 -12 -7 -24 -15 -28 -10 -3 -15 1 -15 11 0 9 -3 13 -7
10 -6 -7 11 -49 33 -77 6 -8 14 -28 18 -43 4 -15 10 -25 15 -22 13 7 21 -19
14 -46 -4 -14 -2 -20 4 -16 6 4 13 20 16 36 5 24 10 28 27 24 11 -3 20 -12 20
-19 0 -20 20 -17 22 4 0 9 2 22 3 27 2 6 3 14 4 19 1 5 7 5 14 0 7 -5 4 -1 -6
8 -11 10 -17 24 -14 31 3 8 -3 14 -15 14 -16 2 -17 -1 -7 -13 14 -17 20 -74 7
-74 -4 0 -9 10 -9 23 -1 16 -2 18 -6 5 -9 -35 -21 -17 -18 25 2 23 4 44 6 47
3 7 7 23 8 39 1 7 7 11 16 7 9 -3 15 0 15 9 0 10 -6 12 -17 8 -16 -6 -16 -5
-4 10 7 9 17 15 21 12 9 -6 23 25 15 33 -3 3 -5 0 -5 -6 0 -7 -4 -12 -10 -12
-5 0 -7 7 -4 15 4 8 3 15 0 15 -4 0 -11 -12 -17 -27z m-77 -95 c7 -13 11 -29
10 -35 -2 -7 3 -10 11 -7 20 7 28 -31 11 -53 -12 -16 -13 -15 -8 12 4 27 3 28
-10 13 -21 -28 -27 -21 -21 21 4 27 1 42 -10 51 -9 8 -15 8 -15 2 0 -6 5 -14
10 -17 13 -8 13 -25 1 -25 -12 0 -24 37 -16 50 10 16 23 12 37 -12z"/>
<path d="M1590 2473 c0 -14 -2 -15 -9 -5 -6 10 -10 7 -15 -13 -5 -18 -12 -25
-21 -21 -18 6 -21 -29 -4 -40 6 -3 9 -14 6 -24 -2 -10 -1 -24 4 -31 6 -9 9 3
9 34 0 38 5 53 25 73 14 14 23 30 20 35 -9 14 -15 11 -15 -8z"/>
<path d="M1390 2465 c7 -8 22 -15 33 -15 20 0 20 0 1 15 -27 20 -51 20 -34 0z"/>
<path d="M927 2463 c-10 -9 -9 -23 1 -23 5 0 9 7 9 15 0 17 -1 18 -10 8z"/>
<path d="M1046 2454 c-11 -29 -6 -33 24 -16 16 9 30 20 30 25 0 14 -48 7 -54
-9z"/>
<path d="M1158 2449 c27 -31 28 -43 3 -30 -16 9 -18 8 -14 -10 3 -11 9 -16 12
-10 4 5 12 6 20 2 18 -12 21 -91 4 -119 -8 -13 -12 -29 -10 -35 3 -7 12 6 22
27 26 60 14 135 -28 172 -27 24 -28 25 -9 3z"/>
<path d="M960 2449 c0 -5 5 -7 10 -4 6 3 10 8 10 11 0 2 -4 4 -10 4 -5 0 -10
-5 -10 -11z"/>
<path d="M1760 2420 c-16 -30 4 -60 41 -60 36 0 60 39 39 65 -18 22 -67 19
-80 -5z m69 -8 c13 -25 -1 -44 -30 -40 -41 5 -34 57 8 58 7 0 17 -8 22 -18z"/>
<path d="M1793 2413 c-18 -6 -16 -33 1 -33 19 0 31 19 20 30 -5 4 -15 5 -21 3z"/>
<path d="M1000 2420 c-8 -5 -12 -12 -9 -15 4 -3 12 1 19 10 14 17 11 19 -10 5z"/>
<path d="M1699 2424 c-9 -17 -4 -47 9 -51 13 -5 15 12 3 41 -4 11 -10 15 -12
10z"/>
<path d="M1863 2408 c4 -12 1 -28 -5 -35 -6 -7 -6 -13 -1 -13 5 0 16 11 23 25
7 14 19 25 27 25 27 0 12 15 -18 17 -27 2 -30 0 -26 -19z m27 8 c0 -3 -4 -8
-10 -11 -5 -3 -10 -1 -10 4 0 6 5 11 10 11 6 0 10 -2 10 -4z"/>
<path d="M1266 2403 c-7 -23 2 -75 15 -88 7 -6 7 0 0 18 -6 15 -7 27 -2 27 9
0 33 -72 36 -112 2 -15 -1 -26 -5 -23 -5 3 -5 -5 -2 -17 5 -19 7 -20 10 -5 7
33 23 17 17 -17 -5 -22 -3 -36 6 -42 9 -5 8 -9 -7 -15 -14 -6 -15 -8 -3 -8 8
-1 24 6 35 15 10 8 14 13 7 10 -17 -9 -28 14 -24 51 2 23 -2 35 -13 39 -12 5
-13 11 -6 24 6 12 7 21 0 25 -5 3 -6 13 -3 23 3 9 3 14 -2 10 -10 -9 -45 60
-39 77 3 7 1 16 -5 19 -5 4 -12 -2 -15 -11z"/>
<path d="M1920 2395 c-7 -13 -17 -22 -21 -19 -4 2 -10 0 -14 -6 -7 -11 18 -13
52 -4 13 4 20 10 17 15 -3 5 0 9 6 9 7 0 5 6 -4 15 -19 20 -20 19 -36 -10z"/>
<path d="M1323 2385 c7 -13 14 -20 15 -14 5 14 -6 39 -17 39 -5 0 -4 -11 2
-25z"/>
<path d="M1036 2381 c-24 -26 -17 -54 18 -66 25 -9 31 -6 52 20 13 17 24 35
24 40 0 6 -5 3 -10 -5 -8 -13 -10 -13 -10 1 0 32 -49 38 -74 10z m58 -10 c16
-17 16 -20 0 -35 -32 -33 -73 4 -44 39 16 20 23 19 44 -4z"/>
<path d="M1063 2363 c-20 -8 -15 -23 7 -23 11 0 20 7 20 15 0 15 -6 17 -27 8z"/>
<path d="M986 2374 c-3 -8 -11 -12 -17 -9 -7 5 -9 -1 -7 -16 2 -17 10 -25 28
-27 18 -2 21 0 11 6 -9 7 -11 19 -7 36 7 28 2 35 -8 10z"/>
<path d="M1140 2358 c0 -16 5 -28 10 -28 13 0 13 20 0 40 -8 12 -10 9 -10 -12z"/>
<path d="M1172 2352 c-3 -50 -29 -92 -69 -108 -19 -9 -32 -18 -29 -21 11 -12
75 31 91 62 10 18 15 44 12 65 l-4 35 -1 -33z"/>
<path d="M891 2347 c-6 -8 -8 -17 -4 -20 7 -8 33 11 33 24 0 13 -16 11 -29 -4z"/>
<path d="M926 2344 c-7 -19 2 -37 15 -29 12 8 12 45 0 45 -5 0 -12 -7 -15 -16z"/>
<path d="M1745 2350 c3 -5 8 -10 11 -10 2 0 4 5 4 10 0 6 -5 10 -11 10 -5 0
-7 -4 -4 -10z"/>
<path d="M1915 2335 c-24 -29 -29 -30 -49 -9 -9 8 -16 11 -16 5 0 -6 9 -15 20
-21 16 -9 27 -7 50 10 17 12 30 26 30 31 0 16 -14 9 -35 -16z"/>
<path d="M1802 2329 c-13 -5 -20 -13 -17 -19 3 -5 1 -10 -5 -10 -6 0 -8 -5 -5
-10 4 -6 25 -8 47 -6 46 6 62 15 30 17 -34 2 -40 4 -48 12 -4 4 0 7 9 7 10 0
17 5 17 10 0 6 -1 10 -2 9 -2 0 -13 -4 -26 -10z"/>
<path d="M1350 2320 c0 -5 7 -10 16 -10 8 0 12 5 9 10 -3 6 -10 10 -16 10 -5
0 -9 -4 -9 -10z"/>
<path d="M1726 2315 c4 -8 8 -15 10 -15 2 0 4 7 4 15 0 8 -4 15 -10 15 -5 0
-7 -7 -4 -15z"/>
<path d="M895 2310 c-3 -5 1 -10 9 -10 9 0 16 5 16 10 0 6 -4 10 -9 10 -6 0
-13 -4 -16 -10z"/>
<path d="M1134 2305 c-4 -8 -10 -12 -15 -9 -5 3 -8 0 -7 -8 2 -8 -5 -12 -19
-11 -13 2 -23 -3 -24 -10 0 -6 -4 -3 -9 8 -5 11 -9 14 -9 8 -1 -7 -9 -13 -18
-13 -26 0 -2 -20 27 -22 31 -2 76 26 83 52 6 23 -1 27 -9 5z"/>
<path d="M1000 2288 c0 -17 2 -18 15 -8 8 7 15 14 15 15 0 2 -7 5 -15 9 -10 4
-15 -1 -15 -16z"/>
<path d="M1260 2294 c0 -8 5 -12 10 -9 6 4 8 11 5 16 -9 14 -15 11 -15 -7z"/>
<path d="M906 2282 c-4 -7 -2 -12 5 -12 7 0 9 -3 6 -6 -13 -13 16 -46 56 -65
23 -10 62 -18 87 -18 25 1 36 4 26 6 -15 4 -16 7 -5 14 11 7 9 9 -6 9 -12 0
-26 -5 -33 -12 -9 -9 -23 -6 -60 11 -41 19 -49 27 -46 47 1 13 -1 22 -6 19 -5
-3 -10 0 -12 7 -3 9 -6 9 -12 0z"/>
<path d="M950 2288 c0 -3 6 -18 14 -32 10 -20 15 -23 19 -12 3 8 -3 22 -14 32
-10 9 -19 15 -19 12z"/>
<path d="M1360 2263 c0 -5 5 -15 10 -23 8 -12 10 -11 10 8 0 12 -4 22 -10 22
-5 0 -10 -3 -10 -7z"/>
<path d="M1400 2251 c0 -5 5 -13 10 -16 6 -3 10 -2 10 4 0 5 -4 13 -10 16 -5
3 -10 2 -10 -4z"/>
<path d="M1530 2246 c0 -9 -4 -16 -10 -16 -5 0 -10 -4 -10 -10 0 -13 27 -1 34
15 3 8 1 17 -4 20 -6 4 -10 -1 -10 -9z"/>
<path d="M1561 2241 c0 -13 -9 -30 -18 -37 -23 -16 -14 -24 12 -10 16 9 19 17
14 41 -6 26 -7 26 -8 6z"/>
<path d="M1000 2246 c0 -2 7 -7 16 -10 8 -3 12 -2 9 4 -6 10 -25 14 -25 6z"/>
<path d="M1045 2230 c-3 -5 -1 -10 4 -10 6 0 11 5 11 10 0 6 -2 10 -4 10 -3 0
-8 -4 -11 -10z"/>
<path d="M1263 2233 c-19 -7 -15 -24 5 -21 12 2 16 -3 14 -17 -3 -14 0 -17 7
-10 6 6 8 20 5 33 -6 23 -10 24 -31 15z"/>
<path d="M1456 2224 c-5 -12 -2 -15 10 -10 8 3 21 6 27 6 7 0 6 4 -3 10 -21
14 -27 12 -34 -6z"/>
<path d="M1680 2201 c0 -5 7 -14 15 -21 8 -7 13 -16 10 -19 -2 -4 2 -8 10 -8
21 0 18 10 -10 35 -14 12 -25 18 -25 13z"/>
<path d="M940 2190 c0 -5 5 -10 11 -10 5 0 7 5 4 10 -3 6 -8 10 -11 10 -2 0
-4 -4 -4 -10z"/>
<path d="M1433 2185 c-9 -24 1 -27 15 -5 8 13 8 20 2 20 -6 0 -13 -7 -17 -15z"/>
<path d="M1470 2183 c0 -12 -4 -23 -10 -25 -6 -2 -6 -8 0 -18 8 -13 10 -12 10
3 0 9 7 17 15 17 8 0 15 -4 15 -9 0 -4 11 -6 25 -3 14 2 25 8 25 12 0 5 -9 6
-20 3 -12 -3 -20 -2 -19 3 3 20 -2 34 -12 34 -8 0 -8 -5 1 -15 8 -10 9 -15 2
-15 -6 0 -16 8 -21 18 -9 15 -10 15 -11 -5z"/>
<path d="M1908 2186 c-24 -18 -23 -25 2 -19 11 3 20 12 20 19 0 17 0 17 -22 0z"/>
<path d="M1206 2175 c-3 -9 -6 -26 -7 -38 0 -21 -1 -21 -9 -2 -7 17 -9 18 -9
2 -1 -24 43 -44 63 -28 8 6 16 8 18 4 3 -4 4 -3 2 3 -1 6 3 17 9 23 8 8 8 14
-2 24 -10 10 -11 8 -5 -6 5 -13 1 -20 -15 -24 -11 -3 -21 -10 -21 -17 0 -18
-20 17 -20 37 0 9 5 16 11 15 6 -2 13 3 15 10 1 8 0 8 -3 1 -4 -8 -7 -8 -13 1
-5 8 -9 7 -14 -5z"/>
<path d="M1560 2180 c0 -5 5 -10 11 -10 5 0 7 5 4 10 -3 6 -8 10 -11 10 -2 0
-4 -4 -4 -10z"/>
<path d="M1673 2146 c3 -8 -1 -22 -8 -33 -11 -13 -14 -14 -15 -4 0 8 -2 12 -5
10 -2 -3 0 -18 4 -35 7 -21 10 -23 10 -9 2 25 27 59 35 47 3 -5 2 -19 -1 -31
-4 -17 -8 -19 -14 -9 -6 9 -9 6 -9 -10 0 -13 4 -20 10 -17 6 4 7 -6 4 -25 -6
-29 0 -36 29 -31 10 1 9 -4 -5 -34 -6 -14 -15 -25 -20 -25 -6 0 -8 -6 -6 -12
3 -7 -2 -20 -10 -28 -12 -11 -16 -12 -20 -2 -2 7 -8 10 -13 6 -5 -3 -9 0 -9 5
0 10 14 15 33 12 5 -1 6 3 2 9 -4 6 4 19 17 29 13 11 19 23 15 28 -8 7 -26
-11 -47 -47 -5 -8 -11 -12 -14 -9 -4 3 3 18 15 33 25 32 20 45 -6 16 -10 -11
-19 -34 -21 -53 -4 -29 0 -34 29 -47 32 -14 32 -14 -48 -20 l-80 -6 105 -2
c106 -2 154 4 145 18 -2 4 -25 6 -50 5 -25 -2 -48 1 -51 6 -3 5 0 9 6 9 6 0
22 11 36 25 14 14 30 25 37 25 8 -1 7 -5 -3 -13 -8 -7 -16 -21 -18 -32 -2 -17
1 -15 19 8 21 27 49 37 49 16 0 -5 -4 -8 -9 -4 -18 10 -16 -30 3 -68 14 -28
21 -35 27 -25 6 9 9 4 9 -14 0 -16 -5 -28 -11 -28 -7 0 -6 -8 3 -22 18 -28 13
-48 -12 -48 -25 0 -35 -17 -20 -35 6 -8 9 -19 6 -24 -9 -14 29 -32 51 -24 31
11 82 54 88 74 4 12 15 19 30 19 13 0 31 10 39 22 14 20 14 25 1 45 -20 29
-19 31 10 31 36 0 145 25 145 33 0 4 7 10 16 13 8 3 12 2 9 -4 -3 -6 1 -10 9
-10 9 0 16 5 16 11 0 6 9 8 21 4 13 -4 25 -2 29 5 4 6 30 13 58 13 27 1 45 5
39 9 -10 6 38 13 178 23 91 7 125 14 125 25 0 17 -235 -14 -472 -61 -109 -21
-200 -39 -202 -39 -2 0 -6 -14 -10 -30 -3 -17 -12 -33 -21 -35 -8 -3 -22 -7
-30 -10 -11 -3 -13 -10 -6 -29 8 -19 5 -28 -13 -45 -18 -17 -25 -18 -36 -8
-11 9 -11 8 0 -7 14 -18 13 -19 -2 -13 -11 4 -18 2 -18 -6 -1 -7 -6 -5 -14 5
-7 10 -16 15 -19 11 -4 -3 -7 -1 -7 5 0 6 8 13 18 16 11 4 18 17 19 38 4 65
10 83 28 87 16 3 17 -3 13 -43 -4 -31 -2 -46 6 -46 7 0 12 12 11 28 0 24 3 27
29 24 25 -3 28 -1 23 17 -2 11 0 22 6 24 6 2 3 6 -7 10 -15 6 -17 3 -13 -13 6
-22 -8 -28 -16 -7 -4 10 -6 10 -6 0 -1 -7 -6 -13 -12 -13 -7 0 -9 11 -6 29 7
31 -10 46 -38 35 -11 -5 -13 -10 -5 -19 8 -10 8 -15 -1 -21 -6 -4 -16 0 -21
10 -5 9 -12 14 -16 12 -4 -3 -9 3 -10 12 -7 58 -6 78 3 84 6 5 5 8 -2 8 -7 0
-13 5 -13 11 0 7 12 9 36 4 26 -4 39 -2 45 7 12 18 11 30 -1 23 -5 -3 -10 1
-10 9 0 9 -4 16 -10 16 -5 0 -10 8 -10 18 0 18 -31 62 -44 62 -3 0 -6 -11 -6
-25 0 -14 -5 -25 -11 -25 -8 0 -9 11 -5 32 4 22 1 37 -10 50 -21 22 -36 24
-28 3 4 -8 12 -15 20 -15 8 0 14 -7 14 -16 0 -8 -4 -13 -9 -9 -6 3 -6 -6 -1
-24 4 -16 5 -45 0 -65 -6 -26 -4 -36 6 -40 19 -7 18 -26 -1 -26 -8 0 -15 4
-15 8 0 5 -7 9 -15 9 -8 0 -15 -4 -15 -9 0 -4 -4 -8 -10 -8 -6 0 -5 10 2 25 6
13 15 22 21 18 5 -3 6 3 2 16 -4 12 -2 21 4 21 6 0 11 10 11 23 0 16 -3 18 -9
9 -7 -11 -10 -10 -15 3 -9 25 -7 37 5 29 8 -4 9 1 4 17 -8 26 -28 44 -33 29
-2 -5 -9 -4 -17 3 -7 7 -11 15 -8 20 2 4 -1 7 -7 7 -7 0 -10 -6 -7 -14z m52
-48 c-6 -28 -25 -48 -25 -26 0 23 11 48 20 48 5 0 7 -10 5 -22z m106 -35 c0
-5 2 -19 5 -33 3 -18 2 -21 -5 -10 -5 8 -7 18 -4 24 3 5 1 6 -5 2 -16 -10 3
-46 23 -46 8 0 15 -6 15 -14 0 -9 -8 -12 -25 -8 -14 2 -22 9 -19 16 3 6 -1 3
-9 -6 -8 -10 -17 -18 -21 -18 -8 0 2 48 16 78 11 21 27 30 29 15z m-104 -50
c-3 -3 -13 -3 -21 -1 -15 3 -15 6 1 28 l18 25 3 -23 c2 -13 1 -26 -1 -29z
m-17 -83 c0 -5 -5 -10 -11 -10 -5 0 -7 5 -4 10 3 6 8 10 11 10 2 0 4 -4 4 -10z
m180 -86 c0 -8 -5 -12 -10 -9 -6 4 -8 11 -5 16 9 14 15 11 15 -7z m110 -73 c0
-16 -51 -32 -68 -21 -14 8 -12 9 11 10 15 0 30 7 33 15 6 15 24 12 24 -4z"/>
<path d="M1288 2108 c2 -10 12 -18 21 -17 9 0 11 3 4 5 -7 3 -10 11 -7 18 3 7
-1 13 -9 13 -9 0 -12 -7 -9 -19z"/>
<path d="M1384 2113 c2 -9 8 -19 15 -21 10 -3 10 0 2 17 -14 25 -20 27 -17 4z"/>
<path d="M1426 2114 c-5 -13 -4 -14 7 -6 8 7 18 8 22 4 5 -4 5 -1 1 6 -10 17
-23 15 -30 -4z"/>
<path d="M1494 2124 c-5 -2 -9 -17 -8 -33 1 -23 -2 -29 -20 -29 -101 1 -196
-6 -196 -14 0 -7 36 -8 103 -3 133 9 197 0 190 -25 -3 -10 -11 -21 -19 -24 -8
-3 -14 -11 -14 -17 0 -7 8 -5 20 6 11 10 20 25 20 33 0 11 8 13 35 9 26 -4 35
-2 35 9 0 8 0 17 1 21 0 4 -5 9 -12 12 -6 2 -9 -1 -5 -7 3 -5 -1 -12 -9 -15
-8 -4 -16 2 -20 14 -4 10 -11 17 -16 13 -5 -3 -7 -9 -5 -12 2 -4 -13 -6 -34
-4 -38 4 -39 5 -36 38 1 19 2 34 2 33 -1 0 -6 -3 -12 -5z"/>
<path d="M1008 2113 c6 -2 18 -2 25 0 6 3 1 5 -13 5 -14 0 -19 -2 -12 -5z"/>
<path d="M1159 2102 c7 -13 22 -33 33 -44 l21 -21 -23 -9 c-13 -5 -24 -7 -25
-6 -1 2 -7 19 -13 38 -9 28 -11 29 -8 8 2 -15 -2 -29 -8 -32 -7 -3 -6 -5 2 -5
7 -1 10 -5 7 -11 -3 -6 5 -10 19 -10 14 0 30 -8 36 -17 9 -16 10 -15 5 5 -5
16 -2 22 9 22 14 0 14 3 4 22 -7 12 -26 35 -42 52 -23 25 -26 26 -17 8z"/>
<path d="M910 2089 c0 -5 5 -7 10 -4 6 3 10 8 10 11 0 2 -4 4 -10 4 -5 0 -10
-5 -10 -11z"/>
<path d="M1525 2089 c-4 -6 -5 -12 -2 -15 2 -3 7 2 10 11 7 17 1 20 -8 4z"/>
<path d="M1110 2075 c0 -8 4 -15 10 -15 5 0 7 7 4 15 -4 8 -8 15 -10 15 -2 0
-4 -7 -4 -15z"/>
<path d="M1230 2083 c0 -5 6 -15 13 -22 10 -12 8 -13 -8 -7 -20 6 -20 6 0 -9
18 -14 20 -14 23 -1 2 9 -4 23 -12 32 -9 8 -16 12 -16 7z"/>
<path d="M1090 2062 c0 -12 -4 -22 -10 -22 -5 0 -10 5 -10 12 0 6 -3 9 -6 5
-3 -3 -2 -12 2 -19 5 -7 9 -16 9 -20 0 -3 3 -10 8 -14 6 -7 11 9 8 29 0 4 3 7
8 7 5 0 11 -10 13 -22 2 -13 6 -18 9 -13 4 6 -2 26 -12 45 -16 29 -19 31 -19
12z"/>
<path d="M1028 2063 c7 -3 16 -2 19 1 4 3 -2 6 -13 5 -11 0 -14 -3 -6 -6z"/>
<path d="M920 2051 c0 -5 5 -13 10 -16 6 -3 10 -2 10 4 0 5 -4 13 -10 16 -5 3
-10 2 -10 -4z"/>
<path d="M986 2044 c-5 -13 -9 -14 -21 -4 -19 16 -20 3 -1 -16 17 -16 46 -19
46 -3 0 5 -5 7 -11 3 -8 -4 -9 0 -4 15 7 24 0 29 -9 5z"/>
<path d="M1170 2050 c0 -5 5 -10 11 -10 5 0 7 5 4 10 -3 6 -8 10 -11 10 -2 0
-4 -4 -4 -10z"/>
<path d="M2670 2057 c0 -2 8 -14 19 -25 17 -21 27 -22 165 -22 95 0 146 4 146
10 0 8 -41 9 -125 5 -69 -3 -125 -1 -125 3 0 4 -15 13 -33 20 -34 12 -47 15
-47 9z"/>
<path d="M1020 2040 c0 -6 7 -10 15 -10 8 0 15 2 15 4 0 2 -7 6 -15 10 -8 3
-15 1 -15 -4z"/>
<path d="M1650 2029 c0 -11 5 -17 10 -14 6 3 10 13 10 21 0 8 -4 14 -10 14 -5
0 -10 -9 -10 -21z"/>
<path d="M1435 2021 c-3 -6 -11 -9 -16 -5 -6 3 -13 -3 -16 -15 -5 -19 -15 -25
-35 -22 -5 0 -8 -3 -8 -9 0 -13 27 -13 35 0 3 5 11 7 19 4 7 -3 18 7 25 22 12
26 9 45 -4 25z m-5 -25 c0 -3 -4 -8 -10 -11 -5 -3 -10 -1 -10 4 0 6 5 11 10
11 6 0 10 -2 10 -4z"/>
<path d="M1474 2015 c-12 -9 -14 -14 -6 -15 7 0 10 -5 6 -11 -4 -8 1 -9 16 -4
19 6 21 4 15 -15 -5 -15 -4 -20 4 -16 6 4 10 18 9 31 -2 20 -7 24 -23 19 -20
-5 -20 -5 -1 10 25 20 6 21 -20 1z"/>
<path d="M1020 2009 c0 -5 5 -7 10 -4 6 3 10 8 10 11 0 2 -4 4 -10 4 -5 0 -10
-5 -10 -11z"/>
<path d="M1345 2011 c6 -11 4 -13 -8 -8 -10 3 -17 2 -17 -3 0 -5 -8 -6 -17 -3
-15 6 -16 4 -5 -9 13 -16 47 -14 58 4 4 5 1 15 -6 21 -10 9 -11 9 -5 -2z"/>
<path d="M915 1999 c-9 -14 28 -49 54 -49 23 0 101 33 101 43 0 10 -33 1 -74
-20 -21 -11 -31 -12 -40 -3 -8 8 -7 14 4 21 12 9 11 10 -4 5 -11 -4 -23 -2
-26 5 -6 8 -10 8 -15 -2z"/>
<path d="M1375 2000 c-3 -5 -1 -10 4 -10 6 0 11 5 11 10 0 6 -2 10 -4 10 -3 0
-8 -4 -11 -10z"/>
<path d="M1573 1986 c-23 -22 -31 -42 -13 -31 6 3 10 1 10 -4 0 -6 4 -11 8
-11 5 0 9 7 9 15 0 8 -4 12 -9 9 -4 -3 -8 0 -8 5 0 6 2 11 4 11 2 0 12 3 21 7
14 5 16 2 11 -18 l-7 -24 20 25 c11 14 18 27 15 29 -13 13 -41 7 -61 -13z"/>
<path d="M2001 1994 c0 -11 3 -14 6 -6 3 7 2 16 -1 19 -3 4 -6 -2 -5 -13z"/>
<path d="M1254 1983 c3 -19 36 -32 36 -14 0 6 -7 8 -15 5 -11 -5 -13 -2 -9 10
3 9 2 16 -4 16 -6 0 -9 -8 -8 -17z"/>
<path d="M1114 1979 c-3 -6 -3 -13 0 -16 3 -4 6 -1 6 7 0 10 3 10 15 0 9 -7
17 -11 20 -9 2 3 -4 10 -15 17 -13 8 -21 8 -26 1z"/>
<path d="M1150 1986 c0 -2 7 -6 15 -10 8 -3 15 -1 15 4 0 6 -7 10 -15 10 -8 0
-15 -2 -15 -4z"/>
<path d="M2594 1981 c4 -5 0 -11 -6 -14 -7 -2 -1 -4 14 -4 23 0 25 2 13 13
-15 16 -29 19 -21 5z"/>
<path d="M2715 1980 c-3 -5 -3 -15 0 -20 8 -13 -14 -42 -25 -35 -4 3 -13 -1
-19 -9 -7 -8 -33 -14 -64 -15 -29 -1 -104 -12 -167 -26 -63 -13 -131 -26 -150
-29 -19 -2 -57 -8 -85 -14 -27 -6 -78 -17 -112 -24 -34 -7 -65 -17 -70 -21
-10 -11 75 0 142 18 28 8 75 17 105 21 30 3 62 8 70 10 8 2 32 8 52 13 20 5
39 6 42 3 3 -2 11 -1 18 4 7 6 27 11 43 13 17 2 35 7 41 12 7 6 18 1 30 -12
l18 -20 8 20 c8 22 38 29 38 10 0 -6 -7 -9 -15 -5 -18 7 -20 -5 -2 -23 10 -10
8 -15 -7 -27 -15 -10 -16 -14 -5 -14 8 0 21 6 28 13 6 6 15 12 19 12 4 1 29 4
55 9 38 6 54 4 74 -9 24 -16 26 -16 49 6 16 15 21 26 14 33 -27 27 -10 36 75
36 61 0 85 3 85 13 0 9 -29 12 -110 12 -60 0 -102 -3 -93 -6 12 -4 13 -8 4
-13 -6 -4 -18 -2 -26 4 -8 7 -15 9 -15 4 0 -5 -5 -2 -10 6 -9 13 -10 13 -10
-1 0 -19 -52 -79 -68 -79 -7 0 -12 6 -12 14 0 8 -6 17 -12 19 -8 3 -6 6 5 6 9
1 17 -3 17 -9 0 -5 5 -10 12 -10 6 0 8 3 5 6 -3 4 5 15 18 26 14 11 25 26 25
34 0 8 5 14 10 14 6 0 10 7 10 16 0 14 -3 14 -15 4 -13 -11 -14 -10 -9 4 7 17
-1 22 -11 6z m85 -107 l25 -13 -27 0 c-16 0 -28 4 -28 9 0 5 -9 7 -20 4 -19
-5 -27 7 -14 20 6 6 25 1 64 -20z"/>
<path d="M1081 1964 c0 -11 3 -14 6 -6 3 7 2 16 -1 19 -3 4 -6 -2 -5 -13z"/>
<path d="M2938 1973 c7 -3 16 -2 19 1 4 3 -2 6 -13 5 -11 0 -14 -3 -6 -6z"/>
<path d="M2978 1973 c7 -3 16 -2 19 1 4 3 -2 6 -13 5 -11 0 -14 -3 -6 -6z"/>
<path d="M877 1957 c-4 -10 23 -46 30 -39 2 1 9 2 16 2 8 0 7 -4 -3 -10 -10
-6 -11 -10 -2 -10 6 0 12 -7 12 -15 0 -20 16 -19 24 1 4 10 -6 28 -28 50 -38
38 -42 40 -49 21z"/>
<path d="M1470 1959 c0 -5 5 -7 10 -4 6 3 10 8 10 11 0 2 -4 4 -10 4 -5 0 -10
-5 -10 -11z"/>
<path d="M2873 1963 c9 -2 23 -2 30 0 6 3 -1 5 -18 5 -16 0 -22 -2 -12 -5z"/>
<path d="M1165 1950 c-3 -5 -1 -10 4 -10 6 0 11 5 11 10 0 6 -2 10 -4 10 -3 0
-8 -4 -11 -10z"/>
<path d="M1241 1944 c0 -11 3 -14 6 -6 3 7 2 16 -1 19 -3 4 -6 -2 -5 -13z"/>
<path d="M2458 1953 c6 -2 18 -2 25 0 6 3 1 5 -13 5 -14 0 -19 -2 -12 -5z"/>
<path d="M2830 1948 c0 -4 21 -8 48 -7 52 1 48 6 -10 11 -21 2 -38 0 -38 -4z"/>
<path d="M2948 1953 c12 -2 30 -2 40 0 9 3 -1 5 -23 4 -22 0 -30 -2 -17 -4z"/>
<path d="M1025 1940 c-3 -5 -1 -10 4 -10 6 0 11 5 11 10 0 6 -2 10 -4 10 -3 0
-8 -4 -11 -10z"/>
<path d="M1052 1930 c-7 -11 -12 -28 -11 -37 1 -13 3 -11 7 5 4 13 12 22 17
22 6 -1 9 -6 8 -11 -4 -12 14 -11 22 1 4 6 11 7 17 4 7 -4 8 -2 4 4 -4 7 -2
12 3 12 18 0 26 -5 23 -13 -1 -5 3 -5 9 -2 8 5 8 10 0 18 -17 17 -51 16 -51
-1 0 -13 -3 -13 -18 1 -16 15 -19 15 -30 -3z"/>
<path d="M1325 1935 c-28 -6 -56 -15 -63 -19 -7 -4 -30 -8 -53 -8 -25 0 -43
-6 -46 -14 -3 -8 -9 -11 -14 -8 -14 8 -10 -3 7 -20 14 -14 14 -16 0 -16 -8 0
-19 6 -23 13 -11 18 -41 28 -48 17 -4 -6 1 -10 9 -10 8 0 18 -5 22 -11 5 -9
-6 -10 -42 -4 -27 4 -56 9 -66 10 -9 0 -23 7 -31 13 -12 10 -16 9 -21 -4 -8
-21 -8 -22 7 -20 6 0 42 -5 80 -13 48 -11 67 -19 67 -30 0 -10 3 -12 8 -5 13
19 121 46 158 40 47 -9 33 -29 -16 -21 -29 5 -39 3 -43 -10 -5 -13 -3 -14 13
-5 11 6 21 6 24 1 4 -5 20 -6 39 -1 17 5 73 14 122 21 94 13 135 29 73 29 -20
0 -39 -4 -42 -9 -3 -4 -28 -11 -55 -14 -53 -6 -111 9 -111 30 0 14 44 28 59
18 7 -3 8 0 5 9 -5 12 1 16 27 17 48 2 135 -1 194 -6 45 -4 47 -3 23 7 -16 7
-28 15 -28 20 0 4 -7 4 -17 1 -12 -5 -14 -3 -8 7 5 9 4 11 -4 6 -26 -17 -71
-24 -77 -14 -5 7 -2 8 7 3 8 -5 11 -5 7 0 -12 13 -78 15 -78 2 0 -8 -3 -9 -8
-1 -5 8 -21 8 -57 -1z m-135 -45 c0 -5 -5 -10 -11 -10 -5 0 -7 5 -4 10 3 6 8
10 11 10 2 0 4 -4 4 -10z"/>
<path d="M1851 1923 c-1 -17 4 -35 9 -38 12 -7 12 22 0 50 -7 17 -9 15 -9 -12z"/>
<path d="M1595 1930 c-3 -5 -1 -10 4 -10 6 0 11 5 11 10 0 6 -2 10 -4 10 -3 0
-8 -4 -11 -10z"/>
<path d="M2248 1933 c7 -3 16 -2 19 1 4 3 -2 6 -13 5 -11 0 -14 -3 -6 -6z"/>
<path d="M2308 1923 c7 -3 16 -2 19 1 4 3 -2 6 -13 5 -11 0 -14 -3 -6 -6z"/>
<path d="M1911 1903 c0 -12 2 -14 6 -4 5 11 7 11 15 0 8 -12 9 -12 6 0 -6 22
-28 25 -27 4z"/>
<path d="M2103 1903 c9 -2 25 -2 35 0 9 3 1 5 -18 5 -19 0 -27 -2 -17 -5z"/>
<path d="M2168 1893 c7 -3 16 -2 19 1 4 3 -2 6 -13 5 -11 0 -14 -3 -6 -6z"/>
<path d="M2003 1883 c9 -2 23 -2 30 0 6 3 -1 5 -18 5 -16 0 -22 -2 -12 -5z"/>
<path d="M2080 1880 c-20 -6 -21 -8 -5 -8 11 0 31 4 45 8 20 6 21 8 5 8 -11 0
-31 -4 -45 -8z"/>
<path d="M1916 1872 c-2 -4 -1 -14 5 -22 6 -11 9 -12 9 -2 0 7 4 10 10 7 6 -3
7 1 4 9 -7 17 -20 21 -28 8z"/>
<path d="M1960 1872 c0 -19 26 -25 57 -13 27 10 27 11 -6 5 -23 -4 -36 -2 -42
7 -7 11 -9 11 -9 1z"/>
<path d="M1365 1860 c3 -5 8 -10 11 -10 2 0 4 5 4 10 0 6 -5 10 -11 10 -5 0
-7 -4 -4 -10z"/>
<path d="M2855 1840 c-3 -5 -1 -10 4 -10 6 0 11 5 11 10 0 6 -2 10 -4 10 -3 0
-8 -4 -11 -10z"/>
<path d="M1545 1830 c-144 -11 -215 -21 -215 -31 0 -9 45 -5 133 12 63 12 90
11 62 -2 -17 -8 -15 -8 8 -4 15 3 47 8 72 12 25 3 45 10 45 14 0 5 -1 8 -2 8
-2 -1 -48 -5 -103 -9z"/>
<path d="M2546 1821 c-9 -10 -30 -21 -46 -24 -33 -7 -53 -36 -39 -58 7 -11 9
-10 10 6 1 11 1 23 0 27 0 4 6 5 14 2 20 -8 74 15 71 29 -2 7 -1 9 1 5 9 -16
22 -7 20 12 -2 25 -9 25 -31 1z"/>
<path d="M1676 1822 c-2 -4 11 -6 30 -4 19 2 34 6 34 8 0 8 -59 4 -64 -4z"/>
<path d="M2746 1821 c-3 -5 8 -35 24 -66 16 -31 27 -61 24 -66 -3 -5 -1 -9 4
-9 6 0 8 -8 5 -18 -3 -12 2 -18 16 -19 25 -2 25 0 6 36 -8 16 -11 32 -7 35 3
4 1 10 -6 14 -6 5 -13 17 -15 28 -4 27 -44 77 -51 65z"/>
<path d="M1044 1812 c3 -5 -4 -19 -15 -30 -13 -14 -15 -22 -7 -22 7 0 2 -9
-12 -19 -17 -14 -36 -18 -62 -15 -22 2 -36 0 -34 -5 3 -5 -12 -13 -34 -19 -33
-8 -40 -7 -43 7 -4 15 -5 15 -6 0 -1 -19 -41 -34 -41 -16 0 8 -4 7 -9 -2 -5
-8 -28 -14 -61 -14 -30 -1 -45 -4 -34 -7 14 -5 9 -8 -18 -12 -28 -3 -38 0 -38
10 0 8 -6 12 -14 9 -8 -3 -17 -1 -20 6 -3 9 -7 8 -14 -2 -5 -7 -15 -10 -21 -7
-6 4 -11 3 -11 -3 0 -6 -7 -7 -17 -4 -12 5 -14 3 -9 -8 4 -8 1 -6 -7 4 -10 12
-16 14 -19 6 -3 -9 -9 -9 -27 1 -13 6 -21 8 -17 2 3 -5 -5 -12 -19 -14 -18 -4
-25 -1 -26 11 0 13 -1 14 -6 1 -3 -8 -12 -19 -19 -23 -16 -9 -19 -37 -4 -37 6
0 13 6 16 13 3 9 26 14 69 15 35 0 73 6 86 12 17 10 30 9 60 0 35 -12 57 -9
213 22 142 29 181 40 210 63 27 20 36 35 36 56 0 20 -5 29 -16 29 -8 0 -13 -4
-10 -8z m6 -42 c0 -5 -5 -10 -11 -10 -5 0 -7 5 -4 10 3 6 8 10 11 10 2 0 4 -4
4 -10z"/>
<path d="M1171 1806 c-6 -7 -7 -17 -3 -21 4 -5 1 -4 -7 0 -11 6 -13 4 -8 -9 4
-10 7 -21 7 -24 0 -4 5 0 10 8 8 13 10 12 10 -2 0 -10 5 -18 10 -18 6 0 10 -7
10 -16 0 -8 -4 -12 -10 -9 -14 9 -12 -9 2 -23 10 -10 10 -15 -1 -21 -9 -6 -10
-11 -2 -15 13 -8 26 18 16 34 -3 5 1 10 9 10 25 0 20 57 -8 91 -19 22 -26 26
-35 15z m49 -63 c0 -7 -2 -13 -5 -13 -6 0 -35 56 -35 67 1 13 40 -41 40 -54z"/>
<path d="M1668 1798 c-32 -6 -58 -13 -58 -17 0 -8 130 16 139 25 6 5 -11 4
-81 -8z"/>
<path d="M2630 1800 c-12 -8 -9 -10 13 -10 15 0 27 5 27 10 0 13 -20 13 -40 0z"/>
<path d="M2810 1801 c0 -7 6 -24 14 -39 44 -87 72 -212 54 -246 -6 -12 -7 -18
-3 -14 5 4 15 2 23 -4 12 -10 13 -3 7 57 -4 39 -15 95 -25 125 -11 31 -15 56
-9 58 19 7 8 23 -11 17 -15 -5 -20 -2 -20 13 0 11 -7 25 -15 32 -11 9 -15 9
-15 1z"/>
<path d="M1080 1789 c0 -5 5 -7 10 -4 6 3 10 8 10 11 0 2 -4 4 -10 4 -5 0 -10
-5 -10 -11z"/>
<path d="M1710 1779 c-144 -28 -288 -58 -314 -65 -16 -4 -26 -2 -26 5 0 6 8
11 18 11 9 0 24 5 32 10 11 8 8 9 -12 4 -14 -3 -35 -1 -46 5 -14 7 -23 8 -27
1 -9 -15 -25 -12 -25 5 0 8 7 15 16 15 8 0 12 5 9 10 -3 6 -21 10 -39 10 -31
0 -32 -2 -28 -30 2 -17 13 -36 23 -43 16 -12 17 -16 4 -34 -8 -11 -13 -22 -10
-24 2 -2 -7 -9 -21 -16 -21 -10 -24 -9 -24 8 0 10 6 19 14 19 7 0 20 8 27 17
12 15 12 16 -3 10 -13 -4 -18 -1 -18 11 0 11 -6 6 -16 -13 -9 -16 -16 -40 -16
-52 1 -17 -2 -21 -15 -16 -12 5 -14 3 -9 -8 4 -8 0 -5 -8 5 -9 11 -16 14 -16
7 0 -6 -6 -11 -12 -9 -7 1 -31 -2 -53 -7 -54 -11 -57 -12 -82 -13 -18 -2 -21
-8 -20 -42 2 -36 4 -39 27 -33 29 6 56 23 87 52 l22 21 7 -22 c6 -21 7 -21 18
-2 11 19 12 19 28 2 17 -17 17 -18 -7 -24 -14 -3 -25 -10 -25 -16 0 -5 6 -6
13 -2 9 6 9 4 1 -7 -6 -8 -14 -21 -18 -29 -3 -8 -4 -5 -2 7 2 13 -1 26 -6 30
-7 3 -8 1 -4 -5 4 -7 2 -12 -4 -12 -6 0 -5 -11 5 -30 8 -16 15 -32 15 -35 0
-3 0 -8 0 -11 0 -4 6 -1 13 5 11 8 19 5 35 -13 17 -21 18 -25 5 -30 -21 -9
-23 -8 -17 8 7 18 -12 30 -22 15 -5 -8 -3 -9 6 -4 10 6 12 4 7 -8 -3 -8 1 -21
9 -27 10 -9 14 -9 14 -1 0 6 4 11 8 11 5 0 7 -13 4 -30 -2 -16 -9 -30 -14 -30
-5 0 -6 5 -2 12 4 7 3 8 -4 4 -7 -4 -12 -14 -12 -22 0 -8 -5 -14 -12 -14 -6 0
-8 -3 -5 -6 4 -4 14 -1 23 7 14 11 18 11 30 -6 8 -10 14 -13 14 -7 0 7 10 12
23 13 21 0 21 1 2 9 -17 7 -17 9 -2 9 9 1 17 6 17 12 0 5 -4 7 -10 4 -5 -3
-10 -1 -10 4 0 23 38 11 44 -14 4 -16 11 -22 21 -18 14 5 14 7 0 17 -23 17
-15 97 10 107 14 5 15 8 4 8 -8 1 -20 -4 -26 -10 -5 -5 -21 -7 -34 -4 -29 7
-34 42 -7 50 10 3 27 8 38 11 15 4 18 2 14 -11 -4 -9 -12 -14 -20 -11 -7 3
-18 -1 -24 -9 -18 -22 8 -30 32 -8 11 10 22 16 23 13 2 -3 7 -1 12 4 5 5 3 6
-5 2 -8 -5 -13 -3 -11 5 3 27 -1 40 -11 34 -17 -10 -11 7 8 22 9 8 11 11 3 7
-7 -3 -17 0 -22 7 -6 9 -8 3 -5 -18 3 -28 0 -33 -18 -33 -17 0 -19 2 -6 11 12
8 11 9 -6 5 -18 -6 -20 -2 -20 31 0 41 12 59 36 58 8 0 18 4 23 10 4 6 10 5
16 -5 6 -9 6 -19 0 -26 -7 -8 -6 -15 3 -20 7 -4 10 -3 5 1 -4 5 1 18 10 29 10
12 14 18 9 14 -5 -4 -15 0 -22 10 -16 20 -18 46 -4 37 6 -3 10 1 10 10 0 9 5
13 10 10 6 -3 10 -2 10 4 0 5 13 8 29 6 16 -2 40 2 53 9 13 7 41 13 63 14 21
1 42 7 46 13 4 7 20 10 38 7 17 -2 32 0 34 5 1 5 23 9 47 9 24 -1 50 4 57 9 7
6 16 8 21 5 10 -6 50 20 42 26 -3 3 -43 -3 -90 -13z m-408 -28 c2 -17 1 -28
-4 -25 -8 5 -12 54 -4 54 2 0 6 -13 8 -29z m50 -43 c-9 -9 -15 -9 -24 0 -10
10 -10 15 2 22 9 6 19 5 24 0 7 -7 6 -14 -2 -22z m-32 -47 c0 -6 -4 -13 -10
-16 -5 -3 -10 1 -10 9 0 9 5 16 10 16 6 0 10 -4 10 -9z m-81 -76 c8 0 16 -6
19 -12 2 -7 -2 -13 -10 -13 -18 1 -49 26 -41 34 4 3 9 3 12 -1 3 -5 12 -8 20
-8z m-170 -6 c-12 -8 -11 -11 1 -19 12 -8 11 -10 -7 -10 -12 0 -25 5 -29 12
-4 7 -3 8 4 4 7 -4 12 -3 12 3 0 5 -6 11 -12 14 -7 2 0 4 16 4 20 0 24 -2 15
-8z m181 -49 c-9 -6 -6 -10 10 -15 19 -6 21 -9 8 -16 -9 -5 -14 -19 -13 -34 2
-16 -1 -23 -7 -19 -6 4 -8 2 -5 -3 4 -6 18 -10 33 -10 53 0 56 -46 3 -57 -17
-3 -28 -9 -25 -14 2 -4 0 -14 -5 -22 -7 -11 -9 -7 -7 15 2 17 10 36 18 43 13
10 12 11 -4 5 -12 -4 -17 -3 -13 4 4 5 -5 20 -18 33 -13 13 -22 27 -18 33 4 6
-2 8 -15 5 -12 -4 -22 -2 -22 3 0 5 12 9 26 9 15 0 23 4 19 10 -4 6 -1 9 5 8
7 -2 14 5 15 15 2 9 -1 17 -6 17 -5 0 -9 5 -9 10 0 7 7 7 21 -1 16 -8 18 -13
9 -19z m-45 -17 c-20 -20 -24 -16 -12 11 7 15 14 20 18 14 4 -6 1 -17 -6 -25z"/>
<path d="M1240 1499 c0 -5 5 -7 10 -4 6 3 10 8 10 11 0 2 -4 4 -10 4 -5 0 -10
-5 -10 -11z"/>
<path d="M1220 1468 c0 -4 7 -8 15 -8 8 0 15 4 15 8 0 5 -7 9 -15 9 -8 0 -15
-4 -15 -9z"/>
<path d="M2560 1780 l-25 -20 33 11 c17 6 32 15 32 20 0 14 -13 10 -40 -11z"/>
<path d="M1115 1780 c3 -5 3 -10 -2 -10 -4 -1 -21 -12 -38 -26 l-30 -26 46 7
c38 5 48 3 53 -11 4 -9 5 -18 4 -19 -2 -2 -39 -10 -83 -19 -52 -11 -81 -13
-83 -6 -5 15 -22 12 -22 -4 0 -17 -48 -27 -58 -12 -5 9 -20 9 -62 0 l-55 -13
54 6 c37 3 56 1 61 -7 6 -9 16 -10 41 -2 19 5 78 18 132 27 53 10 97 18 97 20
0 1 -9 19 -19 40 -10 22 -17 45 -14 52 3 7 -2 13 -12 13 -9 0 -13 -4 -10 -10z"/>
<path d="M1528 1783 c7 -3 16 -2 19 1 4 3 -2 6 -13 5 -11 0 -14 -3 -6 -6z"/>
<path d="M1540 1770 l-25 -8 25 0 c14 0 34 3 45 8 20 9 20 9 0 8 -11 0 -31 -4
-45 -8z"/>
<path d="M2620 1769 c-19 -3 -26 -7 -15 -8 17 -1 17 -3 -6 -15 -15 -8 -47 -12
-75 -10 -38 2 -45 0 -31 -8 11 -5 30 -8 43 -5 20 3 22 2 13 -10 -7 -7 -9 -16
-5 -20 3 -3 6 -1 6 5 0 6 7 9 16 5 10 -4 25 4 40 21 14 14 29 26 33 26 15 0
77 -29 63 -30 -12 0 -8 -40 7 -65 6 -11 7 -15 17 -59 5 -21 4 -27 -5 -22 -7 4
-11 0 -11 -11 0 -15 -2 -16 -10 -3 -8 13 -10 13 -10 -1 0 -19 -26 -33 -42 -22
-6 3 -9 2 -5 -3 3 -5 -6 -14 -19 -21 -18 -8 -24 -8 -24 0 0 8 -3 8 -8 2 -11
-16 -249 -88 -261 -80 -7 4 -10 1 -9 -7 2 -8 -7 -13 -24 -12 -15 0 -25 -4 -22
-8 8 -13 -44 -28 -82 -23 -19 2 -32 0 -29 -4 2 -5 -1 -9 -8 -8 -33 1 -47 -4
-47 -17 0 -9 -7 -12 -22 -9 -17 3 -19 2 -9 -5 10 -8 5 -13 -23 -23 -20 -7 -36
-16 -36 -20 0 -4 -13 -6 -30 -4 -16 2 -30 -1 -30 -6 0 -6 5 -7 10 -4 6 3 10 2
10 -4 0 -6 -11 -13 -25 -17 -14 -3 -25 -10 -25 -15 0 -5 -7 -6 -15 -3 -8 4
-12 11 -8 17 3 5 2 7 -3 4 -6 -3 -16 -2 -24 4 -12 7 -10 9 7 9 22 0 35 12 41
40 8 36 1 140 -10 140 -5 0 -8 6 -6 13 3 18 -34 97 -46 97 -6 0 -5 4 1 8 10 6
10 12 -3 28 -14 18 -15 18 -8 -5 5 -20 3 -23 -11 -18 -9 4 -19 7 -21 7 -3 0
-3 4 0 8 2 4 -5 9 -17 9 -20 2 -20 1 -4 -8 9 -6 15 -14 12 -20 -3 -5 2 -6 12
-3 16 5 16 4 -1 -10 -16 -13 -22 -13 -29 -3 -6 9 -7 8 -4 -3 2 -8 10 -14 16
-12 7 1 10 -2 6 -7 -4 -7 -14 -6 -30 1 -24 11 -24 12 -6 27 16 14 16 18 5 29
-12 11 -14 9 -14 -8 0 -11 -7 -23 -15 -26 -13 -5 -11 -11 10 -30 18 -16 21
-24 11 -24 -8 0 -18 -4 -21 -10 -4 -6 2 -7 17 -1 13 5 22 14 21 19 -1 5 7 7
19 4 14 -3 19 -1 14 6 -7 12 22 45 34 37 5 -3 12 -20 15 -38 4 -17 13 -44 20
-58 8 -14 17 -54 21 -89 6 -52 5 -62 -7 -55 -11 7 -12 6 -2 -7 13 -15 8 -28
-9 -28 -5 0 -6 5 -3 10 3 6 1 10 -4 10 -6 0 -11 -5 -11 -10 0 -6 -13 -4 -30 5
-16 9 -30 17 -30 19 0 8 35 0 42 -9 4 -6 8 -2 8 8 0 13 -5 17 -18 13 -14 -5
-18 0 -17 26 0 26 5 33 28 39 20 5 27 4 27 -7 0 -8 -7 -11 -17 -8 -10 3 -7 -1
6 -9 14 -8 19 -17 13 -21 -6 -3 -12 0 -15 6 -3 10 -8 10 -18 -1 -9 -9 -10 -11
-1 -7 7 5 16 -1 21 -16 8 -18 10 -19 10 -5 1 10 5 16 10 13 11 -7 3 55 -10 70
-5 6 -6 14 -2 18 4 4 -1 4 -11 0 -14 -5 -15 -9 -4 -15 9 -6 6 -9 -10 -9 -13 0
-21 4 -18 9 4 5 -4 7 -16 4 -20 -4 -21 -3 -5 7 9 6 27 13 39 15 11 3 23 7 27
10 3 4 -7 4 -22 1 -27 -5 -30 -1 -30 35 0 9 -6 16 -13 16 -7 0 -12 -5 -11 -11
1 -6 -4 -10 -11 -8 -8 1 -11 -2 -6 -9 5 -9 -2 -11 -27 -6 -19 3 -28 3 -21 0 6
-2 9 -10 5 -16 -3 -7 -2 -8 2 -4 5 4 15 -3 23 -15 l13 -23 -4 23 c-3 12 -2 20
3 17 4 -3 11 2 14 11 7 18 19 12 22 -11 1 -8 -4 -11 -13 -8 -11 4 -14 0 -11
-18 2 -17 8 -23 22 -21 17 3 18 1 7 -12 -7 -8 -10 -24 -6 -36 3 -11 2 -20 -2
-20 -5 0 -19 -18 -31 -40 l-21 -40 26 4 c14 3 23 2 19 -1 -3 -3 -2 -11 2 -17
5 -6 5 -22 1 -36 -4 -14 -7 -19 -8 -12 -1 15 -31 16 -31 1 0 -5 5 -7 10 -4 13
8 13 -5 0 -25 -8 -12 -10 -12 -10 5 0 15 -3 17 -9 7 -7 -11 -9 -10 -14 3 -4 9
-3 13 3 10 6 -3 10 -1 10 5 0 7 -7 10 -15 6 -8 -3 -15 -2 -15 3 0 11 -134 8
-143 -4 -6 -6 -10 -6 -14 3 -4 10 -8 10 -19 1 -8 -6 -14 -9 -14 -7 0 8 -152
-29 -225 -55 -76 -27 -117 -22 -108 13 6 22 -8 32 -27 19 -9 -5 -10 -9 -4 -9
7 0 11 -16 10 -40 -1 -46 1 -49 14 -17 8 21 9 21 21 -10 8 -18 19 -33 27 -33
10 0 10 4 -2 16 -22 21 -21 40 1 23 14 -12 16 -12 8 0 -6 11 -4 13 8 8 9 -3
35 0 57 8 22 8 40 12 40 8 0 -3 6 0 14 6 8 7 27 14 43 17 15 3 46 9 68 14 51
12 68 12 61 1 -3 -5 1 -14 10 -21 8 -7 13 -19 10 -27 -3 -7 -1 -13 4 -13 6 0
10 12 11 28 0 27 0 27 10 4 5 -13 7 -28 3 -33 -3 -5 0 -9 5 -9 6 0 11 4 11 8
0 4 8 8 18 9 93 6 143 20 162 42 9 10 81 50 180 98 52 25 109 56 125 69 45 34
117 51 150 36 14 -7 24 -8 21 -3 -13 20 50 46 260 106 123 35 234 88 234 112
0 8 -7 25 -16 39 -9 13 -21 45 -25 71 -14 74 -42 95 -109 82z m-752 -498 c26
-26 22 -54 -5 -49 -10 2 -17 -2 -15 -9 1 -7 -2 -13 -8 -13 -14 0 -12 11 5 34
8 11 15 25 15 30 0 6 -5 3 -11 -7 -6 -9 -15 -15 -21 -11 -7 4 -6 9 2 14 9 6 6
10 -9 15 -20 6 -28 25 -14 38 7 8 26 -6 61 -42z m-135 -75 c3 3 8 -4 12 -15 3
-12 11 -21 17 -21 6 0 8 -3 5 -6 -4 -4 -14 -1 -22 6 -13 11 -16 11 -13 -1 2
-8 -7 -15 -19 -17 -13 -2 -23 1 -23 7 0 6 8 12 18 12 15 1 15 2 -1 6 -12 3
-16 11 -13 21 5 13 2 12 -9 -3 -9 -11 -13 -25 -10 -33 2 -7 0 -10 -5 -7 -6 3
-13 -1 -16 -9 -3 -9 -10 -16 -15 -16 -4 0 -5 8 -2 18 6 14 4 15 -9 4 -13 -11
-17 -9 -22 14 -6 24 -8 25 -20 9 -13 -18 -30 -7 -18 11 10 15 70 25 77 14 4
-6 14 -4 27 4 14 10 27 12 38 6 10 -5 20 -7 23 -4z"/>
<path d="M1828 1283 c7 -3 16 -2 19 1 4 3 -2 6 -13 5 -11 0 -14 -3 -6 -6z"/>
<path d="M1865 1240 c-3 -5 -1 -10 4 -10 6 0 11 5 11 10 0 6 -2 10 -4 10 -3 0
-8 -4 -11 -10z"/>
<path d="M1615 1170 c-3 -5 -1 -10 4 -10 6 0 11 5 11 10 0 6 -2 10 -4 10 -3 0
-8 -4 -11 -10z"/>
<path d="M1463 1753 c9 -2 25 -2 35 0 9 3 1 5 -18 5 -19 0 -27 -2 -17 -5z"/>
<path d="M1765 1740 c-16 -4 -73 -15 -125 -24 -52 -10 -115 -22 -140 -27 -25
-5 -59 -11 -77 -14 -18 -3 -45 -10 -60 -16 l-28 -11 30 -15 c17 -9 40 -27 53
-42 21 -23 22 -23 12 -3 -6 12 -20 28 -30 35 -11 6 -20 16 -20 21 0 5 3 6 7 3
3 -4 12 -2 20 4 10 9 17 8 28 -1 12 -10 15 -10 15 4 0 9 5 16 11 16 5 0 7 -6
3 -12 -5 -9 -3 -9 9 1 9 7 28 11 42 9 13 -3 22 -1 19 3 -3 5 0 9 6 9 8 0 10
-9 5 -27 -9 -36 -9 -36 -45 -35 -25 1 -30 -3 -30 -22 0 -12 5 -27 11 -33 7 -7
4 -21 -10 -46 l-20 -35 27 14 c33 17 45 18 36 2 -5 -9 -2 -9 9 1 18 15 23 26
7 16 -17 -10 -11 4 9 24 11 11 22 17 25 15 3 -2 4 -1 1 3 -11 14 -37 12 -31
-3 3 -8 1 -14 -4 -14 -6 0 -10 9 -10 20 0 13 7 20 20 20 11 0 20 5 20 11 0 5
4 8 8 5 4 -2 8 6 8 20 0 13 -4 24 -8 24 -4 0 -8 10 -8 23 0 21 7 24 79 36 44
7 84 10 89 7 6 -3 13 0 16 6 3 7 3 3 1 -9 -3 -12 0 -25 6 -29 8 -4 9 -3 5 4
-8 13 23 52 41 52 7 0 13 5 13 10 0 11 -3 11 -45 0z m-208 -135 c-16 -17 -20
-11 -12 16 5 16 9 18 15 9 4 -7 3 -19 -3 -25z m-27 -7 c0 -5 -4 -8 -10 -8 -5
0 -10 -15 -10 -34 0 -23 -6 -36 -17 -41 -15 -5 -16 -4 -5 6 14 15 16 49 2 49
-5 0 -10 5 -10 11 0 5 5 7 10 4 6 -3 10 -2 10 4 0 5 -6 11 -12 14 -7 2 -1 4
14 3 16 0 28 -4 28 -8z"/>
<path d="M1030 1700 c0 -5 -10 -10 -22 -10 -12 0 -19 -3 -15 -6 9 -9 57 5 57
16 0 6 -4 10 -10 10 -5 0 -10 -4 -10 -10z"/>
<path d="M1093 1703 c9 -2 23 -2 30 0 6 3 -1 5 -18 5 -16 0 -22 -2 -12 -5z"/>
<path d="M2000 1700 c0 -5 5 -10 11 -10 5 0 7 5 4 10 -3 6 -8 10 -11 10 -2 0
-4 -4 -4 -10z"/>
<path d="M1620 1681 c0 -6 4 -12 10 -16 5 -3 7 -12 4 -19 -3 -7 3 -19 13 -27
16 -13 17 -12 4 4 -8 9 -11 20 -7 24 10 10 17 -3 20 -39 2 -26 7 -34 25 -36
17 -3 20 -7 11 -17 -8 -9 -6 -14 6 -19 9 -4 19 -4 22 -1 3 3 0 5 -6 5 -7 0
-12 5 -12 11 0 5 5 7 10 4 6 -3 10 -1 10 4 0 6 -5 11 -11 11 -5 0 -7 5 -4 10
3 6 -4 14 -16 18 -19 7 -20 10 -6 15 10 4 17 14 17 24 0 15 2 15 9 4 5 -8 7
-20 4 -28 -3 -7 -1 -13 4 -13 13 0 53 39 53 52 0 6 -9 1 -19 -11 -20 -23 -30
-18 -25 12 3 20 -4 24 -53 31 -18 2 -33 0 -33 -5 0 -5 -5 -9 -11 -9 -5 0 -7 5
-4 10 3 6 1 10 -4 10 -6 0 -11 -4 -11 -9z m80 -37 c0 -13 -5 -24 -11 -24 -6 0
-8 8 -4 19 3 11 1 22 -4 26 -7 4 -8 -1 -4 -12 6 -16 5 -16 -11 -4 -12 11 -14
16 -5 22 20 12 39 -1 39 -27z m3 -61 c-7 -2 -19 -2 -25 0 -7 3 -2 5 12 5 14 0
19 -2 13 -5z"/>
<path d="M920 1670 c-9 -6 -10 -10 -3 -10 6 0 15 5 18 10 8 12 4 12 -15 0z"/>
<path d="M1570 1667 c0 -5 6 -7 14 -4 9 4 12 -2 10 -19 -1 -15 3 -24 12 -24
11 0 12 5 6 18 -5 9 -7 22 -5 29 3 7 -4 11 -16 10 -12 -1 -21 -5 -21 -10z"/>
<path d="M1115 1654 c-11 -4 -108 -25 -370 -80 -101 -21 -175 -41 -181 -50
-10 -13 -12 -13 -18 2 -3 8 -6 26 -6 39 0 19 4 22 23 18 22 -5 22 -4 -3 15
-13 11 -29 18 -34 14 -6 -3 -21 -7 -35 -8 -34 -4 -47 -20 -22 -27 12 -3 21 -1
21 4 0 5 7 9 15 9 8 0 15 -4 15 -9 0 -5 3 -16 6 -25 3 -9 1 -16 -5 -16 -6 0
-12 10 -12 23 -1 18 -2 18 -6 4 -3 -10 -10 -16 -16 -14 -7 3 -13 -6 -13 -19
-2 -20 2 -22 26 -18 15 4 31 1 34 -5 10 -16 49 -14 43 2 -4 10 21 19 96 35 56
11 120 23 142 26 66 10 3 -9 -117 -34 -70 -15 -109 -28 -113 -38 -8 -22 0 -25
19 -7 8 9 21 15 28 13 7 -1 23 3 35 10 12 6 39 14 60 16 21 2 46 7 55 11 10 4
35 8 57 8 33 2 38 5 30 19 -7 14 -1 17 44 24 28 4 59 9 67 10 8 2 54 11 103
21 48 10 87 21 87 25 0 8 -37 10 -55 2z"/>
<path d="M1413 1640 c2 -8 12 -16 23 -17 13 -2 15 -1 4 4 -8 3 -19 11 -23 17
-6 7 -7 6 -4 -4z"/>
<path d="M1476 1642 c-3 -5 8 -6 25 -4 16 2 29 6 29 8 0 8 -49 4 -54 -4z"/>
<path d="M557 1633 c-4 -3 3 -17 14 -30 l22 -23 -24 -10 c-23 -9 -22 -10 6 -6
92 12 313 61 309 68 -4 5 -13 7 -22 3 -9 -3 -64 -15 -122 -26 -58 -11 -114
-22 -125 -25 -20 -6 -20 -6 0 9 11 8 41 17 68 21 26 4 47 11 47 16 0 5 -16 4
-36 -2 -21 -5 -48 -8 -60 -5 -13 2 -24 0 -24 -4 0 -5 -7 -9 -15 -9 -18 0 -20
16 -2 23 6 3 3 6 -9 6 -11 1 -24 -2 -27 -6z"/>
<path d="M2804 1627 c-3 -8 1 -28 9 -42 12 -23 15 -25 20 -11 4 10 3 15 -3 11
-6 -3 -10 0 -10 9 0 8 5 16 11 18 7 2 5 9 -5 17 -13 11 -17 11 -22 -2z"/>
<path d="M2848 1615 c2 -14 8 -23 12 -20 10 6 1 45 -10 45 -4 0 -5 -11 -2 -25z"/>
<path d="M425 1605 c-3 -8 -7 -22 -10 -30 -2 -8 0 -15 5 -15 6 0 13 -1 17 -2
3 -2 7 12 7 30 1 33 -11 44 -19 17z"/>
<path d="M294 1595 c-23 -7 -61 -11 -84 -10 -23 1 -37 -1 -30 -5 6 -4 -17 -12
-52 -19 -35 -7 -74 -15 -88 -18 -14 -4 -28 -6 -32 -5 -5 1 -8 -3 -8 -8 0 -15
22 -13 180 20 80 16 158 30 173 30 17 0 27 5 25 12 -6 17 -37 18 -84 3z"/>
<path d="M1371 1596 c-8 -10 -9 -16 -1 -21 7 -4 5 -11 -5 -21 -18 -18 -19 -30
-3 -40 8 -5 9 -2 5 10 -4 10 -1 19 7 22 8 3 13 18 12 35 -1 34 0 33 -15 15z"/>
<path d="M1590 1599 c0 -6 4 -8 9 -4 5 3 12 1 16 -5 3 -5 -1 -10 -9 -10 -16 0
-20 -10 -16 -43 1 -10 -3 -24 -8 -30 -7 -8 -5 -16 5 -26 12 -11 14 -10 11 5
-2 12 4 20 16 22 23 5 76 52 58 52 -7 0 -16 10 -21 21 -8 22 -61 37 -61 18z
m47 -11 c-2 -7 3 -19 12 -26 14 -11 14 -11 -3 -5 -13 4 -17 3 -12 -5 4 -7 2
-12 -4 -12 -6 0 -8 -4 -5 -10 3 -6 -1 -7 -10 -4 -13 5 -13 9 -3 22 11 14 10
15 -7 8 -16 -6 -15 -3 5 17 29 29 33 31 27 15z"/>
<path d="M1750 1591 c0 -7 -5 -9 -12 -5 -7 5 -8 3 -3 -5 5 -9 10 -10 18 -2 6
6 8 14 4 18 -4 3 -7 1 -7 -6z"/>
<path d="M905 1581 c-29 -7 -28 -7 13 -12 23 -2 47 0 53 6 6 6 8 1 5 -15 -2
-14 -5 -29 -5 -35 -1 -5 -6 -3 -11 5 -8 12 -10 10 -10 -11 0 -14 -3 -29 -7
-33 -10 -10 -10 -96 0 -96 5 0 6 -8 3 -18 -3 -9 -2 -32 3 -49 8 -28 7 -31 -14
-35 -13 -3 -30 -1 -38 3 -10 6 -17 4 -21 -7 -5 -13 -2 -15 13 -11 12 3 22 -1
25 -9 3 -8 11 -14 18 -13 10 0 10 2 1 6 -15 5 -17 23 -4 23 5 0 17 -7 25 -16
9 -8 28 -17 43 -18 19 -2 30 -11 34 -27 4 -13 7 -19 8 -13 1 6 12 12 26 12 19
0 23 -4 15 -13 -5 -6 -7 -14 -4 -18 10 -10 78 5 94 20 13 13 13 14 0 11 -10
-2 -15 5 -15 23 1 18 -4 25 -12 22 -7 -3 -19 -1 -26 4 -19 16 -47 23 -47 13 0
-5 10 -11 23 -13 13 -3 7 -5 -16 -6 l-37 -1 17 27 c12 18 13 24 4 19 -9 -6
-12 -5 -9 5 3 8 11 14 19 13 8 0 22 8 32 18 13 14 14 18 3 18 -9 0 -12 7 -9
20 3 11 0 27 -7 35 -11 13 -10 14 5 9 13 -5 16 -4 11 4 -4 7 -2 12 3 12 6 0
11 -7 11 -15 0 -8 4 -15 10 -15 6 0 5 10 -2 25 -9 19 -9 28 0 37 15 15 15 28
1 28 -5 0 -8 -4 -4 -9 3 -5 -4 -13 -16 -16 -17 -6 -19 -9 -8 -16 10 -6 5 -10
-19 -15 l-33 -7 19 -21 c23 -25 27 -80 6 -72 -8 3 -14 0 -14 -7 0 -8 -4 -7
-11 3 -9 13 -10 13 -6 -1 3 -9 -2 -27 -11 -40 -15 -22 -15 -23 1 -10 9 7 17 9
17 3 0 -9 -42 -42 -54 -42 -10 0 -37 101 -31 119 3 11 1 22 -5 26 -15 9 -3 80
21 125 28 51 25 66 -13 67 -18 0 -46 -2 -63 -6z m209 -334 c16 3 26 1 26 -6 0
-7 -5 -9 -10 -6 -6 4 -16 3 -23 -2 -7 -4 -19 -8 -27 -7 -8 1 -20 2 -26 3 -7 0
-14 7 -17 15 -5 11 0 13 22 6 16 -4 40 -6 55 -3z m31 -31 c18 -13 17 -13 -6
-13 -15 0 -26 5 -26 13 0 8 3 14 7 14 3 0 15 -6 25 -14z"/>
<path d="M1288 1563 c5 -21 7 -23 10 -9 2 10 0 22 -6 28 -6 6 -7 0 -4 -19z"/>
<path d="M1133 1549 c-2 -23 3 -25 10 -4 4 8 3 16 -1 19 -4 3 -9 -4 -9 -15z"/>
<path d="M2795 1560 c-3 -5 -1 -10 4 -10 6 0 11 5 11 10 0 6 -2 10 -4 10 -3 0
-8 -4 -11 -10z"/>
<path d="M2840 1564 c0 -5 4 -14 10 -20 6 -6 6 -15 0 -24 -9 -13 -11 -13 -21
0 -9 12 -10 10 -6 -8 5 -19 3 -21 -9 -11 -8 7 -14 7 -14 1 0 -16 33 -24 42
-10 28 42 30 50 14 66 -9 9 -16 12 -16 6z"/>
<path d="M278 1547 c-27 -6 -48 -14 -48 -18 0 -4 26 -1 58 7 66 15 102 18 102
6 0 -5 -42 -16 -92 -25 -148 -27 -180 -31 -225 -32 -24 0 -43 -3 -43 -7 0 -5
-7 -8 -15 -8 -8 0 -15 -5 -15 -11 0 -5 4 -8 9 -5 5 3 32 8 61 11 29 3 56 7 59
10 9 5 189 36 248 42 39 4 65 -9 43 -22 -5 -3 -10 -10 -10 -15 0 -5 11 1 24
13 24 22 24 52 0 43 -7 -3 -20 1 -28 9 -16 17 -58 17 -128 2z"/>
<path d="M1455 1550 c3 -5 11 -10 16 -10 6 0 7 5 4 10 -3 6 -11 10 -16 10 -6
0 -7 -4 -4 -10z"/>
<path d="M1840 1541 c0 -7 7 -19 15 -27 19 -20 19 -5 0 20 -9 11 -15 14 -15 7z"/>
<path d="M1100 1530 c0 -5 5 -10 11 -10 5 0 7 5 4 10 -3 6 -8 10 -11 10 -2 0
-4 -4 -4 -10z"/>
<path d="M1377 1520 c3 -11 7 -20 9 -20 2 0 4 9 4 20 0 11 -4 20 -9 20 -5 0
-7 -9 -4 -20z"/>
<path d="M1430 1529 c0 -5 5 -7 10 -4 6 3 10 8 10 11 0 2 -4 4 -10 4 -5 0 -10
-5 -10 -11z"/>
<path d="M1905 1530 c3 -5 8 -10 11 -10 2 0 4 5 4 10 0 6 -5 10 -11 10 -5 0
-7 -4 -4 -10z"/>
<path d="M147 1520 c-53 -10 -57 -19 -5 -13 43 6 91 23 58 22 -8 -1 -32 -5
-53 -9z"/>
<path d="M1550 1513 c0 -10 4 -14 8 -8 4 6 11 13 16 18 5 4 2 7 -7 7 -10 0
-17 -8 -17 -17z"/>
<path d="M1676 1518 c3 -5 12 -7 19 -4 7 2 16 -2 19 -10 3 -8 1 -12 -4 -9 -5
3 -18 1 -28 -4 -13 -7 -23 -6 -32 2 -12 10 -12 9 0 -6 7 -10 19 -16 26 -13 6
2 14 -5 17 -16 5 -19 27 -17 27 3 0 6 -4 8 -9 5 -5 -3 -12 1 -15 10 -4 12 -1
14 13 9 11 -3 22 -1 26 5 3 5 1 10 -5 10 -6 0 -8 5 -5 10 3 6 3 11 -2 11 -36
6 -52 5 -47 -3z"/>
<path d="M675 1510 c-3 -5 -3 -10 0 -10 4 0 0 -7 -9 -15 -8 -8 -19 -15 -25
-15 -6 0 -11 -4 -11 -9 0 -6 -13 -6 -32 0 -43 12 -80 3 -108 -26 -13 -14 -26
-23 -29 -21 -3 2 -5 -19 -4 -47 0 -29 -3 -59 -8 -67 -7 -10 -9 1 -5 35 l5 50
-13 -50 c-7 -27 -12 -72 -11 -100 l1 -50 49 2 c27 1 53 -3 56 -9 4 -7 14 -8
25 -3 18 8 18 8 -1 13 -11 2 -25 12 -32 21 -9 13 -14 14 -24 4 -7 -7 -22 -13
-33 -12 -12 0 -15 3 -8 6 9 3 7 10 -9 24 -15 13 -18 19 -8 19 8 0 20 -5 26
-11 8 -8 22 -5 49 9 57 29 152 54 203 54 25 0 51 4 58 10 12 9 91 7 123 -4 8
-2 12 -3 7 -1 -4 3 -5 8 -2 13 2 4 -7 8 -20 9 -14 1 -36 3 -49 4 -13 1 -22 5
-19 10 6 10 -1 9 -34 -4 -15 -6 -50 -12 -78 -13 -27 0 -53 -4 -56 -8 -3 -5
-20 -10 -39 -12 -19 -2 -36 -9 -38 -15 -2 -6 -8 -9 -12 -6 -5 3 -18 1 -30 -5
-11 -5 -29 -14 -39 -19 -10 -6 -22 -7 -25 -4 -9 9 -7 43 2 43 5 0 8 14 7 30
-1 17 2 33 7 36 4 3 8 10 8 15 0 6 -5 7 -11 3 -7 -4 -7 1 1 16 16 30 74 53
120 46 30 -4 43 0 68 21 18 14 29 30 25 36 -4 6 0 8 11 4 10 -4 15 -3 11 3 -8
13 -32 13 -40 0z"/>
<path d="M1431 1497 c-12 -13 -20 -30 -18 -38 2 -8 2 -11 0 -6 -3 4 -9 5 -14
2 -5 -4 -6 2 -2 12 4 13 0 11 -18 -7 -21 -22 -22 -27 -9 -37 22 -18 35 -16 19
3 -11 14 -10 16 11 12 21 -2 25 1 23 20 -2 13 0 21 5 18 4 -2 12 7 19 20 14
30 12 30 -16 1z"/>
<path d="M2739 1480 c-11 -30 -29 -41 -29 -17 0 6 -12 -1 -25 -16 -14 -15 -25
-23 -25 -18 0 6 -5 11 -11 11 -8 0 -8 -4 0 -14 11 -13 51 -11 49 3 -2 18 4 22
17 11 12 -10 18 -6 35 22 23 37 25 48 9 48 -5 0 -15 -13 -20 -30z"/>
<path d="M380 1490 c0 -6 -14 -8 -32 -5 -21 3 -28 2 -20 -4 18 -11 -46 -24
-74 -15 -16 5 -17 4 -4 -6 12 -9 6 -11 -28 -7 -23 3 -40 1 -37 -3 3 -4 -32
-13 -78 -20 -46 -6 -90 -16 -98 -21 -19 -12 -1 -12 76 2 33 5 83 14 110 19 98
17 120 21 131 25 7 2 10 -4 6 -17 -4 -16 -2 -19 9 -13 8 5 7 0 -4 -12 -9 -11
-14 -23 -10 -26 3 -4 1 -7 -5 -7 -7 0 -12 -17 -13 -42 0 -35 -2 -39 -10 -23
-9 18 -9 18 -5 -4 3 -13 1 -34 -4 -47 -5 -13 -6 -24 -1 -24 4 0 7 -26 7 -57
-1 -56 0 -57 41 -87 l42 -29 163 -1 c177 0 184 2 289 71 35 23 37 23 71 7 19
-9 104 -85 189 -168 123 -122 167 -159 219 -184 65 -32 66 -32 200 -28 128 3
138 5 198 35 42 21 84 55 130 103 120 129 246 248 289 273 35 21 54 25 118 25
99 0 185 29 375 125 80 41 170 85 201 99 47 20 69 40 69 62 0 2 -11 -1 -25 -8
-13 -6 -22 -15 -19 -19 3 -5 0 -9 -5 -9 -6 0 -11 5 -11 11 0 6 -6 9 -12 6 -7
-2 -12 -10 -10 -16 1 -6 -7 -11 -18 -11 -10 0 -47 -18 -82 -40 -34 -23 -74
-43 -88 -47 -14 -3 -27 -9 -30 -12 -11 -14 -82 -51 -98 -51 -10 0 -26 -6 -37
-13 -37 -25 -140 -56 -190 -58 -78 -3 -112 0 -97 9 7 5 15 22 18 38 l5 29 -25
-24 c-14 -13 -24 -27 -21 -31 7 -11 -43 -62 -54 -55 -6 3 -11 -1 -11 -10 0
-12 -6 -15 -19 -10 -11 3 -22 1 -26 -4 -4 -7 1 -8 12 -4 16 6 16 4 -2 -16 -18
-21 -20 -21 -26 -4 -6 15 -8 14 -8 -6 -1 -26 -43 -71 -67 -71 -7 0 -15 -4 -15
-10 -1 -5 -2 -14 -3 -18 -1 -11 -53 -72 -61 -72 -4 0 -3 10 0 23 5 16 4 18 -3
8 -6 -9 -17 -11 -28 -7 -18 7 -18 8 0 22 11 8 15 14 9 14 -7 0 -15 -4 -18 -10
-9 -14 -22 -12 -28 4 -4 10 -1 13 9 9 10 -3 12 0 9 10 -4 8 -14 14 -22 13 -10
0 -20 10 -24 24 -7 24 -7 24 -8 3 -1 -24 -31 -33 -31 -10 0 8 -4 7 -10 -3 -5
-8 -10 -11 -10 -6 0 12 -30 -14 -30 -27 0 -6 7 -2 16 9 14 17 15 17 10 1 -3
-10 -2 -15 3 -12 5 3 12 1 16 -5 4 -6 11 -8 16 -5 5 4 9 -1 9 -9 0 -17 -12
-21 -24 -9 -16 16 -31 9 -33 -15 0 -14 2 -21 5 -16 4 5 21 10 37 11 l30 1 -27
-12 c-26 -11 -26 -12 -8 -24 14 -8 21 -9 26 0 4 7 3 8 -4 4 -7 -4 -12 -3 -12
2 0 6 7 12 15 16 22 8 19 -21 -5 -51 -18 -23 -29 -55 -13 -40 3 4 12 2 20 -5
12 -9 8 -14 -18 -25 -38 -16 -60 -17 -39 -2 12 9 12 10 -4 5 -14 -5 -17 -2
-12 10 4 12 0 15 -17 12 -20 -3 -22 -8 -19 -48 2 -30 0 -40 -6 -31 -5 7 -7 21
-5 31 3 10 0 21 -6 24 -6 4 -11 3 -11 -3 0 -6 -7 -8 -15 -5 -8 4 -12 10 -9 15
9 15 -3 10 -22 -8 -17 -17 -18 -17 -11 0 4 12 1 17 -9 17 -10 0 -14 -6 -10
-15 6 -17 -2 -19 -24 -5 -8 5 -10 10 -4 10 6 0 22 11 35 24 13 13 33 26 44 29
19 4 19 5 -1 6 -12 0 -27 -6 -34 -14 -19 -23 -32 -18 -30 13 4 51 1 57 -14 36
-10 -13 -11 -23 -4 -31 12 -15 0 -17 -20 -4 -17 11 -16 16 9 45 13 15 28 22
38 19 13 -4 13 -3 2 5 -15 11 -51 -5 -51 -21 0 -4 -4 -6 -8 -3 -5 3 -19 -6
-32 -21 -12 -14 -16 -24 -9 -21 17 6 71 -23 77 -41 3 -10 -3 -12 -21 -9 -16 3
-24 1 -21 -6 3 -7 -5 -12 -17 -13 -15 -1 -18 1 -10 11 8 9 7 13 -4 13 -16 0
-20 -24 -6 -45 6 -11 10 -10 15 4 3 9 9 14 13 11 3 -4 12 -2 18 3 9 8 13 4 13
-14 0 -19 -5 -22 -21 -18 -15 4 -18 2 -12 -8 6 -10 4 -12 -9 -7 -10 4 -19 7
-21 7 -2 0 -7 16 -11 35 -4 25 -12 35 -25 35 -10 0 -21 5 -24 10 -3 6 -2 10 4
10 6 0 8 7 5 15 -4 8 -10 12 -15 9 -5 -3 -9 0 -9 6 0 7 7 9 16 6 9 -3 18 -6
20 -6 3 0 2 -5 -1 -10 -3 -5 0 -10 7 -10 9 0 9 -3 -2 -10 -13 -8 -13 -10 2
-10 14 0 17 7 14 31 -3 24 0 29 12 24 9 -3 13 -3 10 1 -4 3 3 15 15 25 16 13
18 18 7 19 -13 0 -13 2 -1 9 9 6 4 8 -18 6 -17 -1 -31 -5 -31 -9 0 -3 0 -11 0
-17 0 -8 4 -8 14 0 9 8 16 8 20 2 4 -5 -4 -13 -16 -17 -13 -4 -26 -12 -30 -18
-4 -6 -10 -7 -14 -3 -4 3 -1 13 5 21 9 11 9 20 2 34 -8 16 -7 21 5 26 17 6 10
26 -9 26 -8 0 -8 -3 1 -9 11 -7 11 -9 -2 -14 -9 -4 -16 -1 -16 5 0 6 -3 9 -6
5 -4 -3 -3 -14 0 -24 4 -10 7 -20 6 -22 -1 -2 4 -7 10 -11 7 -4 1 -7 -14 -7
-22 0 -24 2 -14 14 6 8 7 13 2 12 -21 -4 -35 2 -29 11 4 6 10 8 15 5 4 -3 6 4
3 15 -4 14 2 23 19 31 21 9 30 7 62 -14 64 -44 88 -44 165 2 38 22 81 45 96
51 15 6 25 13 22 17 -4 3 -29 -4 -56 -16 -41 -17 -68 -21 -153 -20 -57 1 -116
5 -133 8 -28 7 -26 8 23 15 28 4 52 13 52 19 0 8 4 7 9 -2 6 -9 11 -10 15 -2
4 6 12 9 17 6 5 -4 9 -1 9 6 0 8 7 6 19 -5 19 -17 19 -17 14 4 -4 17 -11 20
-29 16 -16 -4 -24 -2 -24 6 0 9 -3 10 -8 2 -10 -16 -52 -29 -125 -41 l-39 -6
37 -17 c26 -12 32 -19 22 -23 -8 -3 -22 -18 -29 -34 -8 -15 -19 -27 -25 -26
-13 3 -12 -29 2 -39 6 -5 5 -8 -3 -8 -11 0 -11 -2 0 -13 7 -8 20 -16 28 -19
10 -3 8 -6 -8 -10 -12 -4 -20 -2 -17 2 3 5 1 11 -5 15 -14 9 -12 -18 3 -34 10
-11 9 -13 -6 -7 -10 3 -20 6 -23 6 -2 0 -1 7 2 15 4 10 0 15 -12 15 -16 0 -17
-2 -4 -11 13 -9 12 -10 -2 -5 -10 3 -18 1 -18 -4 0 -6 6 -10 14 -10 8 0 21 -7
30 -15 13 -14 16 -13 29 6 13 17 18 19 35 8 16 -10 18 -16 9 -31 -9 -14 -8
-20 8 -32 25 -18 44 -4 25 19 -10 12 -10 15 4 15 9 0 16 -6 16 -14 0 -8 3 -22
7 -32 4 -11 3 -15 -5 -10 -6 3 -14 2 -17 -4 -5 -8 -12 -7 -22 2 -21 17 -46 19
-39 3 3 -9 0 -12 -9 -9 -8 3 -13 11 -12 16 1 6 -4 13 -12 16 -9 3 -11 0 -7 -9
4 -8 2 -7 -6 2 -7 9 -32 28 -55 42 -41 26 -68 59 -57 70 3 3 -2 4 -12 4 -9 -1
-19 4 -21 11 -4 9 3 11 21 8 23 -4 25 -3 16 15 -12 22 -22 26 -14 6 3 -9 -2
-13 -16 -12 -28 2 -76 53 -63 66 7 7 18 -1 32 -23 20 -31 22 -31 19 -8 -4 30
-37 52 -56 37 -12 -10 -52 20 -104 78 -23 26 -23 43 0 23 9 -8 24 -18 32 -23
8 -4 2 4 -15 18 -21 18 -34 22 -42 15 -9 -7 -15 -6 -19 6 -3 9 -10 14 -14 11
-4 -3 -10 2 -14 10 -7 20 -52 19 -60 0 -3 -9 -36 -30 -73 -47 -56 -27 -80 -32
-156 -34 -49 -2 -100 1 -113 6 -13 5 -24 6 -24 2 0 -4 -27 -8 -59 -7 -42 0
-65 5 -78 18 -11 9 -24 17 -29 17 -23 0 2 187 35 260 11 24 17 47 13 50 -15
11 -13 32 2 27 10 -4 20 2 26 13 7 14 7 20 0 20 -5 0 -10 -5 -10 -10z m1178
-446 c-13 -7 -27 -10 -32 -7 -5 4 -6 1 -2 -5 3 -6 2 -13 -4 -17 -5 -3 -10 -1
-10 5 0 6 -4 8 -10 5 -5 -3 -26 3 -47 14 l-38 20 82 -2 c70 -1 79 -3 61 -13z
m216 -17 c-1 -8 9 -21 22 -28 13 -7 24 -16 24 -21 0 -5 -4 -6 -10 -3 -5 3 -10
1 -10 -4 0 -6 4 -11 10 -11 5 0 7 -7 4 -15 -4 -10 0 -15 12 -15 11 0 15 4 9 8
-16 11 -16 32 -1 32 32 0 26 -24 -15 -66 -37 -38 -45 -42 -57 -30 -15 14 -14
19 13 65 12 22 12 26 -2 36 -9 7 -13 17 -9 23 6 10 -10 27 -28 27 -5 0 -11 5
-13 10 -2 6 9 10 24 9 19 -1 28 -6 27 -17z m-49 -37 c3 -5 1 -10 -4 -10 -6 0
-11 5 -11 10 0 6 2 10 4 10 3 0 8 -4 11 -10z m-391 -25 c-4 -10 0 -15 15 -15
18 0 20 -2 9 -14 -8 -9 -19 -11 -28 -6 -20 11 -23 50 -5 50 9 0 12 -6 9 -15z
m139 -30 c-3 -9 -8 -14 -10 -11 -3 3 -2 9 2 15 9 16 15 13 8 -4z m-108 -35 c3
-5 2 -10 -4 -10 -5 0 -13 5 -16 10 -3 6 -2 10 4 10 5 0 13 -4 16 -10z m9 -45
c-4 -8 -1 -15 5 -15 6 0 11 -5 11 -12 0 -8 -6 -7 -16 4 -9 9 -13 21 -10 27 10
16 16 13 10 -4z m293 -2 c-4 -3 4 -14 18 -23 l25 -17 -23 -10 c-17 -8 -24 -8
-24 0 0 7 -3 22 -7 35 -5 15 -3 22 5 22 7 0 9 -3 6 -7z m-147 -33 c0 -5 -2
-10 -4 -10 -3 0 -8 5 -11 10 -3 6 -1 10 4 10 6 0 11 -4 11 -10z m75 0 c3 5 11
7 18 4 15 -5 20 -44 6 -44 -5 0 -9 5 -9 12 0 6 -3 9 -6 5 -3 -3 -17 -2 -30 3
-18 7 -22 6 -17 -5 3 -8 0 -15 -6 -15 -18 0 -26 31 -10 40 7 5 21 4 30 -1 11
-6 20 -5 24 1z m-220 -30 c3 -5 -1 -10 -10 -10 -9 0 -13 5 -10 10 3 6 8 10 10
10 2 0 7 -4 10 -10z m35 -6 c0 -8 -5 -12 -10 -9 -6 4 -8 11 -5 16 9 14 15 11
15 -7z m110 6 c0 -5 -8 -10 -17 -10 -15 0 -16 2 -3 10 19 12 20 12 20 0z m70
-10 c0 -5 -4 -10 -10 -10 -5 0 -10 5 -10 10 0 6 5 10 10 10 6 0 10 -4 10 -10z"/>
<path d="M1775 990 c3 -5 11 -10 16 -10 6 0 7 5 4 10 -3 6 -11 10 -16 10 -6 0
-7 -4 -4 -10z"/>
<path d="M1785 930 c-3 -6 1 -13 10 -16 21 -9 26 -2 10 13 -9 8 -16 9 -20 3z"/>
<path d="M1765 900 c-8 -13 15 -24 27 -12 6 6 4 11 -6 15 -8 3 -18 2 -21 -3z"/>
<path d="M480 1490 c-8 -5 -12 -11 -10 -14 3 -2 14 2 24 10 22 15 10 19 -14 4z"/>
<path d="M1007 1486 c4 -5 0 -7 -8 -4 -10 4 -15 -1 -15 -14 0 -14 5 -18 21
-14 11 3 25 6 30 6 6 0 3 5 -5 10 -13 9 -13 11 0 20 12 7 10 9 -7 7 -12 0 -19
-5 -16 -11z"/>
<path d="M1616 1483 c-6 -14 -5 -15 5 -6 7 7 10 15 7 18 -3 3 -9 -2 -12 -12z"/>
<path d="M912 1470 c0 -14 2 -19 5 -12 2 6 2 18 0 25 -3 6 -5 1 -5 -13z"/>
<path d="M1487 1475 c-4 -9 -15 -15 -24 -13 -13 2 -19 -5 -21 -24 -2 -16 -9
-28 -18 -28 -8 0 -14 -5 -14 -11 0 -6 -6 -9 -14 -6 -8 3 -20 0 -26 -8 -9 -10
-4 -13 24 -12 24 1 32 5 29 14 -4 9 0 11 13 7 11 -4 16 -3 11 1 -10 12 22 45
39 38 8 -3 14 -14 14 -24 0 -10 12 -25 28 -33 15 -9 20 -16 12 -16 -12 0 -11
-3 3 -11 10 -6 21 -8 24 -5 4 3 0 6 -7 6 -7 0 -1 9 13 20 33 26 45 25 21 -2
-10 -12 -13 -18 -6 -14 6 4 12 4 12 -1 -1 -14 -27 -43 -39 -43 -7 0 -9 -4 -6
-10 6 -9 -8 -14 -27 -11 -15 2 -8 -18 8 -27 11 -6 13 -11 5 -16 -6 -4 -11 -2
-11 4 0 6 -3 9 -7 7 -5 -3 -17 -1 -28 4 -17 6 -17 8 -2 8 19 1 23 16 7 26 -14
9 7 35 26 35 11 0 10 5 -3 18 -14 14 -21 16 -32 8 -8 -6 -16 -10 -18 -8 -1 1
-3 0 -3 -3 0 -3 0 -10 0 -17 0 -6 9 -3 20 7 11 10 20 13 20 7 0 -6 -9 -16 -20
-22 -11 -6 -20 -8 -20 -4 0 3 -8 0 -17 -7 -17 -13 -17 -13 -3 5 8 11 10 17 3
13 -26 -16 -21 13 8 42 17 17 25 31 19 31 -6 0 -8 5 -4 12 4 7 3 8 -4 4 -7 -4
-12 -16 -12 -27 0 -11 -3 -18 -7 -16 -17 10 -32 -23 -23 -50 1 -5 2 -12 1 -17
-1 -4 3 -14 9 -21 12 -14 -12 -41 -29 -31 -14 9 -42 -5 -34 -17 4 -6 0 -8 -10
-4 -17 6 -25 -17 -9 -26 4 -2 2 -3 -4 -1 -18 4 -38 -12 -25 -20 6 -4 11 -3 11
2 0 6 8 9 17 8 10 0 18 5 18 13 0 8 7 17 15 21 8 4 25 12 37 18 28 15 36 15
28 2 -3 -5 -1 -10 4 -10 14 0 14 6 1 31 -9 15 -7 21 5 25 9 4 22 1 28 -6 9
-10 8 -12 -5 -7 -11 4 -15 1 -13 -11 2 -9 4 -20 4 -24 1 -4 8 -4 18 -1 10 4
14 2 10 -4 -4 -7 6 -10 28 -10 33 1 34 2 20 23 -12 19 -12 22 10 34 12 7 28
23 34 36 6 14 16 21 25 18 9 -3 21 6 32 25 25 42 52 40 45 -2 -1 -5 3 -6 9 -2
5 3 10 2 10 -3 0 -17 -13 -22 -28 -9 -13 9 -14 9 -8 0 7 -12 -4 -17 -29 -14
-5 1 1 -8 14 -19 13 -11 19 -20 13 -20 -6 0 -14 -10 -18 -22 l-8 -23 -7 25
c-5 18 -7 20 -8 6 -1 -15 -6 -17 -31 -13 -22 5 -28 3 -24 -7 3 -8 14 -12 25
-9 10 3 26 0 34 -7 12 -10 16 -8 24 13 5 14 15 28 21 32 5 3 8 10 5 15 -9 14
13 22 33 11 13 -7 22 -7 30 1 9 9 12 9 12 -1 0 -11 3 -11 15 -1 8 7 12 16 9
21 -3 5 -1 9 4 9 12 0 10 33 -3 42 -13 9 -25 0 -25 -20 0 -15 2 -15 11 -2 8
12 10 11 7 -5 -3 -21 -28 -28 -40 -11 -4 6 -2 14 5 19 7 5 3 6 -11 2 -16 -5
-24 -1 -29 12 -4 10 -11 21 -16 25 -14 9 -37 -1 -37 -17 0 -21 -34 -45 -50
-35 -10 7 -11 10 -2 10 8 0 10 8 6 24 -6 27 14 46 27 25 7 -11 9 -10 9 4 0 10
7 17 18 17 14 0 15 -2 2 -10 -12 -7 -11 -9 5 -8 11 0 31 -1 45 -4 14 -3 19 -3
13 -1 -7 3 -13 8 -13 12 0 8 -12 11 -59 14 -20 1 -26 5 -20 13 6 8 2 10 -17 6
-14 -2 -21 -8 -15 -11 7 -5 2 -20 -15 -44 -28 -42 -25 -41 -59 -25 -30 14 -33
34 -5 43 11 3 20 13 20 21 0 18 26 18 33 0 4 -9 -3 -16 -20 -21 -14 -3 -23 -8
-21 -11 3 -2 17 0 32 5 23 9 25 13 15 35 -9 20 -16 23 -33 16 -11 -4 -20 -13
-18 -19 1 -6 -3 -11 -9 -11 -6 0 -9 9 -6 20 3 12 1 18 -5 14 -6 -4 -14 -1 -18
6 -5 8 -9 7 -13 -5z m27 -31 c5 -12 2 -15 -10 -10 -8 3 -18 6 -20 6 -3 0 -2 5
1 10 9 15 22 12 29 -6z m229 -103 c3 -14 1 -18 -9 -14 -15 6 -18 16 -7 26 9
10 10 9 16 -12z"/>
<path d="M440 1470 c0 -5 5 -10 10 -10 6 0 10 5 10 10 0 6 -4 10 -10 10 -5 0
-10 -4 -10 -10z"/>
<path d="M1058 1453 c7 -3 16 -2 19 1 4 3 -2 6 -13 5 -11 0 -14 -3 -6 -6z"/>
<path d="M1136 1447 c3 -10 9 -15 12 -12 3 3 0 11 -7 18 -10 9 -11 8 -5 -6z"/>
<path d="M395 1418 c-3 -18 -8 -49 -9 -68 -2 -19 -6 -46 -10 -60 -4 -16 -2
-32 7 -45 13 -17 15 -13 16 46 0 36 7 86 15 112 11 37 11 47 1 47 -7 0 -16
-15 -20 -32z"/>
<path d="M978 1422 c4 -11 1 -13 -8 -7 -9 5 -11 4 -6 -4 4 -7 13 -10 19 -8 15
5 17 34 2 34 -8 0 -11 -7 -7 -15z"/>
<path d="M1740 1433 c8 -3 19 -11 23 -17 6 -7 7 -6 4 4 -2 8 -12 16 -23 17
-13 2 -15 1 -4 -4z"/>
<path d="M1020 1419 c0 -5 7 -9 15 -9 9 0 12 -6 9 -15 -4 -8 -11 -12 -17 -8
-6 4 -7 1 -2 -7 6 -10 11 -10 20 3 17 24 27 21 20 -5 -5 -20 -5 -21 5 -5 9 13
9 22 0 31 -13 17 -50 28 -50 15z"/>
<path d="M1156 1415 c-3 -8 -15 -15 -26 -15 -12 0 -20 -7 -20 -17 0 -14 2 -15
9 -5 7 11 10 10 15 -3 3 -9 4 -21 1 -25 -3 -5 0 -12 6 -16 8 -5 9 -3 4 6 -6
10 -4 12 10 6 18 -6 18 -6 2 12 -25 28 -20 39 6 14 13 -12 27 -19 30 -15 12
12 7 21 -10 19 -14 -1 -18 6 -16 27 2 30 -2 35 -11 12z"/>
<path d="M2555 1415 c-16 -7 -41 -17 -55 -23 -24 -10 -23 -10 10 -10 19 -1 48
-2 64 -4 18 -2 31 2 34 10 3 11 0 12 -17 3 -14 -8 -27 -9 -38 -3 -13 8 -11 11
15 17 18 3 32 11 32 16 0 12 -8 11 -45 -6z"/>
<path d="M505 1400 c-3 -6 1 -7 9 -4 18 7 21 14 7 14 -6 0 -13 -4 -16 -10z"/>
<path d="M1345 1399 c-11 -17 1 -21 15 -4 8 9 8 15 2 15 -6 0 -14 -5 -17 -11z"/>
<path d="M2425 1400 c-3 -6 1 -7 9 -4 18 7 21 14 7 14 -6 0 -13 -4 -16 -10z"/>
<path d="M2620 1400 c0 -5 5 -10 10 -10 6 0 10 5 10 10 0 6 -4 10 -10 10 -5 0
-10 -4 -10 -10z"/>
<path d="M911 1384 c0 -11 3 -14 6 -6 3 7 2 16 -1 19 -3 4 -6 -2 -5 -13z"/>
<path d="M2356 1378 c3 -4 -15 -17 -38 -29 -75 -37 -107 -79 -60 -79 13 0 14
2 3 9 -11 7 -11 10 0 17 31 20 55 34 77 43 12 6 22 15 22 21 0 5 7 10 15 10 8
0 15 -7 15 -17 0 -9 3 -14 6 -10 12 12 -7 46 -26 44 -10 -1 -17 -5 -14 -9z"/>
<path d="M1013 1359 c3 -9 0 -22 -6 -28 -8 -8 -7 -14 2 -23 11 -11 12 -10 7 0
-4 7 -2 20 5 28 10 12 10 17 -1 27 -10 10 -12 9 -7 -4z"/>
<path d="M2459 1353 c-13 -15 -12 -15 9 -4 23 12 28 21 13 21 -5 0 -15 -7 -22
-17z"/>
<path d="M2515 1360 c-13 -6 -15 -9 -5 -9 8 0 22 4 30 9 18 12 2 12 -25 0z"/>
<path d="M2735 1360 c3 -5 8 -10 11 -10 2 0 4 5 4 10 0 6 -5 10 -11 10 -5 0
-7 -4 -4 -10z"/>
<path d="M1368 1349 c26 -10 30 -21 5 -13 -15 5 -16 4 -3 -5 21 -15 33 -14 27
3 -3 8 -1 17 6 19 7 2 -4 4 -23 4 -30 1 -32 0 -12 -8z"/>
<path d="M2215 1349 c-11 -17 1 -21 15 -4 8 9 8 15 2 15 -6 0 -14 -5 -17 -11z"/>
<path d="M1101 1323 c0 -12 2 -14 6 -4 5 11 7 11 15 0 8 -12 9 -12 6 0 -6 22
-28 25 -27 4z"/>
<path d="M2506 1333 c-4 -5 -11 -8 -14 -8 -4 -1 -36 -11 -72 -23 -75 -26 -113
-47 -65 -36 17 4 35 10 40 14 6 5 35 15 65 24 63 19 96 36 69 36 -9 0 -19 -3
-23 -7z"/>
<path d="M1149 1309 c-12 -17 -18 -19 -42 -10 -36 14 -35 6 3 -13 17 -8 30
-10 30 -5 0 5 3 8 8 8 25 -4 34 2 23 14 -6 8 -8 17 -4 20 3 4 4 7 1 7 -3 0
-12 -9 -19 -21z"/>
<path d="M1623 1323 c-16 -6 -17 -30 -1 -39 7 -5 9 -2 5 9 -4 12 0 14 19 11
13 -2 24 -2 24 0 0 10 -35 23 -47 19z"/>
<path d="M337 1307 c-4 -10 -7 -28 -6 -40 0 -21 1 -21 10 2 5 14 8 32 7 40 -3
13 -5 13 -11 -2z"/>
<path d="M1515 1310 c-3 -5 1 -10 9 -10 9 0 16 5 16 10 0 6 -4 10 -9 10 -6 0
-13 -4 -16 -10z"/>
<path d="M2161 1307 c-14 -17 -2 -30 15 -16 8 6 14 7 18 0 8 -12 36 -3 36 11
0 5 -9 6 -20 3 -11 -4 -20 -2 -20 4 0 15 -15 14 -29 -2z"/>
<path d="M809 1303 c13 -2 26 -13 28 -24 7 -27 25 -24 21 4 -2 18 -10 22 -38
24 -21 0 -26 -1 -11 -4z"/>
<path d="M1358 1302 c-18 -2 -28 -9 -28 -20 0 -15 -2 -15 -10 -2 -8 13 -10 13
-10 -2 0 -9 -3 -24 -7 -34 -5 -14 -2 -13 15 4 12 12 29 22 37 22 8 0 15 5 15
10 0 6 5 10 11 10 5 0 7 -5 3 -12 -5 -7 -2 -9 9 -5 9 3 17 1 20 -6 2 -8 5 -8
11 1 4 7 3 12 -3 12 -6 0 -8 8 -5 18 5 14 4 15 -5 2 -7 -9 -14 -11 -18 -5 -5
6 -20 9 -35 7z"/>
<path d="M1740 1280 c0 -10 5 -20 12 -22 9 -3 9 -6 0 -12 -7 -4 -14 3 -18 19
-7 29 -16 31 -38 9 -20 -20 -20 -25 1 -17 12 5 14 3 8 -8 -7 -11 -5 -11 10 1
17 14 18 13 13 -1 -5 -12 0 -18 17 -21 17 -4 22 -1 18 9 -4 11 0 11 20 4 21
-8 25 -7 20 4 -3 8 -9 12 -14 9 -17 -10 -31 7 -18 22 6 8 10 14 8 15 -34 7
-39 6 -39 -11z"/>
<path d="M650 1276 c-41 -17 -31 -19 24 -6 25 5 59 5 93 -2 48 -10 75 -7 61 7
-13 13 -145 14 -178 1z"/>
<path d="M1205 1281 c-11 -5 -24 -6 -30 -3 -5 3 -7 2 -3 -3 4 -4 2 -15 -5 -24
-11 -14 -10 -14 6 -2 9 7 17 10 17 5 0 -5 4 -3 9 4 7 11 9 11 14 -2 4 -9 3
-15 -1 -15 -26 4 -32 -1 -20 -21 13 -21 51 -21 72 0 8 8 6 9 -8 4 -14 -5 -17
-4 -12 4 4 7 1 15 -8 18 -19 7 -21 30 -3 37 6 3 8 5 2 6 -5 0 -19 -4 -30 -8z
m32 -57 c0 -14 -29 -12 -34 2 -2 5 5 10 15 10 10 0 19 -6 19 -12z"/>
<path d="M1258 1273 c7 -3 16 -2 19 1 4 3 -2 6 -13 5 -11 0 -14 -3 -6 -6z"/>
<path d="M2205 1270 c-3 -5 1 -10 10 -10 9 0 13 5 10 10 -3 6 -8 10 -10 10 -2
0 -7 -4 -10 -10z"/>
<path d="M1287 1263 c-4 -3 -7 -13 -7 -22 1 -13 3 -13 11 2 11 19 8 33 -4 20z"/>
<path d="M2100 1261 c-8 -6 -18 -7 -24 -4 -5 3 -6 1 -2 -5 5 -9 13 -9 27 -2
10 6 19 13 19 15 0 7 -3 6 -20 -4z"/>
<path d="M545 1245 c-39 -18 -31 -18 25 -1 25 8 36 15 25 15 -11 0 -33 -6 -50
-14z"/>
<path d="M705 1250 c-8 -13 9 -20 24 -11 10 6 9 10 -3 14 -8 3 -18 2 -21 -3z"/>
<path d="M1255 1250 c3 -5 8 -10 11 -10 2 0 4 5 4 10 0 6 -5 10 -11 10 -5 0
-7 -4 -4 -10z"/>
<path d="M350 1240 c0 -5 5 -10 10 -10 6 0 10 5 10 10 0 6 -4 10 -10 10 -5 0
-10 -4 -10 -10z"/>
<path d="M619 1243 c-1 -5 -1 -12 0 -17 1 -4 -3 -14 -9 -21 -8 -10 -6 -15 11
-20 20 -7 47 -1 132 25 16 5 25 5 21 -1 -3 -5 -1 -9 5 -9 5 0 11 5 13 12 3 7
12 9 22 5 15 -6 16 -10 6 -22 -7 -9 -8 -15 -2 -15 5 0 12 7 16 15 3 9 18 15
36 15 16 0 30 4 30 9 0 5 -10 9 -22 9 -13 0 -40 2 -60 5 -21 2 -49 -1 -62 -8
-13 -7 -35 -13 -48 -13 -13 0 -37 -4 -55 -10 -31 -10 -32 -10 -28 19 2 16 2
29 -1 29 -2 0 -5 -3 -5 -7z"/>
<path d="M668 1233 c7 -3 16 -2 19 1 4 3 -2 6 -13 5 -11 0 -14 -3 -6 -6z"/>
<path d="M1435 1229 c-3 -4 -12 -6 -19 -3 -8 3 -17 0 -22 -7 -4 -7 -3 -10 4
-5 6 3 14 2 17 -4 4 -7 11 -8 18 -2 7 6 21 12 32 14 19 4 19 4 -2 10 -13 3
-25 2 -28 -3z"/>
<path d="M550 1220 c-8 -5 -10 -10 -5 -10 6 0 17 5 25 10 8 5 11 10 5 10 -5 0
-17 -5 -25 -10z"/>
<path d="M990 1226 c0 -2 7 -7 16 -10 8 -3 12 -2 9 4 -6 10 -25 14 -25 6z"/>
<path d="M1312 1218 c-7 -7 -12 -19 -13 -27 0 -12 -2 -12 -6 -3 -4 10 -9 9
-19 -5 -12 -15 -13 -15 -8 -1 4 13 1 15 -15 11 -23 -6 -28 -28 -8 -36 19 -7
80 21 72 33 -3 6 1 13 9 16 17 6 22 24 8 24 -4 0 -13 -5 -20 -12z"/>
<path d="M920 1212 c0 -7 8 -16 18 -19 9 -4 20 -11 23 -16 3 -5 9 0 11 11 4
15 1 18 -14 14 -11 -3 -24 1 -29 9 -6 11 -9 11 -9 1z"/>
<path d="M364 1199 c-3 -5 4 -9 15 -9 10 0 21 -6 23 -12 3 -7 7 -3 10 9 4 17
1 21 -18 21 -14 0 -27 -4 -30 -9z"/>
<path d="M1965 1190 c4 -6 11 -8 16 -5 14 9 11 15 -7 15 -8 0 -12 -5 -9 -10z"/>
<path d="M333 1178 c-7 -8 -8 -19 -3 -28 8 -12 10 -12 15 2 10 26 2 43 -12 26z"/>
<path d="M755 1180 c-3 -5 -1 -10 4 -10 6 0 11 5 11 10 0 6 -2 10 -4 10 -3 0
-8 -4 -11 -10z"/>
<path d="M981 1174 c0 -11 3 -14 6 -6 3 7 2 16 -1 19 -3 4 -6 -2 -5 -13z"/>
<path d="M580 1170 c0 -5 10 -10 23 -10 18 0 19 2 7 10 -19 13 -30 13 -30 0z"/>
<path d="M1055 1171 c-3 -5 -2 -12 3 -15 5 -3 9 1 9 9 0 17 -3 19 -12 6z"/>
<path d="M1113 1168 c7 -20 -28 -56 -36 -36 -3 7 -5 1 -4 -14 1 -19 5 -24 13
-17 7 6 16 4 24 -6 7 -8 20 -15 29 -14 11 0 10 3 -6 11 -23 11 -31 28 -14 28
10 0 6 49 -5 58 -4 4 -5 0 -1 -10z"/>
<path d="M1996 1163 c-6 -14 -5 -15 5 -6 7 7 10 15 7 18 -3 3 -9 -2 -12 -12z"/>
<path d="M1966 1151 c3 -13 2 -21 -2 -18 -5 3 -15 -1 -22 -9 -14 -16 -4 -18
18 -4 9 5 19 5 27 -2 9 -7 13 -7 13 1 0 6 -4 11 -8 11 -5 0 -14 10 -21 23
l-11 22 6 -24z"/>
<path d="M2185 1160 c-3 -5 -1 -10 4 -10 6 0 11 5 11 10 0 6 -2 10 -4 10 -3 0
-8 -4 -11 -10z"/>
<path d="M443 1145 c0 -8 6 -15 14 -15 7 0 13 7 13 15 0 8 -6 15 -13 15 -8 0
-14 -7 -14 -15z"/>
<path d="M548 1153 c-26 -6 -22 -18 7 -19 14 -1 25 2 25 6 0 12 -12 17 -32 13z"/>
<path d="M1155 1150 c-3 -5 -2 -10 4 -10 5 0 13 5 16 10 3 6 2 10 -4 10 -5 0
-13 -4 -16 -10z"/>
<path d="M1920 1151 c0 -8 -8 -11 -20 -8 -23 6 -37 -8 -16 -16 17 -7 54 18 43
29 -4 4 -7 2 -7 -5z"/>
<path d="M1543 1128 c-2 -16 1 -18 10 -9 7 7 8 14 1 21 -6 6 -10 2 -11 -12z"/>
<path d="M375 1130 c4 -6 11 -8 16 -5 14 9 11 15 -7 15 -8 0 -12 -5 -9 -10z"/>
<path d="M648 1133 c7 -3 16 -2 19 1 4 3 -2 6 -13 5 -11 0 -14 -3 -6 -6z"/>
<path d="M2081 1120 c-13 -11 -19 -20 -14 -20 6 0 18 9 28 20 23 25 17 25 -14
0z"/>
<path d="M1160 1121 c0 -6 5 -13 10 -16 6 -3 10 1 10 9 0 9 -4 16 -10 16 -5 0
-10 -4 -10 -9z"/>
<path d="M1031 1104 c0 -12 5 -27 12 -33 10 -8 14 -7 14 4 0 8 -4 12 -8 9 -4
-2 -10 6 -12 18 -4 22 -4 22 -6 2z"/>
<path d="M1840 1111 c-8 -6 -18 -7 -22 -5 -4 3 -8 0 -8 -5 0 -6 3 -11 8 -11
12 1 58 29 47 29 -5 1 -17 -3 -25 -8z"/>
<path d="M1889 1083 c-12 -16 -12 -17 2 -6 12 10 18 10 29 0 9 -8 11 -8 6 0
-3 6 0 14 6 16 7 3 3 6 -8 6 -12 1 -28 -7 -35 -16z"/>
<path d="M1109 1059 c16 -18 24 -20 33 -11 7 7 17 12 22 12 6 0 5 -5 -2 -12
-7 -7 -12 -21 -11 -32 0 -16 2 -17 7 -6 4 8 17 15 29 14 12 -1 20 3 17 7 -3 5
0 9 6 9 6 0 8 5 5 10 -3 6 -1 10 6 10 7 0 9 3 6 6 -4 4 -13 1 -22 -6 -13 -11
-15 -10 -9 6 3 12 3 14 -3 8 -8 -12 -44 -11 -83 1 l-23 7 22 -23z m76 -19 c3
-5 1 -10 -4 -10 -6 0 -11 5 -11 10 0 6 2 10 4 10 3 0 8 -4 11 -10z"/>
<path d="M1291 1064 c0 -11 3 -14 6 -6 3 7 2 16 -1 19 -3 4 -6 -2 -5 -13z"/>
<path d="M1830 1055 c-18 -22 17 -33 36 -11 8 9 9 11 2 6 -7 -6 -19 -10 -27
-10 -11 0 -10 4 5 15 10 8 14 15 8 15 -6 0 -17 -7 -24 -15z"/>
<path d="M1255 1050 c3 -5 1 -10 -4 -10 -6 0 -11 -5 -11 -11 0 -5 5 -7 10 -4
6 3 10 2 10 -4 0 -5 -7 -14 -17 -19 -13 -8 -11 -9 12 -9 19 0 23 2 14 8 -10 6
-6 9 13 9 33 0 29 22 -8 39 -15 6 -23 7 -19 1z m30 -20 c3 -5 2 -10 -4 -10 -5
0 -13 5 -16 10 -3 6 -2 10 4 10 5 0 13 -4 16 -10z"/>
<path d="M1657 1038 c4 -19 3 -20 -6 -8 -9 13 -11 13 -11 -1 0 -9 6 -19 13
-22 15 -5 22 39 8 48 -5 3 -7 -5 -4 -17z"/>
<path d="M1900 1041 c0 -7 -5 -9 -12 -5 -6 4 -8 3 -4 -4 3 -6 -2 -13 -11 -15
-15 -4 -15 -5 -2 -6 19 -1 45 26 35 36 -3 3 -6 1 -6 -6z"/>
<path d="M1610 1020 c-6 -11 -7 -20 -2 -20 6 0 12 9 15 20 3 11 3 20 1 20 -2
0 -8 -9 -14 -20z"/>
<path d="M1995 1029 c-4 -6 -5 -12 -2 -15 2 -3 7 2 10 11 7 17 1 20 -8 4z"/>
<path d="M1192 974 c11 -19 24 -50 28 -67 6 -24 8 -27 9 -9 1 16 9 24 29 28
31 6 40 34 10 34 -10 0 -18 -7 -18 -17 0 -14 -2 -15 -9 -5 -4 8 -12 14 -17 15
-5 1 -15 13 -22 27 l-12 25 20 -24 c17 -20 23 -22 33 -11 7 7 7 10 1 7 -6 -3
-18 3 -27 14 -9 10 -23 19 -32 19 -11 0 -10 -7 7 -36z"/>
<path d="M1268 973 c7 -3 16 -2 19 1 4 3 -2 6 -13 5 -11 0 -14 -3 -6 -6z"/>
<path d="M1554 964 c-13 -5 -7 -44 7 -44 4 0 11 5 15 12 5 7 3 8 -6 3 -10 -6
-12 -3 -8 13 4 12 5 22 5 21 -1 0 -7 -3 -13 -5z"/>
<path d="M1688 943 c6 -2 12 -9 12 -14 0 -6 -9 -5 -21 1 -11 7 -23 9 -26 7 -9
-10 8 -47 19 -41 6 4 5 9 -3 15 -7 4 -10 11 -7 14 4 4 15 -3 25 -14 18 -22 43
-28 43 -11 0 14 -33 50 -45 49 -5 0 -4 -3 3 -6z"/>
<path d="M1610 930 c-12 -7 -10 -9 8 -7 12 0 22 5 22 9 0 11 -12 10 -30 -2z"/>
<path d="M1620 901 c0 -5 -10 -11 -22 -13 -12 -2 -23 -9 -26 -16 -2 -6 2 -10
10 -8 7 2 25 7 41 10 28 7 38 36 12 36 -8 0 -15 -4 -15 -9z"/>
<path d="M1426 883 c-4 -11 -1 -11 14 -3 24 13 25 17 5 17 -8 0 -16 -6 -19
-14z"/>
<path d="M1257 869 c7 -7 15 -10 18 -7 3 3 -2 9 -12 12 -14 6 -15 5 -6 -5z"/>
<path d="M1330 864 c0 -8 -4 -12 -10 -9 -5 3 -10 2 -10 -3 0 -23 26 -18 28 4
1 13 0 24 -3 24 -3 0 -5 -7 -5 -16z"/>
<path d="M1700 869 c0 -5 5 -7 10 -4 6 3 10 8 10 11 0 2 -4 4 -10 4 -5 0 -10
-5 -10 -11z"/>
<path d="M1761 796 c-9 -11 -9 -16 1 -22 7 -4 10 -4 6 1 -4 4 -3 14 3 22 6 7
9 13 6 13 -2 0 -10 -6 -16 -14z"/>
<path d="M1520 730 c-21 -7 -21 -8 -5 -9 11 0 27 4 35 9 18 11 5 11 -30 0z"/>
<path d="M2212 505 c0 -16 2 -22 5 -12 2 9 2 23 0 30 -3 6 -5 -1 -5 -18z"/>
<path d="M2235 470 c-3 -6 1 -7 9 -4 18 7 21 14 7 14 -6 0 -13 -4 -16 -10z"/>
<path d="M1648 33 c6 -2 18 -2 25 0 6 3 1 5 -13 5 -14 0 -19 -2 -12 -5z"/>
<path d="M2558 33 c12 -2 32 -2 45 0 12 2 2 4 -23 4 -25 0 -35 -2 -22 -4z"/>
<path d="M2938 33 c6 -2 18 -2 25 0 6 3 1 5 -13 5 -14 0 -19 -2 -12 -5z"/>
<path d="M747 3 c414 -2 1092 -2 1505 0 414 1 76 2 -752 2 -828 0 -1166 -1
-753 -2z"/>
</g>
</svg>
